<svg width="40" height="40" viewBox="0 0 40 40" fill="none" xmlns="http://www.w3.org/2000/svg">
<rect width="40" height="40" rx="20" fill="#34373F"/>
<mask id="mask0_3844_12216" style="mask-type:alpha" maskUnits="userSpaceOnUse" x="11" y="10" width="18" height="20">
<path d="M25.0008 14.9999C25.0008 17.7612 22.7623 19.9998 20.001 19.9998C17.2397 19.9998 15.0012 17.7612 15.0012 14.9999C15.0012 12.2385 17.2397 10 20.001 10C22.7623 10 25.0008 12.2385 25.0008 14.9999Z" fill="#006FFD"/>
<path d="M11.668 26.6667C11.668 23.9054 13.9065 21.6669 16.6678 21.6669H23.3342C26.0955 21.6669 28.334 23.9054 28.334 26.6667V27.5001C28.334 28.8807 27.2147 30 25.8341 30H14.1679C12.7872 30 11.668 28.8807 11.668 27.5001V26.6667Z" fill="#006FFD"/>
</mask>
<g mask="url(#mask0_3844_12216)">
<rect x="10" y="9.99805" width="19.9992" height="19.9995" fill="#F8F9FE"/>
</g>
</svg>
