<svg width="20" height="20" viewBox="0 0 20 20" fill="none" xmlns="http://www.w3.org/2000/svg">
<mask id="mask0_3575_12300" style="mask-type:alpha" maskUnits="userSpaceOnUse" x="0" y="0" width="20" height="20">
<path d="M11.2513 1.66406C11.2513 0.973707 10.6917 0.414062 10.0013 0.414062C9.31095 0.414062 8.7513 0.973707 8.7513 1.66406V8.7474H1.66797C0.977613 8.7474 0.417969 9.30704 0.417969 9.9974C0.417969 10.6878 0.977613 11.2474 1.66797 11.2474H8.7513V18.3307C8.7513 19.0211 9.31095 19.5807 10.0013 19.5807C10.6917 19.5807 11.2513 19.0211 11.2513 18.3307V11.2474H18.3346C19.025 11.2474 19.5846 10.6878 19.5846 9.9974C19.5846 9.30704 19.025 8.7474 18.3346 8.7474H11.2513V1.66406Z" fill="#006FFD"/>
</mask>
<g mask="url(#mask0_3575_12300)">
<rect width="20" height="20" fill="#E8E9F1"/>
</g>
</svg>
