<svg width="31" height="28" viewBox="0 0 31 28" fill="none" xmlns="http://www.w3.org/2000/svg">
<mask id="mask0_1620_70564" style="mask-type:alpha" maskUnits="userSpaceOnUse" x="1" y="0" width="30" height="28">
<path d="M17.5703 2.32812C17.5703 1.36163 16.7308 0.578125 15.6953 0.578125C14.6598 0.578125 13.8203 1.36163 13.8203 2.32812V12.2448H3.19531C2.15978 12.2448 1.32031 13.0283 1.32031 13.9948C1.32031 14.9613 2.15978 15.7448 3.19531 15.7448H13.8203V25.6615C13.8203 26.628 14.6598 27.4115 15.6953 27.4115C16.7308 27.4115 17.5703 26.628 17.5703 25.6615V15.7448H28.1953C29.2308 15.7448 30.0703 14.9613 30.0703 13.9948C30.0703 13.0283 29.2308 12.2448 28.1953 12.2448H17.5703V2.32812Z" fill="#006FFD"/>
</mask>
<g mask="url(#mask0_1620_70564)">
<rect x="0.695312" width="30" height="28" fill="white"/>
</g>
</svg>
