<svg width="20" height="20" viewBox="0 0 20 20" fill="none" xmlns="http://www.w3.org/2000/svg">
<g clip-path="url(#clip0_3713_18671)">
<mask id="mask0_3713_18671" style="mask-type:alpha" maskUnits="userSpaceOnUse" x="1" y="0" width="18" height="20">
<path d="M13.9774 0.0100086C13.9349 -0.0374906 12.4037 0.0287584 11.0712 1.47499C9.73866 2.91996 9.94366 4.57744 9.97366 4.61994C10.0037 4.66243 11.8737 4.72868 13.0674 3.04746C14.2612 1.36624 14.0199 0.0587578 13.9774 0.0100086ZM18.1199 14.676C18.0599 14.556 15.2137 13.1335 15.4787 10.3986C15.7437 7.66239 17.5724 6.9124 17.6012 6.83115C17.6299 6.7499 16.8549 5.84367 16.0337 5.38492C15.4307 5.06149 14.7633 4.87619 14.0799 4.84243C13.9449 4.83868 13.4762 4.72368 12.5124 4.98743C11.8774 5.16118 10.4462 5.72367 10.0524 5.74617C9.65741 5.76867 8.48241 5.09368 7.21866 4.91493C6.40991 4.75868 5.55241 5.07868 4.93866 5.32492C4.32616 5.56992 3.16116 6.26741 2.34616 8.12113C1.53116 9.9736 1.95741 12.9086 2.26241 13.821C2.56741 14.7323 3.04366 16.226 3.85366 17.316C4.57366 18.546 5.52866 19.3997 5.92741 19.6897C6.32616 19.9797 7.45116 20.1722 8.23116 19.7734C8.85866 19.3884 9.99116 19.1672 10.4387 19.1835C10.8849 19.1997 11.7649 19.3759 12.6662 19.8572C13.3799 20.1034 14.0549 20.0009 14.7312 19.7259C15.4074 19.4497 16.3862 18.4022 17.5287 16.2785C17.9624 15.291 18.1599 14.7573 18.1199 14.676Z" fill="#006FFD"/>
<path d="M13.9774 0.0100086C13.9349 -0.0374906 12.4037 0.0287584 11.0712 1.47499C9.73866 2.91996 9.94366 4.57744 9.97366 4.61994C10.0037 4.66243 11.8737 4.72868 13.0674 3.04746C14.2612 1.36624 14.0199 0.0587578 13.9774 0.0100086ZM18.1199 14.676C18.0599 14.556 15.2137 13.1335 15.4787 10.3986C15.7437 7.66239 17.5724 6.9124 17.6012 6.83115C17.6299 6.7499 16.8549 5.84367 16.0337 5.38492C15.4307 5.06149 14.7633 4.87619 14.0799 4.84243C13.9449 4.83868 13.4762 4.72368 12.5124 4.98743C11.8774 5.16118 10.4462 5.72367 10.0524 5.74617C9.65741 5.76867 8.48241 5.09368 7.21866 4.91493C6.40991 4.75868 5.55241 5.07868 4.93866 5.32492C4.32616 5.56992 3.16116 6.26741 2.34616 8.12113C1.53116 9.9736 1.95741 12.9086 2.26241 13.821C2.56741 14.7323 3.04366 16.226 3.85366 17.316C4.57366 18.546 5.52866 19.3997 5.92741 19.6897C6.32616 19.9797 7.45116 20.1722 8.23116 19.7734C8.85866 19.3884 9.99116 19.1672 10.4387 19.1835C10.8849 19.1997 11.7649 19.3759 12.6662 19.8572C13.3799 20.1034 14.0549 20.0009 14.7312 19.7259C15.4074 19.4497 16.3862 18.4022 17.5287 16.2785C17.9624 15.291 18.1599 14.7573 18.1199 14.676Z" fill="#006FFD"/>
</mask>
<g mask="url(#mask0_3713_18671)">
<rect width="20" height="19.9997" fill="#F8F9FE"/>
</g>
</g>
<defs>
<clipPath id="clip0_3713_18671">
<rect width="20" height="19.9997" fill="white"/>
</clipPath>
</defs>
</svg>
