<svg width="12" height="12" viewBox="0 0 12 12" fill="none" xmlns="http://www.w3.org/2000/svg">
<mask id="mask0_3575_7978" style="mask-type:alpha" maskUnits="userSpaceOnUse" x="0" y="0" width="12" height="12">
<path d="M6 4.42962C4.98375 4.42962 4.125 5.28836 4.125 6.30459C4.125 7.32083 4.98375 8.17956 6 8.17956C7.01625 8.17956 7.875 7.32083 7.875 6.30459C7.875 5.28836 7.01625 4.42962 6 4.42962Z" fill="#006FFD"/>
<path d="M10.8 2.10466H9.2484L7.6242 0.480485C7.56858 0.424661 7.50246 0.380389 7.42966 0.350218C7.35686 0.320047 7.27881 0.304574 7.2 0.304688H4.8C4.72119 0.304574 4.64314 0.320047 4.57034 0.350218C4.49754 0.380389 4.43142 0.424661 4.3758 0.480485L2.7516 2.10466H1.2C0.5382 2.10466 0 2.64285 0 3.30464V9.90454C0 10.5663 0.5382 11.1045 1.2 11.1045H10.8C11.4618 11.1045 12 10.5663 12 9.90454V3.30464C12 2.64285 11.4618 2.10466 10.8 2.10466ZM6 9.30455C4.374 9.30455 3 7.93057 3 6.30459C3 4.67862 4.374 3.30464 6 3.30464C7.626 3.30464 9 4.67862 9 6.30459C9 7.93057 7.626 9.30455 6 9.30455Z" fill="#006FFD"/>
</mask>
<g mask="url(#mask0_3575_7978)">
<rect width="12" height="11.9998" fill="#8F9098"/>
</g>
</svg>
