<svg width="165" height="27" viewBox="0 0 165 27" fill="none" xmlns="http://www.w3.org/2000/svg">
<rect x="0.5" y="0.5" width="164" height="26" rx="13" fill="#3B0000"/>
<rect x="0.5" y="0.5" width="164" height="26" rx="13" stroke="url(#paint0_linear_2529_78405)"/>
<g clip-path="url(#clip0_2529_78405)">
<path d="M22.7121 13.5C22.7121 18.5877 18.5877 22.7121 13.5 22.7121C8.41229 22.7121 4.28788 18.5877 4.28788 13.5C4.28788 8.41229 8.41229 4.28788 13.5 4.28788C18.5877 4.28788 22.7121 8.41229 22.7121 13.5Z" fill="url(#paint1_linear_2529_78405)" stroke="#FFE392" strokeWidth="0.575758"/>
<path fill-rule="evenodd" clip-rule="evenodd" d="M18.7446 13.1117C18.6252 13.1384 18.5433 13.1538 18.4632 13.1752C17.9614 13.3064 17.4562 13.4103 16.9337 13.3907C16.2354 13.364 15.6357 13.0832 15.1067 12.6308C14.8929 12.4473 14.6946 12.2448 14.4904 12.0501C14.3912 11.9562 14.3675 11.8494 14.4429 11.7271L14.6358 11.4142L14.8965 11.7003C15.2723 12.1172 15.6743 12.4966 16.2045 12.699C16.7253 12.8973 17.2555 12.8682 17.7881 12.7786C18.5409 12.6527 19.2362 12.3517 19.9178 12.0138C19.9404 12.0026 19.9653 11.9954 20.0312 11.9693C19.9861 12.0542 19.9612 12.1047 19.9327 12.1522C18.9376 13.8254 17.9424 15.4986 16.9461 17.1712C16.8238 17.3766 16.7781 17.392 16.5655 17.2881C15.1607 16.5982 13.6894 16.467 12.1706 16.7282C11.9331 16.7692 11.8909 16.749 11.7775 16.5056C11.6534 16.2396 11.6546 16.2467 11.9355 16.1927C12.718 16.0398 13.5193 16.0072 14.3117 16.0959C15.0533 16.179 15.7925 16.2883 16.4729 16.6374C16.5703 16.6878 16.6219 16.6457 16.6706 16.5649C17.1023 15.8441 17.5339 15.1233 17.968 14.4037C18.2001 14.0183 18.437 13.636 18.6704 13.2518C18.6906 13.2186 18.7066 13.1835 18.7446 13.1117ZM8.26253 13.1835C8.36228 13.3516 8.46203 13.5196 8.56297 13.687L10.5603 17.0002C10.6553 17.1581 10.6553 17.1628 10.4909 17.2382C10.1364 17.4015 10.1803 17.4437 9.96362 17.0809C9.19769 15.7954 8.43294 14.5088 7.66819 13.2227L7.04831 12.1807C7.01862 12.1314 6.99487 12.078 6.96875 12.0263L6.99191 11.9954C7.07919 12.034 7.16706 12.0702 7.25316 12.1106C7.77744 12.3558 8.30766 12.5838 8.86934 12.7228C9.59016 12.9021 10.3021 12.9229 10.989 12.5803C11.4165 12.3671 11.7686 12.053 12.0857 11.695C12.5933 11.1202 13.0054 10.4754 13.3789 9.80331L13.4697 9.64062C13.519 9.71425 13.5505 9.77006 13.5903 9.81875C13.8093 10.0871 13.7577 10.3258 13.573 10.6037C13.161 11.2236 12.7459 11.8375 12.1973 12.341C11.7069 12.7911 11.1571 13.1307 10.5111 13.2857C10.004 13.4074 9.49456 13.383 8.98572 13.2886C8.75297 13.2453 8.52141 13.1966 8.28925 13.1503L8.26253 13.1835Z" fill="#0F1529"/>
</g>
<path d="M33.596 17.644C32.764 17.644 32.044 17.464 31.436 17.104C30.836 16.736 30.372 16.228 30.044 15.58C29.716 14.924 29.552 14.168 29.552 13.312C29.552 12.448 29.716 11.692 30.044 11.044C30.372 10.388 30.836 9.876 31.436 9.508C32.044 9.14 32.764 8.956 33.596 8.956C34.58 8.956 35.384 9.196 36.008 9.676C36.632 10.156 37.028 10.828 37.196 11.692H35.78C35.668 11.204 35.428 10.816 35.06 10.528C34.692 10.24 34.2 10.096 33.584 10.096C32.744 10.096 32.08 10.384 31.592 10.96C31.104 11.528 30.86 12.312 30.86 13.312C30.86 14.304 31.104 15.084 31.592 15.652C32.08 16.22 32.744 16.504 33.584 16.504C34.2 16.504 34.692 16.368 35.06 16.096C35.428 15.824 35.668 15.452 35.78 14.98H37.196C37.028 15.812 36.632 16.464 36.008 16.936C35.384 17.408 34.58 17.644 33.596 17.644ZM41.3302 17.644C40.7622 17.644 40.2502 17.516 39.7942 17.26C39.3462 16.996 38.9902 16.632 38.7262 16.168C38.4622 15.696 38.3302 15.148 38.3302 14.524C38.3302 13.9 38.4622 13.356 38.7262 12.892C38.9982 12.42 39.3622 12.056 39.8182 11.8C40.2742 11.536 40.7822 11.404 41.3422 11.404C41.9102 11.404 42.4182 11.536 42.8662 11.8C43.3222 12.056 43.6822 12.42 43.9462 12.892C44.2182 13.356 44.3542 13.9 44.3542 14.524C44.3542 15.148 44.2182 15.696 43.9462 16.168C43.6822 16.632 43.3222 16.996 42.8662 17.26C42.4102 17.516 41.8982 17.644 41.3302 17.644ZM41.3302 16.552C41.6342 16.552 41.9142 16.476 42.1702 16.324C42.4342 16.172 42.6462 15.948 42.8062 15.652C42.9662 15.348 43.0462 14.972 43.0462 14.524C43.0462 14.076 42.9662 13.704 42.8062 13.408C42.6542 13.104 42.4462 12.876 42.1822 12.724C41.9262 12.572 41.6462 12.496 41.3422 12.496C41.0382 12.496 40.7542 12.572 40.4902 12.724C40.2342 12.876 40.0262 13.104 39.8662 13.408C39.7062 13.704 39.6262 14.076 39.6262 14.524C39.6262 14.972 39.7062 15.348 39.8662 15.652C40.0262 15.948 40.2342 16.172 40.4902 16.324C40.7462 16.476 41.0262 16.552 41.3302 16.552ZM45.6098 14.548V13.48H50.4938V14.548H45.6098ZM52.0122 17.5V9.1H57.2802V10.132H53.2842V12.784H56.5962V13.804H53.2842V17.5H52.0122ZM60.9708 17.644C60.4028 17.644 59.8908 17.516 59.4348 17.26C58.9868 16.996 58.6308 16.632 58.3668 16.168C58.1028 15.696 57.9708 15.148 57.9708 14.524C57.9708 13.9 58.1028 13.356 58.3668 12.892C58.6388 12.42 59.0028 12.056 59.4588 11.8C59.9148 11.536 60.4228 11.404 60.9828 11.404C61.5508 11.404 62.0588 11.536 62.5068 11.8C62.9628 12.056 63.3228 12.42 63.5868 12.892C63.8588 13.356 63.9948 13.9 63.9948 14.524C63.9948 15.148 63.8588 15.696 63.5868 16.168C63.3228 16.632 62.9628 16.996 62.5068 17.26C62.0508 17.516 61.5388 17.644 60.9708 17.644ZM60.9708 16.552C61.2748 16.552 61.5548 16.476 61.8108 16.324C62.0748 16.172 62.2868 15.948 62.4468 15.652C62.6068 15.348 62.6868 14.972 62.6868 14.524C62.6868 14.076 62.6068 13.704 62.4468 13.408C62.2948 13.104 62.0868 12.876 61.8228 12.724C61.5668 12.572 61.2868 12.496 60.9828 12.496C60.6788 12.496 60.3948 12.572 60.1308 12.724C59.8748 12.876 59.6668 13.104 59.5068 13.408C59.3468 13.704 59.2668 14.076 59.2668 14.524C59.2668 14.972 59.3468 15.348 59.5068 15.652C59.6668 15.948 59.8748 16.172 60.1308 16.324C60.3868 16.476 60.6668 16.552 60.9708 16.552ZM67.5664 17.644C66.8464 17.644 66.2784 17.42 65.8624 16.972C65.4544 16.524 65.2504 15.856 65.2504 14.968V11.548H66.5224V14.836C66.5224 15.988 66.9944 16.564 67.9384 16.564C68.4104 16.564 68.7984 16.396 69.1024 16.06C69.4064 15.724 69.5584 15.244 69.5584 14.62V11.548H70.8304V17.5H69.7024L69.6064 16.456C69.4224 16.824 69.1504 17.116 68.7904 17.332C68.4384 17.54 68.0304 17.644 67.5664 17.644ZM72.4485 17.5V11.548H73.5765L73.6725 12.592C73.8565 12.224 74.1245 11.936 74.4765 11.728C74.8365 11.512 75.2485 11.404 75.7125 11.404C76.4325 11.404 76.9965 11.628 77.4045 12.076C77.8205 12.524 78.0285 13.192 78.0285 14.08V17.5H76.7685V14.212C76.7685 13.06 76.2965 12.484 75.3525 12.484C74.8805 12.484 74.4885 12.652 74.1765 12.988C73.8725 13.324 73.7205 13.804 73.7205 14.428V17.5H72.4485ZM82.2387 17.644C81.6627 17.644 81.1547 17.508 80.7147 17.236C80.2747 16.964 79.9307 16.592 79.6827 16.12C79.4347 15.648 79.3107 15.112 79.3107 14.512C79.3107 13.912 79.4347 13.38 79.6827 12.916C79.9307 12.444 80.2747 12.076 80.7147 11.812C81.1627 11.54 81.6747 11.404 82.2507 11.404C82.7227 11.404 83.1347 11.496 83.4867 11.68C83.8467 11.864 84.1267 12.124 84.3267 12.46V8.86H85.5987V17.5H84.4587L84.3267 16.576C84.1347 16.856 83.8707 17.104 83.5347 17.32C83.1987 17.536 82.7667 17.644 82.2387 17.644ZM82.4667 16.54C83.0107 16.54 83.4547 16.352 83.7987 15.976C84.1507 15.6 84.3267 15.116 84.3267 14.524C84.3267 13.924 84.1507 13.44 83.7987 13.072C83.4547 12.696 83.0107 12.508 82.4667 12.508C81.9227 12.508 81.4747 12.696 81.1227 13.072C80.7707 13.44 80.5947 13.924 80.5947 14.524C80.5947 14.916 80.6747 15.264 80.8347 15.568C80.9947 15.872 81.2147 16.112 81.4947 16.288C81.7827 16.456 82.1067 16.54 82.4667 16.54ZM89.9864 17.644C89.4024 17.644 88.8824 17.516 88.4264 17.26C87.9784 16.996 87.6264 16.632 87.3704 16.168C87.1144 15.704 86.9864 15.164 86.9864 14.548C86.9864 13.924 87.1104 13.376 87.3584 12.904C87.6144 12.432 87.9664 12.064 88.4144 11.8C88.8704 11.536 89.3984 11.404 89.9984 11.404C90.5824 11.404 91.0904 11.536 91.5224 11.8C91.9544 12.056 92.2904 12.4 92.5304 12.832C92.7704 13.264 92.8904 13.74 92.8904 14.26C92.8904 14.34 92.8864 14.428 92.8784 14.524C92.8784 14.612 92.8744 14.712 92.8664 14.824H88.2344C88.2744 15.4 88.4624 15.84 88.7984 16.144C89.1424 16.44 89.5384 16.588 89.9864 16.588C90.3464 16.588 90.6464 16.508 90.8864 16.348C91.1344 16.18 91.3184 15.956 91.4384 15.676H92.7104C92.5504 16.236 92.2304 16.704 91.7504 17.08C91.2784 17.456 90.6904 17.644 89.9864 17.644ZM89.9864 12.448C89.5624 12.448 89.1864 12.576 88.8584 12.832C88.5304 13.08 88.3304 13.456 88.2584 13.96H91.6184C91.5944 13.496 91.4304 13.128 91.1264 12.856C90.8224 12.584 90.4424 12.448 89.9864 12.448ZM94.2103 17.5V11.548H95.3503L95.4583 12.676C95.6663 12.284 95.9543 11.976 96.3223 11.752C96.6983 11.52 97.1503 11.404 97.6783 11.404V12.736H97.3303C96.9783 12.736 96.6623 12.796 96.3823 12.916C96.1103 13.028 95.8903 13.224 95.7223 13.504C95.5623 13.776 95.4823 14.156 95.4823 14.644V17.5H94.2103ZM104.576 17.644C104.008 17.644 103.496 17.516 103.04 17.26C102.592 16.996 102.236 16.632 101.972 16.168C101.708 15.696 101.576 15.148 101.576 14.524C101.576 13.9 101.708 13.356 101.972 12.892C102.244 12.42 102.608 12.056 103.064 11.8C103.52 11.536 104.028 11.404 104.588 11.404C105.156 11.404 105.664 11.536 106.112 11.8C106.568 12.056 106.928 12.42 107.192 12.892C107.464 13.356 107.6 13.9 107.6 14.524C107.6 15.148 107.464 15.696 107.192 16.168C106.928 16.632 106.568 16.996 106.112 17.26C105.656 17.516 105.144 17.644 104.576 17.644ZM104.576 16.552C104.88 16.552 105.16 16.476 105.416 16.324C105.68 16.172 105.892 15.948 106.052 15.652C106.212 15.348 106.292 14.972 106.292 14.524C106.292 14.076 106.212 13.704 106.052 13.408C105.9 13.104 105.692 12.876 105.428 12.724C105.172 12.572 104.892 12.496 104.588 12.496C104.284 12.496 104 12.572 103.736 12.724C103.48 12.876 103.272 13.104 103.112 13.408C102.952 13.704 102.872 14.076 102.872 14.524C102.872 14.972 102.952 15.348 103.112 15.652C103.272 15.948 103.48 16.172 103.736 16.324C103.992 16.476 104.272 16.552 104.576 16.552ZM109.276 17.5V12.616H108.424V11.548H109.276V10.684C109.276 10.036 109.436 9.572 109.756 9.292C110.084 9.004 110.544 8.86 111.136 8.86H111.76V9.94H111.328C111.048 9.94 110.848 10 110.728 10.12C110.608 10.232 110.548 10.424 110.548 10.696V11.548H111.916V12.616H110.548V17.5H109.276ZM118.968 17.644C118.352 17.644 117.812 17.536 117.348 17.32C116.884 17.104 116.52 16.796 116.256 16.396C116 15.996 115.868 15.52 115.86 14.968H117.204C117.212 15.416 117.368 15.796 117.672 16.108C117.976 16.42 118.404 16.576 118.956 16.576C119.444 16.576 119.824 16.46 120.096 16.228C120.376 15.988 120.516 15.684 120.516 15.316C120.516 15.02 120.448 14.78 120.312 14.596C120.184 14.412 120.004 14.26 119.772 14.14C119.548 14.02 119.288 13.912 118.992 13.816C118.696 13.72 118.384 13.616 118.056 13.504C117.408 13.288 116.92 13.008 116.592 12.664C116.272 12.32 116.112 11.868 116.112 11.308C116.104 10.836 116.212 10.424 116.436 10.072C116.668 9.72 116.988 9.448 117.396 9.256C117.812 9.056 118.296 8.956 118.848 8.956C119.392 8.956 119.868 9.056 120.276 9.256C120.692 9.456 121.016 9.736 121.248 10.096C121.48 10.448 121.6 10.86 121.608 11.332H120.264C120.264 11.116 120.208 10.912 120.096 10.72C119.984 10.52 119.82 10.356 119.604 10.228C119.388 10.1 119.124 10.036 118.812 10.036C118.412 10.028 118.08 10.128 117.816 10.336C117.56 10.544 117.432 10.832 117.432 11.2C117.432 11.528 117.528 11.78 117.72 11.956C117.912 12.132 118.176 12.28 118.512 12.4C118.848 12.512 119.232 12.644 119.664 12.796C120.08 12.932 120.452 13.096 120.78 13.288C121.108 13.48 121.368 13.732 121.56 14.044C121.76 14.356 121.86 14.752 121.86 15.232C121.86 15.656 121.752 16.052 121.536 16.42C121.32 16.78 120.996 17.076 120.564 17.308C120.132 17.532 119.6 17.644 118.968 17.644ZM125.986 17.644C125.402 17.644 124.882 17.516 124.426 17.26C123.978 16.996 123.626 16.632 123.37 16.168C123.114 15.704 122.986 15.164 122.986 14.548C122.986 13.924 123.11 13.376 123.358 12.904C123.614 12.432 123.966 12.064 124.414 11.8C124.87 11.536 125.398 11.404 125.998 11.404C126.582 11.404 127.09 11.536 127.522 11.8C127.954 12.056 128.29 12.4 128.53 12.832C128.77 13.264 128.89 13.74 128.89 14.26C128.89 14.34 128.886 14.428 128.878 14.524C128.878 14.612 128.874 14.712 128.866 14.824H124.234C124.274 15.4 124.462 15.84 124.798 16.144C125.142 16.44 125.538 16.588 125.986 16.588C126.346 16.588 126.646 16.508 126.886 16.348C127.134 16.18 127.318 15.956 127.438 15.676H128.71C128.55 16.236 128.23 16.704 127.75 17.08C127.278 17.456 126.69 17.644 125.986 17.644ZM125.986 12.448C125.562 12.448 125.186 12.576 124.858 12.832C124.53 13.08 124.33 13.456 124.258 13.96H127.618C127.594 13.496 127.43 13.128 127.126 12.856C126.822 12.584 126.442 12.448 125.986 12.448ZM132.994 17.644C132.41 17.644 131.89 17.516 131.434 17.26C130.986 16.996 130.634 16.632 130.378 16.168C130.122 15.704 129.994 15.164 129.994 14.548C129.994 13.924 130.118 13.376 130.366 12.904C130.622 12.432 130.974 12.064 131.422 11.8C131.878 11.536 132.406 11.404 133.006 11.404C133.59 11.404 134.098 11.536 134.53 11.8C134.962 12.056 135.298 12.4 135.538 12.832C135.778 13.264 135.898 13.74 135.898 14.26C135.898 14.34 135.894 14.428 135.886 14.524C135.886 14.612 135.882 14.712 135.874 14.824H131.242C131.282 15.4 131.47 15.84 131.806 16.144C132.15 16.44 132.546 16.588 132.994 16.588C133.354 16.588 133.654 16.508 133.894 16.348C134.142 16.18 134.326 15.956 134.446 15.676H135.718C135.558 16.236 135.238 16.704 134.758 17.08C134.286 17.456 133.698 17.644 132.994 17.644ZM132.994 12.448C132.57 12.448 132.194 12.576 131.866 12.832C131.538 13.08 131.338 13.456 131.266 13.96H134.626C134.602 13.496 134.438 13.128 134.134 12.856C133.83 12.584 133.45 12.448 132.994 12.448ZM139.402 17.5V14.404L136.618 9.1H138.058L140.038 13.156L142.006 9.1H143.434L140.674 14.404V17.5H139.402ZM146.166 17.644C145.598 17.644 145.086 17.516 144.63 17.26C144.182 16.996 143.826 16.632 143.562 16.168C143.298 15.696 143.166 15.148 143.166 14.524C143.166 13.9 143.298 13.356 143.562 12.892C143.834 12.42 144.198 12.056 144.654 11.8C145.11 11.536 145.618 11.404 146.178 11.404C146.746 11.404 147.254 11.536 147.702 11.8C148.158 12.056 148.518 12.42 148.782 12.892C149.054 13.356 149.19 13.9 149.19 14.524C149.19 15.148 149.054 15.696 148.782 16.168C148.518 16.632 148.158 16.996 147.702 17.26C147.246 17.516 146.734 17.644 146.166 17.644ZM146.166 16.552C146.47 16.552 146.75 16.476 147.006 16.324C147.27 16.172 147.482 15.948 147.642 15.652C147.802 15.348 147.882 14.972 147.882 14.524C147.882 14.076 147.802 13.704 147.642 13.408C147.49 13.104 147.282 12.876 147.018 12.724C146.762 12.572 146.482 12.496 146.178 12.496C145.874 12.496 145.59 12.572 145.326 12.724C145.07 12.876 144.862 13.104 144.702 13.408C144.542 13.704 144.462 14.076 144.462 14.524C144.462 14.972 144.542 15.348 144.702 15.652C144.862 15.948 145.07 16.172 145.326 16.324C145.582 16.476 145.862 16.552 146.166 16.552ZM152.762 17.644C152.042 17.644 151.474 17.42 151.058 16.972C150.65 16.524 150.446 15.856 150.446 14.968V11.548H151.718V14.836C151.718 15.988 152.19 16.564 153.134 16.564C153.606 16.564 153.994 16.396 154.298 16.06C154.602 15.724 154.754 15.244 154.754 14.62V11.548H156.026V17.5H154.898L154.802 16.456C154.618 16.824 154.346 17.116 153.986 17.332C153.634 17.54 153.226 17.644 152.762 17.644Z" fill="#EAF2FF"/>
<defs>
<linearGradient id="paint0_linear_2529_78405" x1="11.7213" y1="3.67105" x2="130.35" y2="68.6974" gradientUnits="userSpaceOnUse">
<stop stop-color="#FFC93E"/>
<stop offset="0.321944" stop-color="#FFFEFB"/>
<stop offset="1" stop-color="#F1CE6D"/>
</linearGradient>
<linearGradient id="paint1_linear_2529_78405" x1="5.97917" y1="4" x2="15.5451" y2="23" gradientUnits="userSpaceOnUse">
<stop offset="0.187475" stop-color="#FFBE16"/>
<stop offset="0.505208" stop-color="white"/>
<stop offset="1" stop-color="#EBBC36"/>
</linearGradient>
<clipPath id="clip0_2529_78405">
<rect width="19" height="19" fill="white" transform="translate(4 4)"/>
</clipPath>
</defs>
</svg>
