<svg width="350" height="53" viewBox="0 0 350 53" fill="none" xmlns="http://www.w3.org/2000/svg">
<rect x="0.5" y="0.5" width="349" height="52" rx="26" fill="#3B0000"/>
<rect x="0.5" y="0.5" width="349" height="52" rx="26" stroke="url(#paint0_linear_2503_78312)"/>
<g clip-path="url(#clip0_2503_78312)">
<path d="M42.5 26.5C42.5 35.3366 35.3366 42.5 26.5 42.5C17.6634 42.5 10.5 35.3366 10.5 26.5C10.5 17.6634 17.6634 10.5 26.5 10.5C35.3366 10.5 42.5 17.6634 42.5 26.5Z" fill="url(#paint1_linear_2503_78312)" stroke="#FFE392"/>
<path fill-rule="evenodd" clip-rule="evenodd" d="M35.609 25.8256C35.4018 25.872 35.2594 25.8988 35.1202 25.9359C34.2488 26.1638 33.3712 26.3443 32.4637 26.3103C31.251 26.2638 30.2094 25.7761 29.2906 24.9903C28.9193 24.6716 28.5749 24.3199 28.2201 23.9817C28.0479 23.8187 28.0067 23.6331 28.1376 23.4207L28.4728 22.8772L28.9255 23.3743C29.5783 24.0982 30.2764 24.7572 31.1973 25.1088C32.1017 25.4533 33.0227 25.4028 33.9477 25.247C35.2553 25.0284 36.4629 24.5056 37.6468 23.9188C37.686 23.8992 37.7293 23.8868 37.8438 23.8414C37.7654 23.9889 37.7221 24.0766 37.6726 24.1591C35.9442 27.0651 34.2158 29.9712 32.4854 32.8762C32.2729 33.233 32.1935 33.2598 31.8243 33.0794C29.3844 31.8811 26.829 31.6532 24.191 32.1069C23.7785 32.1781 23.7053 32.143 23.5083 31.7202C23.2928 31.2582 23.2949 31.2706 23.7827 31.1767C25.1418 30.9112 26.5335 30.8545 27.9097 31.0086C29.1978 31.153 30.4817 31.3428 31.6635 31.9491C31.8326 32.0368 31.9223 31.9636 32.0069 31.8233C32.7566 30.5714 33.5063 29.3194 34.2602 28.0696C34.6634 27.4003 35.0748 26.7362 35.4801 26.0689C35.5152 26.0112 35.543 25.9503 35.609 25.8256ZM17.4033 25.9503C17.5766 26.2422 17.7498 26.534 17.9252 26.8248L21.3943 32.5792C21.5593 32.8535 21.5593 32.8618 21.2736 32.9928C20.658 33.2763 20.7343 33.3496 20.3579 32.7195C19.0276 30.4868 17.6993 28.2521 16.3711 26.0184L15.2944 24.2086C15.2429 24.123 15.2016 24.0302 15.1562 23.9404L15.1965 23.8868C15.3481 23.9538 15.5007 24.0168 15.6502 24.0869C16.5608 24.5128 17.4817 24.9088 18.4573 25.1501C19.7092 25.4615 20.9457 25.4976 22.1388 24.9026C22.8813 24.5324 23.4929 23.9868 24.0436 23.365C24.9253 22.3668 25.641 21.2468 26.2896 20.0794L26.4474 19.7969C26.533 19.9248 26.5877 20.0217 26.6568 20.1063C27.0373 20.5724 26.9476 20.9869 26.6268 21.4696C25.9112 22.5462 25.1903 23.6125 24.2374 24.487C23.3856 25.2687 22.4307 25.8586 21.3087 26.1277C20.428 26.3391 19.5432 26.2968 18.6594 26.1329C18.2552 26.0576 17.853 25.973 17.4497 25.8926L17.4033 25.9503Z" fill="#0F1529"/>
</g>
<path d="M58.4261 24.5H57.1932C57.1203 24.1454 56.9927 23.8338 56.8104 23.5653C56.6314 23.2969 56.4126 23.0715 56.1541 22.8892C55.8989 22.7036 55.6155 22.5644 55.304 22.4716C54.9924 22.3788 54.6676 22.3324 54.3295 22.3324C53.7131 22.3324 53.1546 22.4882 52.6541 22.7997C52.157 23.1113 51.7609 23.5703 51.4659 24.1768C51.1742 24.7834 51.0284 25.5275 51.0284 26.4091C51.0284 27.2907 51.1742 28.0348 51.4659 28.6413C51.7609 29.2479 52.157 29.7069 52.6541 30.0185C53.1546 30.33 53.7131 30.4858 54.3295 30.4858C54.6676 30.4858 54.9924 30.4394 55.304 30.3466C55.6155 30.2538 55.8989 30.1162 56.1541 29.9339C56.4126 29.7483 56.6314 29.5213 56.8104 29.2528C56.9927 28.9811 57.1203 28.6695 57.1932 28.3182H58.4261C58.3333 28.8385 58.1643 29.3042 57.919 29.7152C57.6738 30.1262 57.3688 30.4759 57.0043 30.7642C56.6397 31.0492 56.2304 31.2663 55.7763 31.4155C55.3255 31.5646 54.8433 31.6392 54.3295 31.6392C53.4612 31.6392 52.6889 31.4271 52.0128 31.0028C51.3366 30.5786 50.8047 29.9754 50.4169 29.1932C50.0291 28.411 49.8352 27.483 49.8352 26.4091C49.8352 25.3352 50.0291 24.4072 50.4169 23.625C50.8047 22.8428 51.3366 22.2396 52.0128 21.8153C52.6889 21.3911 53.4612 21.179 54.3295 21.179C54.8433 21.179 55.3255 21.2536 55.7763 21.4027C56.2304 21.5518 56.6397 21.7706 57.0043 22.0589C57.3688 22.344 57.6738 22.692 57.919 23.103C58.1643 23.5107 58.3333 23.9763 58.4261 24.5ZM63.3617 31.6591C62.6723 31.6591 62.0674 31.495 61.5471 31.1669C61.03 30.8388 60.6257 30.3797 60.334 29.7898C60.0456 29.1998 59.9015 28.5104 59.9015 27.7216C59.9015 26.9261 60.0456 26.2318 60.334 25.6385C60.6257 25.0452 61.03 24.5845 61.5471 24.2564C62.0674 23.9283 62.6723 23.7642 63.3617 23.7642C64.0511 23.7642 64.6543 23.9283 65.1713 24.2564C65.6917 24.5845 66.0961 25.0452 66.3844 25.6385C66.6761 26.2318 66.8219 26.9261 66.8219 27.7216C66.8219 28.5104 66.6761 29.1998 66.3844 29.7898C66.0961 30.3797 65.6917 30.8388 65.1713 31.1669C64.6543 31.495 64.0511 31.6591 63.3617 31.6591ZM63.3617 30.6051C63.8854 30.6051 64.3162 30.4709 64.6543 30.2024C64.9924 29.9339 65.2426 29.581 65.405 29.1435C65.5674 28.706 65.6486 28.232 65.6486 27.7216C65.6486 27.2112 65.5674 26.7356 65.405 26.2947C65.2426 25.8539 64.9924 25.4976 64.6543 25.2259C64.3162 24.9541 63.8854 24.8182 63.3617 24.8182C62.838 24.8182 62.4071 24.9541 62.0691 25.2259C61.731 25.4976 61.4808 25.8539 61.3184 26.2947C61.156 26.7356 61.0748 27.2112 61.0748 27.7216C61.0748 28.232 61.156 28.706 61.3184 29.1435C61.4808 29.581 61.731 29.9339 62.0691 30.2024C62.4071 30.4709 62.838 30.6051 63.3617 30.6051ZM72.9879 26.5881V27.6818H68.5334V26.5881H72.9879ZM75.2115 31.5V21.3182H81.3166V22.4119H76.4444V25.8523H80.8592V26.946H76.4444V31.5H75.2115ZM85.8109 31.6591C85.1215 31.6591 84.5166 31.495 83.9963 31.1669C83.4792 30.8388 83.0749 30.3797 82.7832 29.7898C82.4949 29.1998 82.3507 28.5104 82.3507 27.7216C82.3507 26.9261 82.4949 26.2318 82.7832 25.6385C83.0749 25.0452 83.4792 24.5845 83.9963 24.2564C84.5166 23.9283 85.1215 23.7642 85.8109 23.7642C86.5003 23.7642 87.1035 23.9283 87.6206 24.2564C88.1409 24.5845 88.5453 25.0452 88.8336 25.6385C89.1253 26.2318 89.2711 26.9261 89.2711 27.7216C89.2711 28.5104 89.1253 29.1998 88.8336 29.7898C88.5453 30.3797 88.1409 30.8388 87.6206 31.1669C87.1035 31.495 86.5003 31.6591 85.8109 31.6591ZM85.8109 30.6051C86.3346 30.6051 86.7654 30.4709 87.1035 30.2024C87.4416 29.9339 87.6918 29.581 87.8542 29.1435C88.0166 28.706 88.0978 28.232 88.0978 27.7216C88.0978 27.2112 88.0166 26.7356 87.8542 26.2947C87.6918 25.8539 87.4416 25.4976 87.1035 25.2259C86.7654 24.9541 86.3346 24.8182 85.8109 24.8182C85.2872 24.8182 84.8564 24.9541 84.5183 25.2259C84.1802 25.4976 83.93 25.8539 83.7676 26.2947C83.6052 26.7356 83.524 27.2112 83.524 27.7216C83.524 28.232 83.6052 28.706 83.7676 29.1435C83.93 29.581 84.1802 29.9339 84.5183 30.2024C84.8564 30.4709 85.2872 30.6051 85.8109 30.6051ZM95.8746 28.3778V23.8636H97.0479V31.5H95.8746V30.2074H95.7951C95.6161 30.5952 95.3377 30.925 94.9599 31.1967C94.582 31.4652 94.1048 31.5994 93.5281 31.5994C93.0508 31.5994 92.6265 31.495 92.2553 31.2862C91.8841 31.0741 91.5924 30.7559 91.3803 30.3317C91.1682 29.9041 91.0621 29.3655 91.0621 28.7159V23.8636H92.2354V28.6364C92.2354 29.1932 92.3912 29.6373 92.7028 29.9688C93.0176 30.3002 93.4187 30.4659 93.9059 30.4659C94.1976 30.4659 94.4942 30.3913 94.7958 30.2422C95.1007 30.093 95.3559 29.8643 95.5614 29.5561C95.7702 29.2479 95.8746 28.8551 95.8746 28.3778ZM100.37 26.9062V31.5H99.1969V23.8636H100.33V25.0568H100.43C100.609 24.669 100.881 24.3575 101.245 24.1222C101.61 23.8835 102.08 23.7642 102.657 23.7642C103.174 23.7642 103.627 23.8703 104.014 24.0824C104.402 24.2912 104.704 24.6094 104.919 25.0369C105.135 25.4612 105.242 25.9981 105.242 26.6477V31.5H104.069V26.7273C104.069 26.1274 103.913 25.66 103.602 25.3253C103.29 24.9872 102.863 24.8182 102.319 24.8182C101.945 24.8182 101.61 24.8994 101.315 25.0618C101.023 25.2242 100.793 25.4612 100.624 25.7727C100.455 26.0843 100.37 26.4621 100.37 26.9062ZM110.27 31.6591C109.634 31.6591 109.072 31.4983 108.585 31.1768C108.097 30.852 107.716 30.3946 107.441 29.8047C107.166 29.2114 107.028 28.5104 107.028 27.7017C107.028 26.8996 107.166 26.2036 107.441 25.6136C107.716 25.0237 108.099 24.5679 108.589 24.2464C109.08 23.925 109.647 23.7642 110.29 23.7642C110.787 23.7642 111.18 23.8471 111.468 24.0128C111.76 24.1752 111.982 24.3608 112.134 24.5696C112.29 24.7751 112.411 24.9441 112.497 25.0767H112.597V21.3182H113.77V31.5H112.636V30.3267H112.497C112.411 30.4659 112.288 30.6416 112.129 30.8537C111.97 31.0625 111.743 31.2498 111.448 31.4155C111.153 31.5779 110.76 31.6591 110.27 31.6591ZM110.429 30.6051C110.9 30.6051 111.297 30.4825 111.622 30.2372C111.947 29.9886 112.194 29.6456 112.363 29.2081C112.532 28.7673 112.616 28.2585 112.616 27.6818C112.616 27.1117 112.534 26.6129 112.368 26.1854C112.202 25.7545 111.957 25.4197 111.632 25.1811C111.307 24.9392 110.906 24.8182 110.429 24.8182C109.932 24.8182 109.518 24.9458 109.186 25.201C108.858 25.4529 108.611 25.7959 108.445 26.2301C108.283 26.661 108.202 27.1449 108.202 27.6818C108.202 28.2254 108.285 28.7192 108.45 29.1634C108.619 29.6042 108.868 29.9555 109.196 30.2173C109.527 30.4759 109.938 30.6051 110.429 30.6051ZM119.283 31.6591C118.548 31.6591 117.913 31.4967 117.379 31.1719C116.849 30.8438 116.44 30.3864 116.151 29.7997C115.866 29.2098 115.724 28.5237 115.724 27.7415C115.724 26.9593 115.866 26.2699 116.151 25.6733C116.44 25.0734 116.841 24.6061 117.354 24.2713C117.871 23.9332 118.475 23.7642 119.164 23.7642C119.562 23.7642 119.955 23.8305 120.342 23.9631C120.73 24.0956 121.083 24.3111 121.401 24.6094C121.719 24.9044 121.973 25.2955 122.162 25.7827C122.351 26.2699 122.445 26.8698 122.445 27.5824V28.0795H116.559V27.0653H121.252C121.252 26.6345 121.166 26.25 120.994 25.9119C120.825 25.5739 120.583 25.3071 120.268 25.1115C119.956 24.916 119.588 24.8182 119.164 24.8182C118.697 24.8182 118.292 24.9342 117.951 25.1662C117.613 25.3949 117.353 25.6932 117.17 26.0611C116.988 26.429 116.897 26.8234 116.897 27.2443V27.9205C116.897 28.4972 116.996 28.986 117.195 29.3871C117.397 29.7848 117.678 30.0881 118.036 30.2969C118.393 30.5024 118.809 30.6051 119.283 30.6051C119.592 30.6051 119.87 30.562 120.119 30.4759C120.371 30.3864 120.588 30.2538 120.77 30.0781C120.952 29.8991 121.093 29.6771 121.192 29.4119L122.326 29.7301C122.207 30.1146 122.006 30.4527 121.724 30.7443C121.443 31.0327 121.095 31.258 120.68 31.4205C120.266 31.5795 119.8 31.6591 119.283 31.6591ZM124.23 31.5V23.8636H125.364V25.017H125.443C125.582 24.6392 125.834 24.3326 126.199 24.0973C126.563 23.862 126.974 23.7443 127.432 23.7443C127.518 23.7443 127.626 23.746 127.755 23.7493C127.884 23.7526 127.982 23.7576 128.048 23.7642V24.9574C128.009 24.9474 127.917 24.9325 127.775 24.9126C127.636 24.8894 127.488 24.8778 127.332 24.8778C126.961 24.8778 126.63 24.9557 126.338 25.1115C126.05 25.264 125.821 25.4761 125.652 25.7479C125.486 26.0163 125.403 26.3229 125.403 26.6676V31.5H124.23ZM136.479 31.6591C135.789 31.6591 135.185 31.495 134.664 31.1669C134.147 30.8388 133.743 30.3797 133.451 29.7898C133.163 29.1998 133.019 28.5104 133.019 27.7216C133.019 26.9261 133.163 26.2318 133.451 25.6385C133.743 25.0452 134.147 24.5845 134.664 24.2564C135.185 23.9283 135.789 23.7642 136.479 23.7642C137.168 23.7642 137.771 23.9283 138.289 24.2564C138.809 24.5845 139.213 25.0452 139.502 25.6385C139.793 26.2318 139.939 26.9261 139.939 27.7216C139.939 28.5104 139.793 29.1998 139.502 29.7898C139.213 30.3797 138.809 30.8388 138.289 31.1669C137.771 31.495 137.168 31.6591 136.479 31.6591ZM136.479 30.6051C137.003 30.6051 137.433 30.4709 137.771 30.2024C138.11 29.9339 138.36 29.581 138.522 29.1435C138.685 28.706 138.766 28.232 138.766 27.7216C138.766 27.2112 138.685 26.7356 138.522 26.2947C138.36 25.8539 138.11 25.4976 137.771 25.2259C137.433 24.9541 137.003 24.8182 136.479 24.8182C135.955 24.8182 135.524 24.9541 135.186 25.2259C134.848 25.4976 134.598 25.8539 134.436 26.2947C134.273 26.7356 134.192 27.2112 134.192 27.7216C134.192 28.232 134.273 28.706 134.436 29.1435C134.598 29.581 134.848 29.9339 135.186 30.2024C135.524 30.4709 135.955 30.6051 136.479 30.6051ZM145.131 23.8636V24.858H141.014V23.8636H145.131ZM142.247 31.5V22.8097C142.247 22.3722 142.35 22.0076 142.555 21.7159C142.761 21.4242 143.028 21.2055 143.356 21.0597C143.684 20.9138 144.03 20.8409 144.395 20.8409C144.683 20.8409 144.919 20.8641 145.101 20.9105C145.283 20.9569 145.419 21 145.509 21.0398L145.17 22.054C145.111 22.0341 145.028 22.0092 144.922 21.9794C144.819 21.9496 144.683 21.9347 144.514 21.9347C144.126 21.9347 143.846 22.0324 143.674 22.228C143.505 22.4235 143.42 22.7102 143.42 23.0881V31.5H142.247ZM156.047 24.2464C156.007 23.8454 155.837 23.5339 155.535 23.3118C155.233 23.0897 154.824 22.9787 154.307 22.9787C153.956 22.9787 153.659 23.0284 153.417 23.1278C153.175 23.224 152.99 23.3582 152.86 23.5305C152.734 23.7029 152.671 23.8984 152.671 24.1172C152.665 24.2995 152.703 24.4586 152.786 24.5945C152.872 24.7304 152.99 24.848 153.139 24.9474C153.288 25.0436 153.46 25.1281 153.656 25.201C153.851 25.2706 154.06 25.3303 154.282 25.38L155.197 25.5987C155.641 25.6982 156.049 25.8307 156.42 25.9964C156.791 26.1622 157.113 26.366 157.384 26.608C157.656 26.8499 157.867 27.1349 158.016 27.4631C158.168 27.7912 158.246 28.1674 158.249 28.5916C158.246 29.2147 158.087 29.755 157.772 30.2124C157.461 30.6664 157.01 31.0194 156.42 31.2713C155.833 31.5199 155.126 31.6442 154.297 31.6442C153.475 31.6442 152.759 31.5182 152.149 31.2663C151.543 31.0144 151.069 30.6416 150.727 30.1477C150.389 29.6506 150.212 29.0357 150.195 28.3033H152.279C152.302 28.6446 152.4 28.9297 152.572 29.1584C152.748 29.3838 152.981 29.5545 153.273 29.6705C153.568 29.7831 153.901 29.8395 154.272 29.8395C154.637 29.8395 154.953 29.7865 155.222 29.6804C155.494 29.5743 155.704 29.4268 155.853 29.2379C156.002 29.049 156.077 28.8319 156.077 28.5866C156.077 28.358 156.009 28.1657 155.873 28.0099C155.74 27.8542 155.545 27.7216 155.286 27.6122C155.031 27.5028 154.718 27.4034 154.347 27.3139L153.238 27.0355C152.38 26.8267 151.702 26.5002 151.205 26.0561C150.708 25.612 150.461 25.0137 150.464 24.2614C150.461 23.6449 150.625 23.1063 150.956 22.6456C151.291 22.1849 151.75 21.8253 152.333 21.5668C152.917 21.3082 153.579 21.179 154.322 21.179C155.078 21.179 155.737 21.3082 156.301 21.5668C156.867 21.8253 157.308 22.1849 157.623 22.6456C157.938 23.1063 158.1 23.6399 158.11 24.2464H156.047ZM163.138 31.6491C162.352 31.6491 161.676 31.4901 161.109 31.1719C160.546 30.8504 160.112 30.3963 159.807 29.8097C159.502 29.2197 159.349 28.522 159.349 27.7166C159.349 26.9311 159.502 26.2417 159.807 25.6484C160.112 25.0552 160.541 24.5928 161.094 24.2614C161.651 23.9299 162.304 23.7642 163.053 23.7642C163.557 23.7642 164.026 23.8454 164.46 24.0078C164.898 24.1669 165.279 24.4072 165.604 24.7287C165.932 25.0502 166.187 25.4545 166.369 25.9418C166.552 26.4257 166.643 26.9924 166.643 27.642V28.2237H160.195V26.9112H164.649C164.649 26.6063 164.583 26.3362 164.45 26.1009C164.318 25.8655 164.134 25.6816 163.898 25.549C163.666 25.4131 163.396 25.3452 163.088 25.3452C162.767 25.3452 162.482 25.4197 162.233 25.5689C161.988 25.7147 161.795 25.9119 161.656 26.1605C161.517 26.4058 161.446 26.6792 161.442 26.9808V28.2287C161.442 28.6065 161.512 28.933 161.651 29.2081C161.794 29.4832 161.994 29.6953 162.253 29.8445C162.511 29.9936 162.818 30.0682 163.173 30.0682C163.408 30.0682 163.623 30.035 163.819 29.9688C164.014 29.9025 164.182 29.803 164.321 29.6705C164.46 29.5379 164.566 29.3755 164.639 29.1832L166.598 29.3125C166.499 29.7831 166.295 30.1941 165.987 30.5455C165.682 30.8935 165.287 31.1652 164.803 31.3608C164.323 31.553 163.768 31.6491 163.138 31.6491ZM171.505 31.6491C170.719 31.6491 170.043 31.4901 169.477 31.1719C168.913 30.8504 168.479 30.3963 168.174 29.8097C167.869 29.2197 167.717 28.522 167.717 27.7166C167.717 26.9311 167.869 26.2417 168.174 25.6484C168.479 25.0552 168.908 24.5928 169.462 24.2614C170.018 23.9299 170.671 23.7642 171.42 23.7642C171.924 23.7642 172.393 23.8454 172.827 24.0078C173.265 24.1669 173.646 24.4072 173.971 24.7287C174.299 25.0502 174.554 25.4545 174.737 25.9418C174.919 26.4257 175.01 26.9924 175.01 27.642V28.2237H168.562V26.9112H173.016C173.016 26.6063 172.95 26.3362 172.817 26.1009C172.685 25.8655 172.501 25.6816 172.266 25.549C172.034 25.4131 171.763 25.3452 171.455 25.3452C171.134 25.3452 170.849 25.4197 170.6 25.5689C170.355 25.7147 170.163 25.9119 170.023 26.1605C169.884 26.4058 169.813 26.6792 169.81 26.9808V28.2287C169.81 28.6065 169.879 28.933 170.018 29.2081C170.161 29.4832 170.362 29.6953 170.62 29.8445C170.879 29.9936 171.185 30.0682 171.54 30.0682C171.775 30.0682 171.991 30.035 172.186 29.9688C172.382 29.9025 172.549 29.803 172.688 29.6705C172.827 29.5379 172.933 29.3755 173.006 29.1832L174.965 29.3125C174.866 29.7831 174.662 30.1941 174.354 30.5455C174.049 30.8935 173.654 31.1652 173.17 31.3608C172.69 31.553 172.135 31.6491 171.505 31.6491ZM175.945 21.3182H177.018L180.036 26.1506H180.126L183.143 21.3182H184.217L180.543 27.0902V31.5H179.619V27.0902L175.945 21.3182ZM187.668 31.6591C187.008 31.6591 186.425 31.4917 185.918 31.157C185.414 30.8222 185.019 30.3598 184.734 29.7699C184.449 29.1766 184.307 28.4922 184.307 27.7166C184.307 26.9344 184.449 26.2467 184.734 25.6534C185.019 25.0568 185.414 24.5928 185.918 24.2614C186.425 23.9266 187.008 23.7592 187.668 23.7592C188.327 23.7592 188.909 23.9266 189.413 24.2614C189.916 24.5961 190.311 25.0601 190.596 25.6534C190.884 26.2467 191.028 26.9344 191.028 27.7166C191.028 28.4922 190.886 29.1766 190.601 29.7699C190.316 30.3598 189.92 30.8222 189.413 31.157C188.909 31.4917 188.327 31.6591 187.668 31.6591ZM187.668 30.8487C188.198 30.8487 188.647 30.7062 189.015 30.4212C189.383 30.1361 189.661 29.7566 189.85 29.2827C190.042 28.8087 190.138 28.2867 190.138 27.7166C190.138 27.1465 190.042 26.6229 189.85 26.1456C189.661 25.6683 189.383 25.2855 189.015 24.9972C188.647 24.7088 188.198 24.5646 187.668 24.5646C187.141 24.5646 186.692 24.7088 186.32 24.9972C185.952 25.2855 185.672 25.6683 185.48 26.1456C185.291 26.6229 185.197 27.1465 185.197 27.7166C185.197 28.2867 185.291 28.8087 185.48 29.2827C185.672 29.7566 185.952 30.1361 186.32 30.4212C186.688 30.7062 187.137 30.8487 187.668 30.8487ZM197.823 28.5817V23.8636H198.708V31.5H197.823V30.2322H197.754C197.575 30.6233 197.291 30.9498 196.904 31.2116C196.516 31.4702 196.042 31.5994 195.482 31.5994C194.994 31.5994 194.562 31.4934 194.184 31.2812C193.806 31.0658 193.51 30.7509 193.294 30.3366C193.079 29.9223 192.971 29.4136 192.971 28.8104V23.8636H193.856V28.7557C193.856 29.3523 194.032 29.8329 194.383 30.1974C194.734 30.5587 195.185 30.7393 195.735 30.7393C196.08 30.7393 196.411 30.6565 196.73 30.4908C197.048 30.325 197.31 30.0831 197.515 29.7649C197.721 29.4434 197.823 29.049 197.823 28.5817Z" fill="white"/>
<defs>
<linearGradient id="paint0_linear_2503_78312" x1="24.8634" y1="7.20614" x2="267.112" y2="150.7" gradientUnits="userSpaceOnUse">
<stop stop-color="#FFC93E"/>
<stop offset="0.321944" stop-color="#FFFEFB"/>
<stop offset="1" stop-color="#F1CE6D"/>
</linearGradient>
<linearGradient id="paint1_linear_2503_78312" x1="13.4375" y1="10" x2="30.0521" y2="43" gradientUnits="userSpaceOnUse">
<stop offset="0.187475" stop-color="#FFBE16"/>
<stop offset="0.505208" stop-color="white"/>
<stop offset="1" stop-color="#EBBC36"/>
</linearGradient>
<clipPath id="clip0_2503_78312">
<rect width="33" height="33" fill="white" transform="translate(10 10)"/>
</clipPath>
</defs>
</svg>
