<svg width="24" height="24" viewBox="0 0 24 24" fill="none" xmlns="http://www.w3.org/2000/svg">
<mask id="mask0_1439_23101" style="mask-type:alpha" maskUnits="userSpaceOnUse" x="0" y="1" width="23" height="23">
<path fill-rule="evenodd" clip-rule="evenodd" d="M4 5.24993C3.58579 5.24993 3.25 5.58571 3.25 5.99992V19.9997C3.25 20.4139 3.58579 20.7497 4 20.7497H18C18.4142 20.7497 18.75 20.4139 18.75 19.9997V12.9998C18.75 12.3095 19.3096 11.7498 20 11.7498C20.6904 11.7498 21.25 12.3095 21.25 12.9998V19.9997C21.25 21.7946 19.7949 23.2496 18 23.2496H4C2.20507 23.2496 0.75 21.7946 0.75 19.9997V5.99992C0.75 4.20502 2.20507 2.74997 4 2.74997H11C11.6904 2.74997 12.25 3.30961 12.25 3.99995C12.25 4.6903 11.6904 5.24993 11 5.24993H4Z" fill="#006FFD"/>
<path d="M13.0947 14.3006L20.2425 7.15287L16.8474 3.75784L9.6996 10.9056C9.6012 11.0041 9.5313 11.1274 9.49732 11.2624L8.70508 15.2951L12.737 14.5029C12.8724 14.469 12.9962 14.399 13.0947 14.3006ZM22.55 4.84542C22.8384 4.55695 23.0004 4.16575 23.0004 3.75784C23.0004 3.34994 22.8384 2.95874 22.55 2.67027L21.3301 1.45039C21.0416 1.16201 20.6504 1 20.2425 1C19.8346 1 19.4434 1.16201 19.1549 1.45039L17.935 2.67027L21.3301 6.06529L22.55 4.84542Z" fill="#006FFD"/>
</mask>
<g mask="url(#mask0_1439_23101)">
<rect width="24" height="23.9996" fill="white"/>
</g>
</svg>
