<svg width="342" height="244" viewBox="0 0 342 244" fill="none" xmlns="http://www.w3.org/2000/svg">
<path d="M287.449 104.526C285.962 107.047 267.136 119.802 255.716 121.689C253.507 122.054 251.094 122.18 249.174 121.026C248.04 120.344 247.195 119.281 246.393 118.23C244.557 115.825 242.807 113.356 241.145 110.829C240.271 109.501 239.405 108.114 239.109 106.553C238.323 102.417 241.656 98.7029 244.95 96.0827C252.523 90.0596 261.39 85.6718 270.772 83.3047C272.433 82.8857 274.194 82.5308 275.839 83.0068C278.509 83.7793 280.106 86.4814 281.125 89.0678C282.144 91.6542 282.938 94.4833 284.975 96.3754C285.44 96.8075 288.935 102.006 287.449 104.526Z" fill="#181A20"/>
<path fill-rule="evenodd" clip-rule="evenodd" d="M186.283 214.411C168.012 217.535 176.721 204.256 179.24 187.635C183.38 160.325 188.486 118.821 188.486 118.821C188.486 118.821 191.815 182.062 191.815 197.461C191.815 212.86 188.485 214.034 186.283 214.411Z" fill="#181A20"/>
<path d="M166.763 199.364C167.229 203.762 167.721 208.253 169.59 212.261C168.57 203.185 167.55 194.109 166.531 185.032C166.405 183.911 166.442 182.485 167.473 182.027C168.346 192.276 169.646 202.489 171.371 212.629C171.576 213.833 169.768 214.521 168.752 213.843C167.736 213.165 167.411 211.845 167.181 210.645C165.498 201.907 164.572 193.023 164.418 184.126C162.276 184.548 160.773 186.625 160.34 188.766C159.907 190.906 160.324 193.116 160.742 195.259C162.086 202.159 163.429 209.058 164.773 215.957C165.401 219.185 166.03 222.519 165.336 225.733C162.669 213.557 160.526 201.267 158.912 188.908C138.45 201.42 112.084 203.747 89.7473 195.012C84.8687 193.104 80.0238 190.576 76.8015 186.446C74.2632 183.192 72.9087 179.153 72.1991 175.088C69.679 160.651 74.8433 145.925 81.8528 133.055C84.5125 128.171 87.5415 123.085 87.3269 117.528C87.253 115.615 86.8405 113.497 87.9576 111.942C88.1158 112.23 80.6442 58.784 83.6415 46.9619C90.8572 18.5011 114.298 14.6467 129.306 14.9977C139.376 15.2333 203.206 27.9184 212.428 45.1687C224.549 67.8406 221.976 86.9019 219.823 99.4704C219.182 103.213 188.496 118.545 188.488 118.623C186.733 134.931 174.961 170.467 165.087 183.565C165.646 188.832 166.204 194.098 166.763 199.364Z" fill="#181A20"/>
<path fill-rule="evenodd" clip-rule="evenodd" d="M19.4301 133.006C13.6754 130.709 6.8175 131.39 1.62926 134.774C1.12698 135.102 0.404835 134.737 0.156184 134.192C-0.092467 133.646 0.000539447 133.012 0.127729 132.427C1.78474 124.802 8.38581 118.967 15.7268 116.286C23.0678 113.604 31.0975 113.597 38.9011 114.055C39.6754 114.101 40.4847 114.161 41.1452 114.567C41.8056 114.973 42.25 115.841 41.9208 116.542C38.8511 123.079 36.5387 129.969 35.0444 137.033C34.8021 138.178 33.6153 138.938 32.4465 139.033C31.2776 139.129 30.1323 138.698 29.0715 138.198C25.7657 136.642 22.8237 134.361 19.4301 133.006Z" fill="#181A20"/>
<path fill-rule="evenodd" clip-rule="evenodd" d="M197.708 38.3112C197.768 37.3982 197.815 36.4843 197.85 35.5699C182.047 27.7062 164.892 22.6655 147.902 17.6948C161.244 23.0683 175.679 29.4098 182.202 42.2295C184.961 47.6541 186.009 53.7691 186.831 59.7997C189.273 77.7299 190.02 95.8906 189.057 113.961L212.314 102.657C214.316 101.684 216.418 100.625 217.626 98.7561C218.758 97.0061 218.925 94.8227 219.036 92.7416C219.689 80.5551 219.564 68.327 218.662 56.1565C220.29 63.191 221.351 70.3564 221.836 77.5604C222.129 73.4963 222.41 69.4313 222.679 65.3655C222.868 62.5147 223.039 59.5743 222.105 56.8741C220.444 52.0717 215.606 49.0363 210.719 47.6446C209.877 47.4047 209.021 47.2007 208.165 46.9967C206.174 46.5219 204.184 46.0475 202.368 45.122C199.771 43.799 197.518 41.2195 197.708 38.3112ZM156.63 17.8117C170.805 21.8084 184.979 26.3585 197.909 33.3323C198.03 25.6081 197.261 17.8701 195.617 10.3217L195.574 10.1261C195.236 8.57533 194.887 6.98026 195.199 5.42829C195.89 1.99582 199.702 -0.0702347 203.203 0.00182515C206.703 0.073885 209.946 1.74489 213.044 3.37676C227.899 11.2026 243.023 19.2261 254.72 31.2729C255.087 41.0258 252.788 50.6503 250.519 60.1514L250.306 61.0444C247.603 72.3778 245.039 83.7446 242.616 95.1412C250.186 89.1219 259.05 84.7368 268.428 82.3707C270.088 81.9517 271.849 81.5969 273.495 82.0728C276.165 82.8453 277.762 85.5474 278.781 88.1338C278.949 88.5609 279.111 88.9945 279.274 89.4295C280.096 91.6289 280.93 93.8617 282.631 95.4414C282.677 95.4847 282.725 95.5277 282.772 95.5707L282.865 95.6537C283.266 96.0122 283.674 96.3771 283.847 96.8781C284.055 97.478 283.677 98.3174 283.044 98.2684C280.372 97.2527 278.918 94.412 277.884 91.747C277.811 91.5585 277.738 91.3688 277.665 91.1784C276.704 88.6767 275.696 86.0548 273.538 84.5068C271.914 90.9738 269.443 97.2276 266.209 103.058C265.828 103.744 265.393 104.466 264.679 104.792C264.125 105.046 263.489 105.018 262.881 104.984C255.557 104.572 248.249 103.903 240.972 102.979C240.665 104.467 240.359 105.957 240.056 107.446L244.939 114.671C245.812 115.962 246.737 117.302 248.106 118.048C249.937 119.044 252.179 118.778 254.213 118.327C264.944 115.946 274.189 109.325 282.843 102.549C283.387 102.123 284.106 101.676 284.716 102C285.248 102.283 285.355 103.045 285.104 103.592C284.854 104.14 284.35 104.522 283.866 104.881C274.566 111.771 264.792 118.868 253.372 120.755C251.163 121.121 248.749 121.246 246.83 120.092C245.696 119.41 244.851 118.347 244.048 117.296C242.426 115.171 240.871 112.995 239.384 110.774C236.199 126.628 233.285 142.536 230.644 158.49C231.435 158.669 232.227 158.841 233.02 159.008C233.169 159.04 233.317 159.071 233.466 159.102C236.225 159.68 239.046 160.27 241.39 161.821C241.249 162.486 240.327 162.538 239.656 162.428C236.519 161.912 233.397 161.298 230.298 160.59C229.169 167.471 228.092 174.359 227.065 181.256C226.489 185.126 225.396 189.692 221.725 191.047C219.092 192.02 216.03 190.777 214.159 188.684C212.289 186.591 211.394 183.813 210.771 181.076C209.231 174.323 209.046 167.265 210.229 160.441C210.546 158.609 210.96 156.799 211.428 155.001C210.912 154.811 210.397 154.619 209.883 154.425C206.774 153.247 203.642 151.932 201.141 149.743C198.64 147.553 196.835 144.323 197.137 141.013C197.204 140.269 197.166 139.226 196.425 139.132C184.063 137.562 172.197 132.275 162.764 124.133C159.807 121.581 156.853 118.013 157.74 114.21C158.099 112.669 159.06 111.341 160.103 110.152C164.653 104.963 171.25 101.619 178.125 101.016C172.059 103.876 165.828 106.856 161.308 111.812C160.707 112.471 160.128 113.182 159.83 114.024C158.884 116.703 161.031 119.422 163.135 121.331C172.829 130.128 185.276 135.845 198.266 137.467C198.501 135.969 199.686 134.757 201.047 134.088C202.409 133.418 203.941 133.202 205.444 132.996C209.278 132.471 213.311 131.984 217.059 132.661C217.362 130.389 217.584 128.104 217.801 125.821C218.654 116.869 219.449 107.911 220.186 98.9485C220.07 99.1264 219.947 99.3005 219.816 99.4706C218.43 101.27 216.354 102.38 214.342 103.437L192.793 114.758C184.468 119.131 174.442 120.156 165.405 117.558L184.799 116.548C185.327 116.521 185.892 116.48 186.306 116.151C186.912 115.671 186.959 114.785 186.955 114.012C186.858 94.9083 186.756 75.7282 183.971 56.8281C183.094 50.8731 181.878 44.7737 178.534 39.769C174.851 34.2573 168.981 30.6518 163.191 27.423C152.806 21.6316 141.538 16.3583 129.65 16.6145C119.836 16.8261 110.492 20.8107 101.896 25.5509C95.0711 29.3144 88.1157 34.0965 85.419 41.4088C83.9293 45.4482 83.9067 49.8615 83.9785 54.1662C84.2343 69.5178 85.4614 84.8531 87.6498 100.05C87.8881 101.705 87.7255 103.981 86.0801 104.278C83.9755 87.9818 81.8684 71.6572 81.3026 55.2358C81.1386 50.4745 81.1268 45.5753 82.8277 41.1251C85.1202 35.1272 90.2394 30.679 95.5453 27.0627C108.775 18.0459 124.905 12.5562 140.816 14.3387C146.186 14.9402 151.43 16.3454 156.63 17.8117ZM218.937 134.991C219.156 135.053 219.374 135.12 219.591 135.192L219.641 135.209L219.672 135.219C219.587 135.574 219.357 135.896 219.022 136.046L218.99 136.123C218.794 135.782 218.791 135.355 218.937 134.991ZM216.788 134.533C216.653 135.4 216.502 136.266 216.331 137.127C216.28 137.387 216.227 137.645 216.173 137.904C212.978 138.45 209.69 138.452 206.496 137.902C204.487 137.557 202.435 137.464 200.403 137.628C201.39 135.752 203.802 135.259 205.902 134.973C209.506 134.482 213.228 134.001 216.788 134.533ZM215.71 139.935C215.04 142.697 214.219 145.423 213.398 148.149L213.398 148.149L213.398 148.149C212.9 149.803 212.401 151.456 211.937 153.118C209.314 152.195 206.703 151.168 204.415 149.593C202.001 147.93 199.95 145.58 199.178 142.752C198.796 141.355 199.314 139.27 200.751 139.446C205.715 140.053 210.795 140.653 215.71 139.935ZM215.037 156.274C213.783 163.706 213.472 171.298 214.135 178.806C214.413 181.955 214.929 185.258 216.892 187.736C216.046 181.095 215.824 174.375 216.231 167.693C216.448 164.12 216.845 160.561 217.241 157.002C216.505 156.765 215.77 156.522 215.037 156.274ZM217.468 154.951C216.776 154.735 216.085 154.514 215.396 154.289C216.14 150.415 217.143 146.592 218.399 142.852C218.305 146.899 217.909 150.926 217.468 154.951ZM219.936 157.844C219.834 158.809 219.735 159.774 219.638 160.74C218.711 169.974 218.032 179.518 220.904 188.342C222.378 188.073 222.945 186.298 223.224 184.826L227.929 160.029C225.246 159.372 222.58 158.643 219.936 157.844ZM228.324 157.949C225.584 157.29 222.861 156.563 220.158 155.767C221.363 144.71 222.88 133.686 224.708 122.713C225.132 120.164 225.574 117.616 226.015 115.069C227.41 107.021 228.804 98.9716 229.669 90.8518C231.113 77.2917 231.07 63.6203 230.868 49.985C230.85 48.824 230.818 47.6073 230.245 46.597C229.545 45.36 228.181 44.6777 226.885 44.095C220.445 41.2005 213.694 38.9992 206.785 37.5414C206.625 26.7155 206.993 15.8818 207.889 5.09173C218.653 9.49072 228.987 14.942 238.696 21.3425C243.739 24.6673 248.969 28.7649 250.296 34.658C251.054 38.0241 250.411 41.5288 249.768 44.9186L239.737 97.7906C237.68 100.041 236.215 102.727 236.764 105.619C236.938 106.534 237.308 107.39 237.76 108.209L228.324 157.949ZM200.178 40.1699C200.307 39.0789 200.396 37.9874 200.448 36.8956C201.53 37.4611 202.604 38.0407 203.671 38.6355C202.92 39.8044 201.479 40.6164 200.178 40.1699ZM203.554 36.5875C203.801 36.7398 204.054 36.9065 204.298 37.0872C204.538 36.0826 204.547 35.0086 204.549 33.9664L204.596 7.09445C204.599 5.45211 204.461 3.53119 203.092 2.62371C201.555 1.60511 199.335 2.65511 198.479 4.28784C197.623 5.92057 197.754 7.87517 197.948 9.70839C198.232 12.3963 198.607 15.0856 198.981 17.7753L198.981 17.7761L198.981 17.7769L198.981 17.7776L198.982 17.7784L198.982 17.7792L198.982 17.78L198.982 17.7807C199.771 23.4476 200.56 29.1163 200.509 34.7772C201.533 35.3639 202.548 35.967 203.554 36.5875ZM241.934 98.367C241.821 98.9037 241.708 99.4405 241.596 99.9773L259.573 101.983C260.76 102.116 262.042 102.229 263.072 101.626C263.882 101.152 264.396 100.311 264.859 99.495C267.622 94.6261 269.761 89.4034 271.206 83.995C269.658 83.825 268.126 84.3476 266.665 84.8871C262.05 86.591 257.527 88.5423 253.121 90.7297C249.056 92.7479 244.988 95.0547 241.934 98.367ZM220.436 129.426C225.295 104.476 227.491 79.0069 226.973 53.5926C226.934 51.6731 226.831 49.6103 225.657 48.0912C224.796 46.9781 223.482 46.3261 222.198 45.751C217.376 43.5913 212.307 41.9841 207.122 40.9712C205.621 40.6781 203.414 40.9957 203.48 42.5236L222.118 50.2252C223.211 50.677 224.376 51.1879 224.994 52.1966C225.6 53.186 225.54 54.4288 225.462 55.5863L220.436 129.426ZM166.76 199.365C167.226 203.762 167.718 208.253 169.587 212.262L166.528 185.032C166.402 183.911 166.439 182.485 167.47 182.028C168.343 192.277 169.643 202.489 171.368 212.629C171.573 213.833 169.764 214.521 168.749 213.843C167.733 213.165 167.408 211.845 167.178 210.646C165.495 201.908 164.569 193.024 164.415 184.126C162.273 184.548 160.77 186.625 160.337 188.766C159.904 190.906 160.321 193.116 160.739 195.26L164.77 215.958C165.398 219.185 166.027 222.519 165.333 225.733C162.666 213.557 160.522 201.267 158.909 188.908C138.447 201.421 112.081 203.747 89.7443 195.012C84.8657 193.104 80.0208 190.576 76.7985 186.446C74.2602 183.193 72.9057 179.153 72.1961 175.088C69.676 160.651 74.8403 145.925 81.8498 133.055C82.0324 132.719 82.2168 132.383 82.4017 132.046C84.9101 127.471 87.5238 122.704 87.3239 117.528C87.3107 117.186 87.2866 116.838 87.2625 116.487C87.1514 114.876 87.0372 113.219 87.9546 111.942C89.1852 114.181 89.6539 116.83 89.2661 119.355C110.45 118.443 131.665 118.26 152.861 118.805C153.108 119.779 151.696 120.232 150.691 120.217C130.91 119.922 111.12 120.259 91.361 121.227C90.7352 121.258 90.0784 121.298 89.5478 121.632C88.9898 121.982 88.6647 122.597 88.3648 123.184C82.7568 134.157 77.1305 145.289 74.4198 157.31C73.0259 163.492 72.492 170.257 75.349 175.914C76.4328 178.059 77.9657 179.954 79.6773 181.643C88.8656 190.706 102.625 193.484 115.529 193.267C123.764 193.129 131.982 191.945 139.922 189.753C148.34 187.429 156.735 183.766 162.48 177.19C165.854 173.328 168.147 168.652 170.156 163.933C173.99 154.924 176.932 145.534 178.922 135.947C180.169 136.21 180.187 137.972 179.899 139.213C176.34 154.567 172.203 170.933 160.481 181.468C149.894 190.983 134.975 193.934 120.762 194.73C112.552 195.19 104.213 195.046 96.2614 192.953C88.3096 190.861 80.717 186.674 75.6688 180.183C77.1411 185.797 82.1285 189.804 87.3209 192.397C100.954 199.204 117.053 198.844 132.107 196.478C142.134 194.902 152.427 192.315 160.231 185.823C166.902 180.274 171.153 172.35 174.353 164.285C177.895 155.357 180.352 146 181.652 136.484C182.463 135.972 183.063 137.404 182.96 138.356C181.206 154.665 174.958 170.467 165.084 183.566L166.76 199.365ZM157.279 227.253C156.409 225.784 155.849 224.132 155.646 222.437L154.396 226.673L151.242 214.644C150.998 213.71 150.402 212.543 149.459 212.743C148.541 212.938 148.438 214.197 148.575 215.125C149.262 219.791 150.573 224.366 152.461 228.688L149.107 225.745C148.943 227.146 149.312 228.603 150.122 229.758C148.375 228.471 146.032 228.032 143.938 228.6C145.434 230.679 147.466 232.37 149.783 233.463L146.948 229.507C149.239 230.83 151.639 231.963 154.116 232.892L151.715 229.88L154.682 230.703C152.412 225.538 150.099 220.175 150.154 214.533C151.013 219.123 152.271 223.638 153.909 228.011C154.187 228.752 154.495 229.518 155.086 230.044C155.678 230.57 156.639 230.768 157.258 230.275C157.74 229.893 157.88 229.233 157.989 228.627L159.326 221.216L160.794 230.407C161.907 227.596 165.526 226.891 168.55 226.872C172.542 226.848 176.565 227.287 180.577 227.726C187.809 228.517 195.007 229.304 201.937 227.359C201.733 228.43 201.377 229.472 200.883 230.444C206.474 229.63 212.132 229.273 217.781 229.377C220.167 229.421 222.56 229.547 224.953 229.673H224.953H224.953H224.954H224.954H224.954H224.955H224.955H224.955C231.282 230.005 237.608 230.337 243.807 229.162L202.667 228.801C203.44 228.756 204.032 227.857 203.768 227.129C203.505 226.402 202.475 226.09 201.853 226.55C201.448 225.264 199.629 224.692 198.561 225.515C199.18 223.606 200.405 221.898 202.014 220.699C200.198 220.602 198.353 221.158 196.893 222.243L201.318 201.763C200.944 201.441 200.32 201.658 200.044 202.067C199.77 202.471 199.739 202.986 199.711 203.474L199.71 203.49C199.295 210.483 196.829 217.342 192.696 222.998L191.073 218.302L188.747 223.911C187.693 223.095 186.197 222.889 184.961 223.39C185.277 224.589 186.236 225.598 187.418 225.974L187.969 224.499L191.603 226.933C190.214 225.477 189.913 223.096 190.896 221.341L193.095 225.03L197.358 216.599C197.382 219.984 195.931 223.183 194.509 226.255C196.055 225.045 197.383 223.558 198.413 221.887C199.407 223.647 198.321 226.007 196.592 227.055C194.864 228.102 192.726 228.159 190.706 228.074C187.625 227.944 184.52 227.556 181.419 227.17C174.455 226.302 167.51 225.436 160.895 227.487L159.941 218.691C158.484 221.324 157.572 224.257 157.279 227.253ZM198.785 227.488C198.635 227.309 198.636 227.022 198.787 226.844L198.907 226.89C199.109 226.406 199.959 226.446 200.115 226.946C199.723 227.229 199.263 227.416 198.785 227.488ZM140.022 232.51C143.384 232.416 146.766 233.159 149.779 234.654C148.974 235.811 147.355 235.974 145.946 236.027L109.122 237.425C108.784 237.383 108.721 236.861 108.96 236.62C109.199 236.378 109.572 236.347 109.912 236.33L145.86 234.577C143.783 234.386 141.757 233.669 140.022 232.51ZM69.1566 110.723C68.6318 113.233 70.755 115.91 73.3119 116.1C69.1307 122.401 61.599 125.511 54.3623 127.706C49.8458 129.076 44.8357 130.201 40.5299 128.268C39.9956 128.595 40.5654 129.399 41.1295 129.671C45.3197 131.69 50.2875 130.565 54.7445 129.234C61.2807 127.284 68.0181 124.763 72.4657 119.591C72.6476 119.379 72.8289 119.162 73.0114 118.942L73.012 118.942C74.1567 117.566 75.3504 116.131 77.0715 115.813C82.6126 114.788 87.2277 111.317 91.7879 107.888C92.8222 107.11 93.8537 106.334 94.8926 105.59C101.207 101.065 108.209 97.5023 115.585 95.064C116.236 94.8487 117.029 94.449 116.971 93.7654C107.826 94.6047 99.8333 100.058 92.4632 105.536L92.2173 105.718C87.2084 109.442 81.9742 113.333 75.811 114.256C77.8242 112.668 77.3992 108.999 75.1279 107.81C72.8565 106.62 69.6813 108.213 69.1566 110.723ZM70.8645 112.257C70.4535 111.039 71.0878 109.591 72.2152 108.974C72.5353 108.799 72.8933 108.683 73.2581 108.682C74.462 108.681 75.3412 109.969 75.3491 111.173C75.3571 112.377 74.7468 113.487 74.1536 114.535C72.7662 114.322 71.3134 113.586 70.8645 112.257ZM207.696 85.4301C207.355 85.0506 207.46 84.5395 207.568 84.01C207.645 83.6358 207.723 83.2525 207.648 82.9C207.583 82.5944 207.404 82.3341 207.225 82.073C207.067 81.842 206.909 81.6104 206.827 81.3461C206.846 80.9968 207.313 80.8175 207.631 80.9624C207.95 81.1073 208.128 81.4491 208.239 81.7808C208.644 82.9912 208.436 84.3903 207.696 85.4301ZM176.872 58.8688C177.724 56.8487 179.413 55.0573 181.567 54.6472C182.264 54.5145 182.242 53.3655 181.632 53.0042C181.021 52.643 180.237 52.8565 179.596 53.1615C176.612 54.5818 174.728 57.7082 173.99 60.9294C173.252 64.1507 173.496 67.5054 173.744 70.8008L175.063 88.3172C175.108 88.9128 175.163 89.5381 175.495 90.0348C176.17 91.0466 177.619 91.0783 178.833 91.0012L184.978 90.6108C183.612 89.5406 181.779 89.0901 180.073 89.4052C179.076 89.5892 178.075 88.932 177.547 88.0671C177.019 87.2023 176.865 86.1673 176.734 85.1625C175.877 78.5886 175.563 71.9442 175.795 65.3189C175.872 63.1278 176.02 60.8888 176.872 58.8688ZM192.564 214.349C192.215 214.602 191.865 214.026 191.814 213.597C189.439 193.636 189.081 173.496 188.725 153.396L188.486 139.846C188.479 139.46 188.485 139.038 188.733 138.742C189.16 138.233 190.058 138.466 190.431 139.016C190.804 139.566 190.804 140.278 190.792 140.943C190.426 160.721 190.666 180.539 192.56 200.23C192.583 200.467 192.606 200.704 192.629 200.941L192.63 200.949V200.949C193.064 205.422 193.505 209.963 192.564 214.349ZM172.818 88.522C172.298 88.2363 171.657 88.398 171.087 88.5663C144.76 96.3529 118.493 104.382 92.6135 113.546C92.129 113.717 91.575 113.964 91.4638 114.466C91.3462 114.997 91.8464 115.505 92.3816 115.604C92.9169 115.702 93.4583 115.511 93.9691 115.323C119.905 105.782 146.231 97.3019 172.86 89.9118C173.432 89.7531 173.338 88.8076 172.818 88.522Z" fill="#E8E9F1"/>
<path fill-rule="evenodd" clip-rule="evenodd" d="M280.921 242.263C279.609 242.839 278.188 243.376 276.775 243.133C275.362 242.89 274.041 241.564 274.325 240.159C276.919 227.312 273.661 213.4 265.633 203.04C262.819 199.409 259.47 196.214 256.728 192.529C255 190.207 253.464 187.286 254.34 184.528C255.587 180.603 260.608 179.648 264.717 179.368C274.269 178.717 283.821 178.066 293.373 177.414C297.775 177.114 302.844 177.07 305.782 180.361C313.961 189.522 329.902 190.137 338.763 181.634C340.134 180.318 341.861 182.937 341.806 184.837C341.635 190.81 339.174 196.689 335.038 201.001C334.062 202.019 332.814 203.016 331.412 202.87C330.01 202.724 328.975 200.711 330.094 199.852C332.492 198.009 334.935 196.121 336.617 193.607C338.298 191.093 339.114 187.797 337.967 184.999C331.797 192.805 325.567 200.564 319.279 208.276C308.377 221.648 296.717 235.325 280.921 242.263ZM298.151 202.916C296.582 203.35 294.908 203.017 293.341 202.574C282.067 199.388 271.68 190.579 260.147 192.641C273.594 203.471 280.734 221.631 278.264 238.72C287.125 236.822 294.122 230.208 300.397 223.671C309.686 213.997 318.505 203.872 326.815 193.344C320.842 193.295 314.892 191.572 309.817 188.422C303.548 189.974 304.376 201.195 298.151 202.916ZM306.339 185.129C302.604 180.726 295.892 180.862 290.141 181.367C282.639 182.026 275.137 182.685 267.635 183.344C264.589 183.611 261.091 184.146 259.503 186.759C272.487 189.477 285.146 193.746 297.124 199.447C298.665 194.608 301.753 190.275 305.824 187.239C306.282 186.897 306.806 186.459 306.745 185.891C306.714 185.6 306.528 185.352 306.339 185.129V185.129Z" fill="white"/>
<path fill-rule="evenodd" clip-rule="evenodd" d="M39.0764 152.019C27.7771 147.501 14.3118 148.841 4.1248 155.498C3.13858 156.142 1.72067 155.424 1.23245 154.352C0.744224 153.28 0.92684 152.032 1.17657 150.881C4.43009 135.881 17.3912 124.404 31.805 119.129C46.2189 113.855 61.9852 113.84 77.3073 114.742C78.8276 114.831 80.4166 114.95 81.7135 115.749C83.0103 116.547 83.8829 118.255 83.2365 119.634C77.2092 132.492 72.6689 146.046 69.7349 159.94C69.2591 162.193 66.9288 163.688 64.6338 163.876C62.3388 164.064 60.09 163.216 58.0072 162.234C51.5162 159.173 45.7396 154.684 39.0764 152.019ZM40.368 136.842C39.3609 137.66 37.787 137.228 36.8394 136.342C35.8919 135.455 35.3519 134.229 34.6071 133.166C30.612 127.467 21.4439 127.94 16.0095 132.288C10.5752 136.637 7.94548 143.507 5.55083 150.042C21.494 143.117 41.1307 145.602 54.846 156.281C56.7186 157.739 58.5767 159.382 60.8826 159.943C63.1885 160.504 66.0934 159.496 66.6775 157.195C69.7978 144.907 73.6428 132.802 78.186 120.966C69.4687 131.801 51.1615 128.073 40.368 136.842ZM36.8988 130.294C37.7941 131.419 39.4196 131.717 40.8346 131.463C42.2497 131.209 43.5353 130.505 44.8538 129.932C49.3932 127.958 54.4209 127.518 59.2876 126.616C64.1543 125.714 69.174 124.187 72.6 120.614C64.8701 120.591 57.1402 120.568 49.4103 120.545C41.642 120.521 33.2708 120.686 27.0302 125.312C30.8292 125.451 34.5313 127.319 36.8988 130.294Z" fill="white"/>
<path fill-rule="evenodd" clip-rule="evenodd" d="M188.283 131.429C188.274 128.254 188.266 125.078 188.257 121.903C188.255 120.991 188.252 120.079 188.25 119.167C188.248 118.538 188.354 117.752 188.951 117.556C189.403 117.408 189.901 117.733 190.112 118.159C190.324 118.585 190.321 119.082 190.314 119.557C190.248 123.988 190.182 128.42 190.116 132.851C190.107 133.488 190 134.272 189.403 134.496C188.408 133.932 188.286 132.573 188.283 131.429H188.283Z" fill="#E8E9F1"/>
<path fill-rule="evenodd" clip-rule="evenodd" d="M181.939 128.49C181.479 128.692 181.242 127.935 181.313 127.438C181.567 125.66 181.822 123.878 182.255 122.134C182.524 121.049 182.912 119.907 183.809 119.238C184.705 118.57 186.244 118.687 186.683 119.716C186.895 120.214 186.807 120.783 186.709 121.316C186.106 124.615 185.293 127.875 184.277 131.071C184.234 131.207 184.187 131.348 184.084 131.447C183.834 131.686 183.384 131.525 183.21 131.225C183.037 130.925 183.06 130.556 183.087 130.211C183.5 130.18 183.693 129.695 183.792 129.293C184.196 127.652 184.601 126.011 185.006 124.37C185.321 123.093 185.608 121.639 184.875 120.547C184.122 121.011 183.84 121.949 183.615 122.804C183.165 124.525 182.714 126.246 182.263 127.967C182.209 128.173 182.134 128.405 181.939 128.49L181.939 128.49Z" fill="#E8E9F1"/>
</svg>
