<svg width="20" height="20" viewBox="0 0 20 20" fill="none" xmlns="http://www.w3.org/2000/svg">
<mask id="mask0_3575_14462" style="mask-type:alpha" maskUnits="userSpaceOnUse" x="0" y="3" width="20" height="14">
<path d="M10 7.2706C9.27668 7.2706 8.58299 7.55793 8.07153 8.0694C7.56006 8.58086 7.27273 9.27455 7.27273 9.99787C7.27273 10.7212 7.56006 11.4149 8.07153 11.9263C8.58299 12.4378 9.27668 12.7251 10 12.7251C10.7233 12.7251 11.417 12.4378 11.9285 11.9263C12.4399 11.4149 12.7273 10.7212 12.7273 9.99787C12.7273 9.27455 12.4399 8.58086 11.9285 8.0694C11.417 7.55793 10.7233 7.2706 10 7.2706ZM10 14.5433C8.79447 14.5433 7.63832 14.0644 6.78588 13.212C5.93344 12.3596 5.45455 11.2034 5.45455 9.99787C5.45455 8.79234 5.93344 7.63619 6.78588 6.78375C7.63832 5.93131 8.79447 5.45241 10 5.45241C11.2055 5.45241 12.3617 5.93131 13.2141 6.78375C14.0666 7.63619 14.5455 8.79234 14.5455 9.99787C14.5455 11.2034 14.0666 12.3596 13.2141 13.212C12.3617 14.0644 11.2055 14.5433 10 14.5433ZM10 3.17969C5.58182 3.17969 1.61818 5.90696 0 9.99787C2.17273 15.5251 8.40909 18.2342 13.9364 16.0615C16.7091 14.9706 18.9091 12.7797 20 9.99787C18.3818 5.90696 14.4182 3.17969 10 3.17969Z" fill="#006FFD"/>
</mask>
<g mask="url(#mask0_3575_14462)">
<rect width="20" height="20" fill="#E8E9F1"/>
</g>
</svg>
