<svg width="40" height="40" viewBox="0 0 40 40" fill="none" xmlns="http://www.w3.org/2000/svg">
<rect width="40" height="40" rx="20" fill="#34373F"/>
<g clip-path="url(#clip0_3844_18349)">
<mask id="mask0_3844_18349" style="mask-type:alpha" maskUnits="userSpaceOnUse" x="10" y="10" width="20" height="20">
<circle cx="19.9987" cy="20.0007" r="9.16667" fill="#D9D9D9"/>
</mask>
<g mask="url(#mask0_3844_18349)">
<rect x="10" y="10" width="20" height="20" fill="#F8F9FE"/>
</g>
<path fill-rule="evenodd" clip-rule="evenodd" d="M18.0274 19.0108C18.0274 18.5505 18.4005 18.1774 18.8607 18.1774H19.9997C20.4599 18.1774 20.833 18.5505 20.833 19.0108V22.8914H21.8379C22.2981 22.8914 22.6712 23.2645 22.6712 23.7247C22.6712 24.185 22.2981 24.5581 21.8379 24.5581H18.1615C17.7012 24.5581 17.3281 24.185 17.3281 23.7247C17.3281 23.2645 17.7012 22.8914 18.1615 22.8914H19.1664V19.8441H18.8607C18.4005 19.8441 18.0274 19.471 18.0274 19.0108Z" fill="#181A20"/>
<path d="M21.0269 16.5318C21.0269 17.134 20.5387 17.6222 19.9365 17.6222C19.3342 17.6222 18.8461 17.134 18.8461 16.5318C18.8461 15.9296 19.3342 15.4414 19.9365 15.4414C20.5387 15.4414 21.0269 15.9296 21.0269 16.5318Z" fill="#181A20"/>
</g>
<defs>
<clipPath id="clip0_3844_18349">
<rect width="20" height="20" fill="white" transform="translate(10 10)"/>
</clipPath>
</defs>
</svg>
