<svg width="346" height="482" viewBox="0 0 346 482" fill="none" xmlns="http://www.w3.org/2000/svg">
<g clip-path="url(#clip0_2903_23497)">
<path d="M136.27 166.921C136.27 155.93 145.179 147.021 156.17 147.021H190.995C201.985 147.021 210.895 155.93 210.895 166.921V201.746C210.895 212.736 201.985 221.646 190.995 221.646H156.17C145.179 221.646 136.27 212.736 136.27 201.746V166.921Z" fill="url(#paint0_linear_2903_23497)"/>
<circle cx="173.584" cy="119.953" r="19.9" fill="url(#paint1_linear_2903_23497)"/>
<rect x="155.146" y="101.688" width="36.5309" height="36.5307" rx="18.2653" fill="#181A20"/>
<rect x="155.146" y="101.688" width="36.5309" height="36.5307" rx="18.2653" stroke="url(#paint2_linear_2903_23497)" stroke-width="3.26931"/>
<g clip-path="url(#clip1_2903_23497)">
<mask id="mask0_2903_23497" style="mask-type:alpha" maskUnits="userSpaceOnUse" x="168" y="111" width="14" height="17">
<path d="M180.655 118.668C181.617 119.287 181.617 120.619 180.655 121.238L170.711 127.637C169.609 128.347 168.109 127.606 168.109 126.352L168.109 113.554C168.109 112.3 169.609 111.56 170.711 112.269L180.655 118.668Z" fill="#B4DBFF"/>
</mask>
<g mask="url(#mask0_2903_23497)">
<rect x="165.453" y="111.993" width="15.9203" height="15.92" fill="url(#paint3_linear_2903_23497)"/>
</g>
</g>
<g style="mix-blend-mode:color-dodge">
<ellipse cx="181.5" cy="104.659" rx="14.5" ry="15.1591" fill="url(#paint4_diamond_2903_23497)"/>
</g>
<g style="mix-blend-mode:color-dodge">
<ellipse cx="169.5" cy="113.659" rx="14.5" ry="15.1591" fill="url(#paint5_diamond_2903_23497)"/>
</g>
<g clip-path="url(#clip2_2903_23497)">
<path d="M187.561 119.625C187.561 127.39 181.265 133.686 173.5 133.686C165.735 133.686 159.439 127.39 159.439 119.625C159.439 111.86 165.735 105.564 173.5 105.564C181.265 105.564 187.561 111.86 187.561 119.625Z" fill="url(#paint6_linear_2903_23497)" stroke="#FFE392" stroke-width="0.878788"/>
<path fill-rule="evenodd" clip-rule="evenodd" d="M181.505 119.032C181.323 119.073 181.198 119.097 181.075 119.129C180.31 119.33 179.538 119.488 178.741 119.458C177.675 119.417 176.76 118.989 175.952 118.298C175.626 118.018 175.323 117.709 175.012 117.412C174.86 117.269 174.824 117.106 174.939 116.919L175.234 116.441L175.631 116.878C176.205 117.514 176.819 118.093 177.628 118.402C178.423 118.705 179.232 118.661 180.045 118.524C181.194 118.332 182.255 117.872 183.296 117.357C183.33 117.339 183.368 117.329 183.469 117.289C183.4 117.418 183.362 117.495 183.318 117.568C181.799 120.122 180.281 122.675 178.76 125.228C178.573 125.542 178.503 125.565 178.179 125.407C176.035 124.354 173.789 124.154 171.471 124.552C171.108 124.615 171.044 124.584 170.871 124.212C170.682 123.806 170.683 123.817 171.112 123.735C172.306 123.502 173.529 123.452 174.739 123.587C175.871 123.714 176.999 123.881 178.038 124.414C178.186 124.491 178.265 124.426 178.339 124.303C178.998 123.203 179.657 122.103 180.32 121.004C180.674 120.416 181.035 119.833 181.392 119.246C181.422 119.195 181.447 119.142 181.505 119.032V119.032ZM165.506 119.142C165.658 119.398 165.81 119.655 165.965 119.91L169.013 124.967C169.158 125.208 169.158 125.216 168.907 125.331C168.366 125.58 168.433 125.644 168.102 125.091C166.933 123.129 165.766 121.165 164.599 119.202L163.653 117.611C163.607 117.536 163.571 117.455 163.531 117.376L163.567 117.329C163.7 117.387 163.834 117.443 163.965 117.504C164.766 117.879 165.575 118.227 166.432 118.439C167.532 118.712 168.619 118.744 169.667 118.221C170.32 117.896 170.857 117.416 171.341 116.87C172.116 115.993 172.745 115.009 173.315 113.983L173.454 113.734C173.529 113.847 173.577 113.932 173.638 114.006C173.972 114.416 173.893 114.78 173.611 115.204C172.983 116.15 172.349 117.088 171.512 117.856C170.763 118.543 169.924 119.061 168.938 119.298C168.164 119.484 167.386 119.446 166.61 119.302C166.255 119.236 165.901 119.162 165.547 119.091L165.506 119.142V119.142Z" fill="#0F1529"/>
</g>
</g>
<path d="M68.2912 239.875V226.784H73.2003C74.206 226.784 75.0497 226.959 75.7315 227.308C76.4176 227.658 76.9354 228.148 77.2848 228.778C77.6385 229.405 77.8153 230.136 77.8153 230.971C77.8153 231.81 77.6364 232.539 77.2784 233.157C76.9247 233.771 76.4027 234.246 75.7124 234.582C75.022 234.915 74.174 235.081 73.1683 235.081H69.6719V233.112H72.8487C73.4368 233.112 73.9183 233.031 74.2933 232.869C74.6683 232.703 74.9453 232.462 75.1243 232.147C75.3075 231.827 75.3991 231.435 75.3991 230.971C75.3991 230.506 75.3075 230.11 75.1243 229.782C74.9411 229.45 74.6619 229.198 74.2869 229.028C73.9119 228.853 73.4283 228.766 72.8359 228.766H70.6626V239.875H68.2912ZM75.054 233.943L78.2947 239.875H75.6484L72.4652 233.943H75.054ZM84.1019 240.067C83.1175 240.067 82.2674 239.862 81.5515 239.453C80.8398 239.04 80.2923 238.456 79.9087 237.702C79.5252 236.943 79.3335 236.05 79.3335 235.023C79.3335 234.013 79.5252 233.127 79.9087 232.364C80.2965 231.597 80.8377 231.001 81.5323 230.575C82.2269 230.144 83.043 229.929 83.9805 229.929C84.5856 229.929 85.1566 230.027 85.6935 230.223C86.2347 230.415 86.712 230.713 87.1254 231.118C87.543 231.523 87.8711 232.038 88.1097 232.665C88.3484 233.287 88.4677 234.028 88.4677 234.889V235.599H80.4201V234.039H86.2496C86.2454 233.596 86.1495 233.202 85.962 232.857C85.7745 232.507 85.5124 232.232 85.1758 232.032C84.8434 231.832 84.4556 231.732 84.0124 231.732C83.5394 231.732 83.1239 231.847 82.766 232.077C82.408 232.303 82.1289 232.601 81.9286 232.972C81.7326 233.338 81.6325 233.741 81.6282 234.18V235.541C81.6282 236.112 81.7326 236.602 81.9414 237.011C82.1502 237.416 82.4421 237.727 82.8171 237.945C83.1921 238.158 83.631 238.264 84.1339 238.264C84.4705 238.264 84.7752 238.217 85.0479 238.124C85.3207 238.026 85.5572 237.883 85.7575 237.695C85.9577 237.508 86.109 237.276 86.2113 236.999L88.3718 237.241C88.2354 237.812 87.9755 238.311 87.592 238.737C87.2127 239.159 86.7269 239.487 86.1346 239.722C85.5423 239.952 84.8647 240.067 84.1019 240.067ZM94.6951 243.761C93.8642 243.761 93.1504 243.648 92.5538 243.423C91.9572 243.201 91.4778 242.903 91.1156 242.528C90.7534 242.153 90.502 241.737 90.3613 241.281L92.4451 240.776C92.5389 240.968 92.6752 241.158 92.8542 241.345C93.0332 241.537 93.274 241.695 93.5765 241.818C93.8833 241.946 94.269 242.01 94.7335 242.01C95.3897 242.01 95.9331 241.85 96.3635 241.531C96.7939 241.215 97.0091 240.695 97.0091 239.971V238.111H96.894C96.7747 238.349 96.6 238.594 96.3699 238.846C96.144 239.097 95.8436 239.308 95.4686 239.479C95.0978 239.649 94.6312 239.734 94.0687 239.734C93.3145 239.734 92.6305 239.558 92.0169 239.204C91.4075 238.846 90.9217 238.313 90.5595 237.606C90.2015 236.894 90.0225 236.004 90.0225 234.934C90.0225 233.856 90.2015 232.946 90.5595 232.205C90.9217 231.459 91.4096 230.894 92.0233 230.511C92.6369 230.123 93.3208 229.929 94.0751 229.929C94.6504 229.929 95.1234 230.027 95.4941 230.223C95.8691 230.415 96.1674 230.647 96.389 230.92C96.6106 231.188 96.7789 231.442 96.894 231.68H97.0218V230.057H99.3038V240.035C99.3038 240.874 99.1035 241.569 98.7029 242.119C98.3024 242.668 97.7548 243.08 97.0602 243.352C96.3656 243.625 95.5772 243.761 94.6951 243.761ZM94.7143 237.919C95.2044 237.919 95.622 237.8 95.9672 237.561C96.3123 237.322 96.5744 236.979 96.7534 236.532C96.9324 236.085 97.0218 235.548 97.0218 234.921C97.0218 234.303 96.9324 233.762 96.7534 233.298C96.5787 232.833 96.3187 232.473 95.9735 232.217C95.6326 231.957 95.2129 231.827 94.7143 231.827C94.1987 231.827 93.7683 231.962 93.4231 232.23C93.0779 232.499 92.818 232.867 92.6433 233.336C92.4686 233.8 92.3812 234.329 92.3812 234.921C92.3812 235.522 92.4686 236.048 92.6433 236.5C92.8223 236.947 93.0843 237.297 93.4295 237.548C93.7789 237.795 94.2072 237.919 94.7143 237.919ZM101.675 239.875V230.057H103.989V239.875H101.675ZM102.839 228.663C102.472 228.663 102.157 228.542 101.893 228.299C101.628 228.052 101.496 227.756 101.496 227.411C101.496 227.061 101.628 226.765 101.893 226.522C102.157 226.275 102.472 226.151 102.839 226.151C103.209 226.151 103.525 226.275 103.785 226.522C104.049 226.765 104.181 227.061 104.181 227.411C104.181 227.756 104.049 228.052 103.785 228.299C103.525 228.542 103.209 228.663 102.839 228.663ZM114.129 232.652L112.019 232.882C111.96 232.669 111.855 232.469 111.706 232.281C111.561 232.094 111.365 231.942 111.118 231.827C110.871 231.712 110.568 231.655 110.21 231.655C109.729 231.655 109.324 231.759 108.996 231.968C108.672 232.177 108.512 232.447 108.516 232.78C108.512 233.065 108.616 233.298 108.83 233.477C109.047 233.656 109.405 233.803 109.903 233.918L111.578 234.276C112.507 234.476 113.197 234.793 113.649 235.228C114.105 235.663 114.335 236.232 114.339 236.935C114.335 237.553 114.154 238.098 113.796 238.571C113.442 239.04 112.95 239.406 112.32 239.67C111.689 239.935 110.964 240.067 110.146 240.067C108.945 240.067 107.977 239.815 107.244 239.312C106.511 238.805 106.075 238.1 105.934 237.197L108.19 236.979C108.293 237.423 108.51 237.757 108.842 237.983C109.175 238.209 109.607 238.322 110.14 238.322C110.69 238.322 111.131 238.209 111.463 237.983C111.8 237.757 111.968 237.478 111.968 237.146C111.968 236.864 111.859 236.632 111.642 236.449C111.429 236.266 111.097 236.125 110.645 236.027L108.97 235.675C108.028 235.479 107.332 235.149 106.88 234.685C106.428 234.216 106.205 233.624 106.209 232.908C106.205 232.303 106.369 231.778 106.701 231.335C107.038 230.888 107.504 230.543 108.101 230.3C108.702 230.053 109.394 229.929 110.178 229.929C111.329 229.929 112.234 230.174 112.895 230.664C113.56 231.154 113.971 231.817 114.129 232.652ZM121.15 230.057V231.847H115.506V230.057H121.15ZM116.9 227.705H119.213V236.922C119.213 237.233 119.26 237.472 119.354 237.638C119.452 237.8 119.58 237.911 119.738 237.97C119.895 238.03 120.07 238.06 120.262 238.06C120.407 238.06 120.539 238.049 120.658 238.028C120.782 238.006 120.875 237.987 120.939 237.97L121.329 239.779C121.206 239.822 121.029 239.869 120.799 239.92C120.573 239.971 120.296 240.001 119.968 240.009C119.388 240.026 118.866 239.939 118.402 239.747C117.937 239.551 117.569 239.249 117.296 238.839C117.027 238.43 116.895 237.919 116.9 237.305V227.705ZM123.085 239.875V230.057H125.329V231.693H125.431C125.61 231.126 125.917 230.69 126.352 230.383C126.791 230.072 127.291 229.916 127.854 229.916C127.982 229.916 128.124 229.923 128.282 229.935C128.444 229.944 128.578 229.959 128.685 229.98V232.109C128.587 232.075 128.431 232.045 128.218 232.019C128.009 231.989 127.807 231.974 127.611 231.974C127.189 231.974 126.81 232.066 126.473 232.249C126.141 232.428 125.879 232.678 125.687 232.997C125.495 233.317 125.399 233.685 125.399 234.103V239.875H123.085ZM132.872 240.073C132.249 240.073 131.689 239.962 131.191 239.741C130.696 239.515 130.304 239.183 130.014 238.744C129.729 238.305 129.586 237.763 129.586 237.12C129.586 236.566 129.688 236.108 129.893 235.746C130.097 235.384 130.377 235.094 130.73 234.876C131.084 234.659 131.482 234.495 131.926 234.384C132.373 234.269 132.835 234.186 133.313 234.135C133.888 234.075 134.355 234.022 134.713 233.975C135.07 233.924 135.33 233.847 135.492 233.745C135.659 233.638 135.742 233.474 135.742 233.253V233.214C135.742 232.733 135.599 232.36 135.313 232.096C135.028 231.832 134.617 231.7 134.08 231.7C133.513 231.7 133.063 231.823 132.731 232.07C132.403 232.317 132.181 232.609 132.066 232.946L129.906 232.639C130.076 232.043 130.357 231.544 130.749 231.143C131.142 230.739 131.621 230.436 132.188 230.236C132.754 230.031 133.381 229.929 134.067 229.929C134.54 229.929 135.011 229.984 135.48 230.095C135.948 230.206 136.377 230.389 136.764 230.645C137.152 230.896 137.463 231.239 137.698 231.674C137.936 232.109 138.056 232.652 138.056 233.304V239.875H135.831V238.526H135.754C135.614 238.799 135.416 239.055 135.16 239.293C134.909 239.528 134.591 239.717 134.208 239.862C133.828 240.003 133.383 240.073 132.872 240.073ZM133.472 238.373C133.937 238.373 134.34 238.281 134.681 238.098C135.021 237.911 135.284 237.663 135.467 237.357C135.654 237.05 135.748 236.715 135.748 236.353V235.196C135.676 235.256 135.552 235.311 135.377 235.362C135.207 235.413 135.015 235.458 134.802 235.496C134.589 235.535 134.378 235.569 134.169 235.599C133.96 235.629 133.779 235.654 133.626 235.675C133.281 235.722 132.972 235.799 132.699 235.906C132.426 236.012 132.211 236.161 132.053 236.353C131.896 236.54 131.817 236.783 131.817 237.082C131.817 237.508 131.972 237.83 132.284 238.047C132.595 238.264 132.991 238.373 133.472 238.373ZM145.285 230.057V231.847H139.641V230.057H145.285ZM141.034 227.705H143.348V236.922C143.348 237.233 143.395 237.472 143.489 237.638C143.587 237.8 143.715 237.911 143.872 237.97C144.03 238.03 144.205 238.06 144.396 238.06C144.541 238.06 144.673 238.049 144.793 238.028C144.916 238.006 145.01 237.987 145.074 237.97L145.464 239.779C145.34 239.822 145.164 239.869 144.933 239.92C144.708 239.971 144.431 240.001 144.102 240.009C143.523 240.026 143.001 239.939 142.536 239.747C142.072 239.551 141.703 239.249 141.431 238.839C141.162 238.43 141.03 237.919 141.034 237.305V227.705ZM147.22 239.875V230.057H149.534V239.875H147.22ZM148.384 228.663C148.017 228.663 147.702 228.542 147.438 228.299C147.173 228.052 147.041 227.756 147.041 227.411C147.041 227.061 147.173 226.765 147.438 226.522C147.702 226.275 148.017 226.151 148.384 226.151C148.754 226.151 149.07 226.275 149.33 226.522C149.594 226.765 149.726 227.061 149.726 227.411C149.726 227.756 149.594 228.052 149.33 228.299C149.07 228.542 148.754 228.663 148.384 228.663ZM156.196 240.067C155.237 240.067 154.406 239.856 153.703 239.434C153 239.012 152.455 238.422 152.067 237.663C151.683 236.905 151.492 236.018 151.492 235.004C151.492 233.99 151.683 233.102 152.067 232.339C152.455 231.576 153 230.984 153.703 230.562C154.406 230.14 155.237 229.929 156.196 229.929C157.155 229.929 157.986 230.14 158.689 230.562C159.392 230.984 159.936 231.576 160.319 232.339C160.707 233.102 160.901 233.99 160.901 235.004C160.901 236.018 160.707 236.905 160.319 237.663C159.936 238.422 159.392 239.012 158.689 239.434C157.986 239.856 157.155 240.067 156.196 240.067ZM156.209 238.213C156.729 238.213 157.164 238.07 157.513 237.785C157.862 237.495 158.122 237.107 158.293 236.621C158.468 236.136 158.555 235.594 158.555 234.998C158.555 234.397 158.468 233.854 158.293 233.368C158.122 232.878 157.862 232.488 157.513 232.198C157.164 231.908 156.729 231.763 156.209 231.763C155.676 231.763 155.233 231.908 154.879 232.198C154.53 232.488 154.268 232.878 154.093 233.368C153.923 233.854 153.838 234.397 153.838 234.998C153.838 235.594 153.923 236.136 154.093 236.621C154.268 237.107 154.53 237.495 154.879 237.785C155.233 238.07 155.676 238.213 156.209 238.213ZM165.179 234.122V239.875H162.865V230.057H165.076V231.725H165.191C165.417 231.175 165.777 230.739 166.272 230.415C166.77 230.091 167.386 229.929 168.119 229.929C168.797 229.929 169.387 230.074 169.89 230.364C170.397 230.653 170.789 231.073 171.066 231.623C171.347 232.173 171.485 232.839 171.481 233.624V239.875H169.167V233.982C169.167 233.325 168.997 232.812 168.656 232.441C168.319 232.07 167.853 231.885 167.256 231.885C166.851 231.885 166.491 231.974 166.176 232.153C165.865 232.328 165.62 232.582 165.441 232.914C165.266 233.246 165.179 233.649 165.179 234.122ZM189.606 231.201H187.215C187.147 230.809 187.021 230.462 186.838 230.159C186.655 229.852 186.427 229.592 186.154 229.379C185.881 229.166 185.57 229.006 185.221 228.9C184.876 228.789 184.503 228.734 184.102 228.734C183.391 228.734 182.76 228.913 182.21 229.271C181.661 229.624 181.23 230.144 180.919 230.83C180.608 231.512 180.452 232.345 180.452 233.33C180.452 234.331 180.608 235.175 180.919 235.861C181.234 236.543 181.665 237.058 182.21 237.408C182.76 237.753 183.388 237.925 184.096 237.925C184.488 237.925 184.854 237.874 185.195 237.772C185.54 237.665 185.849 237.51 186.122 237.305C186.399 237.101 186.631 236.849 186.819 236.551C187.011 236.253 187.143 235.912 187.215 235.528L189.606 235.541C189.516 236.163 189.322 236.747 189.024 237.293C188.73 237.838 188.344 238.32 187.867 238.737C187.39 239.151 186.832 239.474 186.192 239.709C185.553 239.939 184.844 240.054 184.064 240.054C182.913 240.054 181.886 239.788 180.983 239.255C180.08 238.722 179.368 237.953 178.848 236.947C178.328 235.942 178.068 234.736 178.068 233.33C178.068 231.919 178.33 230.713 178.854 229.712C179.379 228.706 180.092 227.937 180.996 227.404C181.899 226.871 182.922 226.605 184.064 226.605C184.793 226.605 185.47 226.707 186.097 226.912C186.723 227.116 187.281 227.417 187.771 227.813C188.261 228.205 188.664 228.687 188.979 229.258C189.299 229.825 189.508 230.472 189.606 231.201ZM195.958 240.067C194.999 240.067 194.168 239.856 193.465 239.434C192.762 239.012 192.216 238.422 191.829 237.663C191.445 236.905 191.253 236.018 191.253 235.004C191.253 233.99 191.445 233.102 191.829 232.339C192.216 231.576 192.762 230.984 193.465 230.562C194.168 230.14 194.999 229.929 195.958 229.929C196.917 229.929 197.748 230.14 198.451 230.562C199.154 230.984 199.697 231.576 200.081 232.339C200.469 233.102 200.662 233.99 200.662 235.004C200.662 236.018 200.469 236.905 200.081 237.663C199.697 238.422 199.154 239.012 198.451 239.434C197.748 239.856 196.917 240.067 195.958 240.067ZM195.971 238.213C196.491 238.213 196.925 238.07 197.275 237.785C197.624 237.495 197.884 237.107 198.055 236.621C198.229 236.136 198.317 235.594 198.317 234.998C198.317 234.397 198.229 233.854 198.055 233.368C197.884 232.878 197.624 232.488 197.275 232.198C196.925 231.908 196.491 231.763 195.971 231.763C195.438 231.763 194.995 231.908 194.641 232.198C194.292 232.488 194.03 232.878 193.855 233.368C193.684 233.854 193.599 234.397 193.599 234.998C193.599 235.594 193.684 236.136 193.855 236.621C194.03 237.107 194.292 237.495 194.641 237.785C194.995 238.07 195.438 238.213 195.971 238.213ZM202.626 239.875V230.057H204.838V231.725H204.953C205.158 231.163 205.496 230.724 205.969 230.408C206.442 230.089 207.007 229.929 207.663 229.929C208.328 229.929 208.888 230.091 209.344 230.415C209.805 230.734 210.129 231.171 210.316 231.725H210.418C210.636 231.18 211.002 230.745 211.518 230.421C212.038 230.093 212.653 229.929 213.365 229.929C214.268 229.929 215.006 230.214 215.577 230.786C216.148 231.357 216.433 232.19 216.433 233.285V239.875H214.113V233.643C214.113 233.033 213.951 232.588 213.627 232.307C213.303 232.021 212.907 231.879 212.438 231.879C211.88 231.879 211.443 232.053 211.128 232.403C210.817 232.748 210.661 233.197 210.661 233.751V239.875H208.392V233.547C208.392 233.04 208.239 232.635 207.932 232.332C207.629 232.03 207.233 231.879 206.743 231.879C206.411 231.879 206.108 231.964 205.835 232.134C205.563 232.3 205.345 232.537 205.183 232.844C205.021 233.146 204.94 233.5 204.94 233.905V239.875H202.626ZM218.781 243.557V230.057H221.056V231.68H221.191C221.31 231.442 221.478 231.188 221.695 230.92C221.913 230.647 222.207 230.415 222.578 230.223C222.948 230.027 223.421 229.929 223.997 229.929C224.755 229.929 225.439 230.123 226.048 230.511C226.662 230.894 227.148 231.463 227.506 232.217C227.868 232.967 228.049 233.888 228.049 234.979C228.049 236.057 227.872 236.973 227.519 237.727C227.165 238.482 226.683 239.057 226.074 239.453C225.465 239.849 224.774 240.048 224.003 240.048C223.441 240.048 222.974 239.954 222.603 239.766C222.232 239.579 221.934 239.353 221.708 239.089C221.487 238.82 221.314 238.567 221.191 238.328H221.095V243.557H218.781ZM221.05 234.966C221.05 235.601 221.139 236.157 221.318 236.634C221.502 237.112 221.764 237.484 222.105 237.753C222.45 238.017 222.867 238.149 223.357 238.149C223.869 238.149 224.297 238.013 224.642 237.74C224.987 237.463 225.247 237.086 225.422 236.609C225.601 236.127 225.691 235.58 225.691 234.966C225.691 234.357 225.603 233.815 225.428 233.342C225.254 232.869 224.994 232.499 224.649 232.23C224.303 231.962 223.873 231.827 223.357 231.827C222.863 231.827 222.443 231.957 222.098 232.217C221.753 232.477 221.491 232.842 221.312 233.31C221.137 233.779 221.05 234.331 221.05 234.966ZM232.345 226.784V239.875H230.031V226.784H232.345ZM239.071 240.067C238.086 240.067 237.236 239.862 236.52 239.453C235.809 239.04 235.261 238.456 234.877 237.702C234.494 236.943 234.302 236.05 234.302 235.023C234.302 234.013 234.494 233.127 234.877 232.364C235.265 231.597 235.806 231.001 236.501 230.575C237.196 230.144 238.012 229.929 238.949 229.929C239.554 229.929 240.125 230.027 240.662 230.223C241.203 230.415 241.681 230.713 242.094 231.118C242.512 231.523 242.84 232.038 243.078 232.665C243.317 233.287 243.436 234.028 243.436 234.889V235.599H235.389V234.039H241.218C241.214 233.596 241.118 233.202 240.931 232.857C240.743 232.507 240.481 232.232 240.145 232.032C239.812 231.832 239.424 231.732 238.981 231.732C238.508 231.732 238.093 231.847 237.735 232.077C237.377 232.303 237.098 232.601 236.897 232.972C236.701 233.338 236.601 233.741 236.597 234.18V235.541C236.597 236.112 236.701 236.602 236.91 237.011C237.119 237.416 237.411 237.727 237.786 237.945C238.161 238.158 238.6 238.264 239.103 238.264C239.439 238.264 239.744 238.217 240.017 238.124C240.289 238.026 240.526 237.883 240.726 237.695C240.926 237.508 241.078 237.276 241.18 236.999L243.341 237.241C243.204 237.812 242.944 238.311 242.561 238.737C242.181 239.159 241.696 239.487 241.103 239.722C240.511 239.952 239.833 240.067 239.071 240.067ZM250.297 230.057V231.847H244.653V230.057H250.297ZM246.046 227.705H248.36V236.922C248.36 237.233 248.407 237.472 248.501 237.638C248.599 237.8 248.726 237.911 248.884 237.97C249.042 238.03 249.216 238.06 249.408 238.06C249.553 238.06 249.685 238.049 249.805 238.028C249.928 238.006 250.022 237.987 250.086 237.97L250.476 239.779C250.352 239.822 250.175 239.869 249.945 239.92C249.719 239.971 249.442 240.001 249.114 240.009C248.535 240.026 248.013 239.939 247.548 239.747C247.084 239.551 246.715 239.249 246.442 238.839C246.174 238.43 246.042 237.919 246.046 237.305V227.705ZM256.473 240.067C255.489 240.067 254.638 239.862 253.923 239.453C253.211 239.04 252.663 238.456 252.28 237.702C251.896 236.943 251.705 236.05 251.705 235.023C251.705 234.013 251.896 233.127 252.28 232.364C252.668 231.597 253.209 231.001 253.903 230.575C254.598 230.144 255.414 229.929 256.352 229.929C256.957 229.929 257.528 230.027 258.065 230.223C258.606 230.415 259.083 230.713 259.496 231.118C259.914 231.523 260.242 232.038 260.481 232.665C260.719 233.287 260.839 234.028 260.839 234.889V235.599H252.791V234.039H258.621C258.616 233.596 258.521 233.202 258.333 232.857C258.146 232.507 257.884 232.232 257.547 232.032C257.214 231.832 256.827 231.732 256.384 231.732C255.911 231.732 255.495 231.847 255.137 232.077C254.779 232.303 254.5 232.601 254.3 232.972C254.104 233.338 254.004 233.741 253.999 234.18V235.541C253.999 236.112 254.104 236.602 254.312 237.011C254.521 237.416 254.813 237.727 255.188 237.945C255.563 238.158 256.002 238.264 256.505 238.264C256.842 238.264 257.146 238.217 257.419 238.124C257.692 238.026 257.928 237.883 258.129 237.695C258.329 237.508 258.48 237.276 258.582 236.999L260.743 237.241C260.607 237.812 260.347 238.311 259.963 238.737C259.584 239.159 259.098 239.487 258.506 239.722C257.913 239.952 257.236 240.067 256.473 240.067ZM266.44 240.048C265.669 240.048 264.978 239.849 264.369 239.453C263.759 239.057 263.278 238.482 262.924 237.727C262.57 236.973 262.394 236.057 262.394 234.979C262.394 233.888 262.573 232.967 262.931 232.217C263.293 231.463 263.781 230.894 264.394 230.511C265.008 230.123 265.692 229.929 266.446 229.929C267.021 229.929 267.494 230.027 267.865 230.223C268.236 230.415 268.53 230.647 268.747 230.92C268.965 231.188 269.133 231.442 269.252 231.68H269.348V226.784H271.669V239.875H269.393V238.328H269.252C269.133 238.567 268.96 238.82 268.735 239.089C268.509 239.353 268.21 239.579 267.84 239.766C267.469 239.954 267.002 240.048 266.44 240.048ZM267.085 238.149C267.575 238.149 267.993 238.017 268.338 237.753C268.683 237.484 268.945 237.112 269.124 236.634C269.303 236.157 269.393 235.601 269.393 234.966C269.393 234.331 269.303 233.779 269.124 233.31C268.95 232.842 268.69 232.477 268.345 232.217C268.004 231.957 267.584 231.827 267.085 231.827C266.57 231.827 266.139 231.962 265.794 232.23C265.449 232.499 265.189 232.869 265.014 233.342C264.84 233.815 264.752 234.357 264.752 234.966C264.752 235.58 264.84 236.127 265.014 236.609C265.193 237.086 265.455 237.463 265.801 237.74C266.15 238.013 266.578 238.149 267.085 238.149ZM276.966 226.784L276.755 236.027H274.697L274.492 226.784H276.966ZM275.726 240.016C275.338 240.016 275.006 239.879 274.729 239.607C274.456 239.334 274.32 239.001 274.32 238.609C274.32 238.226 274.456 237.898 274.729 237.625C275.006 237.352 275.338 237.216 275.726 237.216C276.105 237.216 276.433 237.352 276.71 237.625C276.991 237.898 277.132 238.226 277.132 238.609C277.132 238.869 277.066 239.106 276.934 239.319C276.806 239.532 276.636 239.702 276.423 239.83C276.214 239.954 275.982 240.016 275.726 240.016Z" fill="white"/>
<path d="M137.272 271.33H145.446V292.27C145.436 294.259 144.934 296.009 143.939 297.52C142.955 299.021 141.593 300.195 139.853 301.04C138.123 301.875 136.129 302.293 133.872 302.293C131.913 302.293 130.123 301.955 128.503 301.278C126.882 300.592 125.589 299.518 124.625 298.057C123.66 296.585 123.183 294.676 123.193 292.33H131.486C131.515 293.095 131.645 293.741 131.873 294.268C132.112 294.795 132.44 295.193 132.858 295.462C133.285 295.72 133.802 295.849 134.409 295.849C135.025 295.849 135.542 295.715 135.96 295.447C136.388 295.178 136.711 294.781 136.929 294.254C137.148 293.717 137.263 293.055 137.272 292.27V271.33ZM160.952 302.293C158.466 302.293 156.338 301.8 154.569 300.816C152.799 299.822 151.441 298.44 150.497 296.67C149.552 294.89 149.08 292.827 149.08 290.48C149.08 288.134 149.552 286.075 150.497 284.305C151.441 282.526 152.799 281.143 154.569 280.159C156.338 279.165 158.466 278.668 160.952 278.668C163.438 278.668 165.566 279.165 167.336 280.159C169.105 281.143 170.463 282.526 171.407 284.305C172.352 286.075 172.824 288.134 172.824 290.48C172.824 292.827 172.352 294.89 171.407 296.67C170.463 298.44 169.105 299.822 167.336 300.816C165.566 301.8 163.438 302.293 160.952 302.293ZM161.012 296.207C161.708 296.207 162.309 295.974 162.816 295.506C163.324 295.039 163.716 294.373 163.995 293.508C164.273 292.643 164.412 291.614 164.412 290.42C164.412 289.217 164.273 288.188 163.995 287.333C163.716 286.468 163.324 285.802 162.816 285.335C162.309 284.867 161.708 284.634 161.012 284.634C160.276 284.634 159.645 284.867 159.118 285.335C158.591 285.802 158.188 286.468 157.909 287.333C157.631 288.188 157.492 289.217 157.492 290.42C157.492 291.614 157.631 292.643 157.909 293.508C158.188 294.373 158.591 295.039 159.118 295.506C159.645 295.974 160.276 296.207 161.012 296.207ZM176.585 301.875V278.966H184.818V301.875H176.585ZM180.702 276.58C179.588 276.58 178.633 276.212 177.838 275.476C177.043 274.74 176.645 273.855 176.645 272.821C176.645 271.787 177.043 270.902 177.838 270.166C178.633 269.43 179.588 269.062 180.702 269.062C181.825 269.062 182.78 269.43 183.565 270.166C184.361 270.902 184.758 271.787 184.758 272.821C184.758 273.855 184.361 274.74 183.565 275.476C182.78 276.212 181.825 276.58 180.702 276.58ZM197.666 288.989V301.875H189.433V278.966H197.248V283.321H197.487C197.984 281.869 198.859 280.731 200.112 279.906C201.375 279.08 202.846 278.668 204.527 278.668C206.147 278.668 207.554 279.04 208.748 279.786C209.951 280.522 210.88 281.536 211.537 282.829C212.203 284.121 212.531 285.598 212.521 287.259V301.875H204.288V288.989C204.298 287.855 204.01 286.965 203.423 286.319C202.846 285.673 202.041 285.349 201.007 285.349C200.331 285.349 199.739 285.499 199.232 285.797C198.735 286.085 198.352 286.503 198.083 287.05C197.815 287.587 197.676 288.233 197.666 288.989ZM57.7802 333.784H49.3683C49.3087 333.088 49.1496 332.457 48.891 331.89C48.6425 331.323 48.2945 330.836 47.847 330.428C47.4095 330.011 46.8775 329.692 46.2511 329.474C45.6247 329.245 44.9138 329.131 44.1183 329.131C42.7263 329.131 41.548 329.469 40.5835 330.145C39.629 330.821 38.9031 331.79 38.406 333.053C37.9187 334.316 37.6751 335.832 37.6751 337.602C37.6751 339.472 37.9237 341.038 38.4209 342.3C38.928 343.553 39.6588 344.498 40.6133 345.134C41.5679 345.761 42.7163 346.074 44.0587 346.074C44.8243 346.074 45.5104 345.979 46.1169 345.79C46.7234 345.592 47.2504 345.308 47.6979 344.94C48.1453 344.572 48.5082 344.13 48.7866 343.613C49.075 343.086 49.2689 342.494 49.3683 341.838L57.7802 341.898C57.6808 343.19 57.3179 344.508 56.6915 345.85C56.065 347.183 55.1751 348.415 54.0217 349.549C52.8783 350.673 51.4614 351.577 49.771 352.263C48.0807 352.95 46.1169 353.293 43.8797 353.293C41.0757 353.293 38.5601 352.691 36.3328 351.488C34.1155 350.285 32.3605 348.515 31.0679 346.178C29.7852 343.842 29.1439 340.983 29.1439 337.602C29.1439 334.202 29.8001 331.338 31.1126 329.011C32.4251 326.675 34.195 324.91 36.4223 323.717C38.6496 322.513 41.1354 321.912 43.8797 321.912C45.8087 321.912 47.5835 322.175 49.2043 322.702C50.825 323.229 52.2469 324 53.4699 325.014C54.6929 326.018 55.6773 327.256 56.423 328.728C57.1687 330.2 57.6212 331.885 57.7802 333.784ZM73.1187 353.293C70.6329 353.293 68.5051 352.8 66.7352 351.816C64.9653 350.822 63.6081 349.44 62.6635 347.67C61.7189 345.89 61.2466 343.827 61.2466 341.48C61.2466 339.134 61.7189 337.075 62.6635 335.305C63.6081 333.526 64.9653 332.143 66.7352 331.159C68.5051 330.165 70.6329 329.668 73.1187 329.668C75.6045 329.668 77.7324 330.165 79.5023 331.159C81.2722 332.143 82.6294 333.526 83.574 335.305C84.5186 337.075 84.9909 339.134 84.9909 341.48C84.9909 343.827 84.5186 345.89 83.574 347.67C82.6294 349.44 81.2722 350.822 79.5023 351.816C77.7324 352.8 75.6045 353.293 73.1187 353.293ZM73.1784 347.207C73.8744 347.207 74.476 346.974 74.9831 346.506C75.4902 346.039 75.8829 345.373 76.1614 344.508C76.4398 343.643 76.579 342.614 76.579 341.42C76.579 340.217 76.4398 339.188 76.1614 338.333C75.8829 337.468 75.4902 336.802 74.9831 336.335C74.476 335.867 73.8744 335.634 73.1784 335.634C72.4426 335.634 71.8112 335.867 71.2842 336.335C70.7572 336.802 70.3545 337.468 70.0761 338.333C69.7977 339.188 69.6585 340.217 69.6585 341.42C69.6585 342.614 69.7977 343.643 70.0761 344.508C70.3545 345.373 70.7572 346.039 71.2842 346.506C71.8112 346.974 72.4426 347.207 73.1784 347.207ZM103.786 337.602V343.807H89.4677V337.602H103.786ZM108.986 352.875V322.33H130.463V329.011H117.279V334.261H129.151V340.943H117.279V352.875H108.986ZM143.408 353.293C140.922 353.293 138.794 352.8 137.025 351.816C135.255 350.822 133.897 349.44 132.953 347.67C132.008 345.89 131.536 343.827 131.536 341.48C131.536 339.134 132.008 337.075 132.953 335.305C133.897 333.526 135.255 332.143 137.025 331.159C138.794 330.165 140.922 329.668 143.408 329.668C145.894 329.668 148.022 330.165 149.792 331.159C151.561 332.143 152.919 333.526 153.863 335.305C154.808 337.075 155.28 339.134 155.28 341.48C155.28 343.827 154.808 345.89 153.863 347.67C152.919 349.44 151.561 350.822 149.792 351.816C148.022 352.8 145.894 353.293 143.408 353.293ZM143.468 347.207C144.164 347.207 144.765 346.974 145.272 346.506C145.779 346.039 146.172 345.373 146.451 344.508C146.729 343.643 146.868 342.614 146.868 341.42C146.868 340.217 146.729 339.188 146.451 338.333C146.172 337.468 145.779 336.802 145.272 336.335C144.765 335.867 144.164 335.634 143.468 335.634C142.732 335.634 142.101 335.867 141.574 336.335C141.047 336.802 140.644 337.468 140.365 338.333C140.087 339.188 139.948 340.217 139.948 341.42C139.948 342.614 140.087 343.643 140.365 344.508C140.644 345.373 141.047 346.039 141.574 346.506C142.101 346.974 142.732 347.207 143.468 347.207ZM173.896 342.852V329.966H182.129V352.875H174.314V348.52H174.075C173.578 349.982 172.708 351.125 171.465 351.95C170.222 352.766 168.746 353.173 167.035 353.173C165.435 353.173 164.033 352.805 162.829 352.07C161.636 351.334 160.707 350.32 160.04 349.027C159.384 347.734 159.051 346.253 159.041 344.582V329.966H167.274V342.852C167.284 343.986 167.572 344.876 168.139 345.522C168.716 346.168 169.521 346.491 170.555 346.491C171.241 346.491 171.833 346.347 172.33 346.059C172.837 345.761 173.225 345.343 173.494 344.806C173.772 344.259 173.906 343.608 173.896 342.852ZM194.969 339.989V352.875H186.737V329.966H194.552V334.321H194.79C195.288 332.869 196.163 331.731 197.415 330.906C198.678 330.08 200.15 329.668 201.83 329.668C203.451 329.668 204.858 330.04 206.051 330.786C207.254 331.522 208.184 332.536 208.84 333.829C209.506 335.121 209.835 336.598 209.825 338.259V352.875H201.592V339.989C201.602 338.855 201.313 337.965 200.727 337.319C200.15 336.673 199.344 336.349 198.31 336.349C197.634 336.349 197.043 336.499 196.536 336.797C196.038 337.085 195.656 337.503 195.387 338.05C195.119 338.587 194.979 339.233 194.969 339.989ZM222.601 353.173C220.971 353.173 219.469 352.746 218.097 351.891C216.735 351.036 215.641 349.738 214.816 347.998C214.001 346.258 213.593 344.065 213.593 341.42C213.593 338.656 214.02 336.409 214.876 334.679C215.741 332.949 216.854 331.681 218.217 330.876C219.589 330.07 221.03 329.668 222.542 329.668C223.675 329.668 224.67 329.866 225.525 330.264C226.38 330.652 227.096 331.174 227.672 331.83C228.249 332.477 228.687 333.187 228.985 333.963H229.104V322.33H237.337V352.875H229.164V349.116H228.985C228.667 349.892 228.209 350.588 227.613 351.205C227.026 351.811 226.31 352.293 225.465 352.651C224.63 352.999 223.675 353.173 222.601 353.173ZM225.644 346.849C226.4 346.849 227.046 346.631 227.583 346.193C228.13 345.746 228.547 345.119 228.836 344.314C229.134 343.499 229.283 342.534 229.283 341.42C229.283 340.287 229.134 339.317 228.836 338.512C228.547 337.697 228.13 337.075 227.583 336.648C227.046 336.21 226.4 335.991 225.644 335.991C224.888 335.991 224.242 336.21 223.705 336.648C223.178 337.075 222.77 337.697 222.482 338.512C222.204 339.317 222.065 340.287 222.065 341.42C222.065 342.554 222.204 343.528 222.482 344.344C222.77 345.149 223.178 345.771 223.705 346.208C224.242 346.636 224.888 346.849 225.644 346.849ZM252.776 353.293C250.33 353.293 248.222 352.825 246.453 351.891C244.693 350.946 243.335 349.594 242.381 347.834C241.436 346.064 240.964 343.946 240.964 341.48C240.964 339.114 241.441 337.045 242.396 335.276C243.35 333.506 244.698 332.129 246.438 331.144C248.178 330.16 250.231 329.668 252.597 329.668C254.328 329.668 255.894 329.936 257.296 330.473C258.698 331.01 259.896 331.79 260.89 332.815C261.884 333.829 262.65 335.062 263.187 336.513C263.724 337.965 263.992 339.601 263.992 341.42V343.33H243.529V338.795H256.416C256.406 338.139 256.237 337.562 255.909 337.065C255.59 336.558 255.158 336.165 254.611 335.887C254.074 335.599 253.463 335.455 252.776 335.455C252.11 335.455 251.499 335.599 250.942 335.887C250.385 336.165 249.938 336.553 249.6 337.05C249.271 337.548 249.097 338.129 249.078 338.795V343.688C249.078 344.423 249.232 345.08 249.54 345.656C249.848 346.233 250.291 346.685 250.867 347.013C251.444 347.342 252.14 347.506 252.955 347.506C253.522 347.506 254.039 347.426 254.507 347.267C254.984 347.108 255.391 346.879 255.73 346.581C256.068 346.273 256.316 345.905 256.475 345.477H263.992C263.734 347.068 263.122 348.45 262.158 349.624C261.193 350.787 259.916 351.692 258.325 352.338C256.744 352.974 254.894 353.293 252.776 353.293ZM267.772 352.875V329.966H275.766V334.321H276.005C276.422 332.71 277.084 331.532 277.989 330.786C278.903 330.04 279.972 329.668 281.195 329.668C281.553 329.668 281.906 329.697 282.254 329.757C282.612 329.807 282.955 329.881 283.283 329.981V337.006C282.876 336.866 282.373 336.762 281.777 336.692C281.18 336.623 280.668 336.588 280.241 336.588C279.435 336.588 278.709 336.772 278.063 337.14C277.427 337.498 276.925 338.005 276.557 338.661C276.189 339.308 276.005 340.068 276.005 340.943V352.875H267.772ZM293.901 322.33V325.909C293.901 326.884 293.702 327.858 293.305 328.832C292.917 329.797 292.42 330.697 291.813 331.532C291.217 332.357 290.6 333.048 289.964 333.605L286.563 331.875C286.981 331.159 287.354 330.329 287.682 329.384C288.01 328.44 288.174 327.281 288.174 325.909V322.33H293.901ZM316.623 337.423H309.046C309.006 336.956 308.842 336.553 308.554 336.215C308.265 335.877 307.892 335.619 307.435 335.44C306.988 335.251 306.49 335.156 305.944 335.156C305.238 335.156 304.631 335.286 304.124 335.544C303.617 335.803 303.368 336.17 303.378 336.648C303.368 336.986 303.512 337.299 303.811 337.587C304.119 337.876 304.711 338.099 305.586 338.259L310.239 339.094C312.586 339.521 314.331 340.242 315.474 341.256C316.627 342.261 317.209 343.608 317.219 345.298C317.209 346.929 316.722 348.346 315.757 349.549C314.803 350.742 313.495 351.667 311.835 352.323C310.184 352.969 308.3 353.293 306.182 353.293C302.682 353.293 299.943 352.577 297.964 351.145C295.995 349.713 294.897 347.824 294.668 345.477H302.841C302.951 346.203 303.309 346.765 303.915 347.163C304.532 347.55 305.307 347.744 306.242 347.744C306.998 347.744 307.619 347.615 308.106 347.357C308.603 347.098 308.857 346.73 308.867 346.253C308.857 345.815 308.638 345.467 308.211 345.209C307.793 344.95 307.137 344.741 306.242 344.582L302.185 343.866C299.848 343.459 298.098 342.683 296.935 341.54C295.772 340.396 295.195 338.925 295.205 337.125C295.195 335.534 295.613 334.187 296.458 333.083C297.313 331.969 298.531 331.124 300.112 330.548C301.703 329.961 303.587 329.668 305.765 329.668C309.076 329.668 311.686 330.354 313.595 331.726C315.514 333.098 316.523 334.997 316.623 337.423ZM153.329 384.784H144.917C144.858 384.088 144.699 383.457 144.44 382.89C144.192 382.323 143.844 381.836 143.396 381.428C142.959 381.011 142.427 380.692 141.8 380.474C141.174 380.245 140.463 380.131 139.667 380.131C138.275 380.131 137.097 380.469 136.133 381.145C135.178 381.821 134.452 382.79 133.955 384.053C133.468 385.316 133.224 386.832 133.224 388.602C133.224 390.472 133.473 392.038 133.97 393.3C134.477 394.553 135.208 395.498 136.163 396.134C137.117 396.761 138.266 397.074 139.608 397.074C140.373 397.074 141.06 396.979 141.666 396.79C142.273 396.592 142.8 396.308 143.247 395.94C143.694 395.572 144.057 395.13 144.336 394.613C144.624 394.086 144.818 393.494 144.917 392.838L153.329 392.898C153.23 394.19 152.867 395.508 152.241 396.85C151.614 398.183 150.724 399.415 149.571 400.549C148.427 401.673 147.011 402.577 145.32 403.263C143.63 403.95 141.666 404.293 139.429 404.293C136.625 404.293 134.109 403.691 131.882 402.488C129.665 401.285 127.91 399.515 126.617 397.178C125.334 394.842 124.693 391.983 124.693 388.602C124.693 385.202 125.349 382.338 126.662 380.011C127.974 377.675 129.744 375.91 131.971 374.717C134.199 373.513 136.685 372.912 139.429 372.912C141.358 372.912 143.133 373.175 144.753 373.702C146.374 374.229 147.796 375 149.019 376.014C150.242 377.018 151.226 378.256 151.972 379.728C152.718 381.2 153.17 382.885 153.329 384.784ZM165.864 373.33V403.875H157.631V373.33H165.864ZM185.334 393.852V380.966H193.567V403.875H185.751V399.52H185.513C185.016 400.982 184.146 402.125 182.903 402.95C181.66 403.766 180.183 404.173 178.473 404.173C176.872 404.173 175.47 403.805 174.267 403.07C173.074 402.334 172.144 401.32 171.478 400.027C170.822 398.734 170.489 397.253 170.479 395.582V380.966H178.712V393.852C178.722 394.986 179.01 395.876 179.577 396.522C180.153 397.168 180.959 397.491 181.993 397.491C182.679 397.491 183.271 397.347 183.768 397.059C184.275 396.761 184.663 396.343 184.931 395.806C185.21 395.259 185.344 394.608 185.334 393.852ZM198.055 403.875V373.33H206.288V384.963H206.407C206.705 384.187 207.143 383.477 207.72 382.83C208.296 382.174 209.012 381.652 209.867 381.264C210.722 380.866 211.717 380.668 212.85 380.668C214.362 380.668 215.798 381.07 217.161 381.876C218.533 382.681 219.646 383.949 220.502 385.679C221.367 387.409 221.799 389.656 221.799 392.42C221.799 395.065 221.386 397.258 220.561 398.998C219.746 400.738 218.652 402.036 217.28 402.891C215.918 403.746 214.421 404.173 212.791 404.173C211.717 404.173 210.757 403.999 209.912 403.651C209.077 403.293 208.361 402.811 207.764 402.205C207.178 401.588 206.725 400.892 206.407 400.116H206.228V403.875H198.055ZM206.109 392.42C206.109 393.534 206.253 394.499 206.541 395.314C206.84 396.119 207.257 396.746 207.794 397.193C208.341 397.631 208.992 397.849 209.748 397.849C210.504 397.849 211.145 397.636 211.672 397.208C212.209 396.771 212.617 396.149 212.895 395.344C213.183 394.528 213.328 393.554 213.328 392.42C213.328 391.287 213.183 390.317 212.895 389.512C212.617 388.697 212.209 388.075 211.672 387.648C211.145 387.21 210.504 386.991 209.748 386.991C208.992 386.991 208.341 387.21 207.794 387.648C207.257 388.075 206.84 388.697 206.541 389.512C206.253 390.317 206.109 391.287 206.109 392.42Z" fill="url(#paint7_linear_2903_23497)"/>
<line x1="11.5" y1="429.375" x2="334.5" y2="429.375" stroke="url(#paint8_radial_2903_23497)"/>
<path fill-rule="evenodd" clip-rule="evenodd" d="M35.5938 448.742L37.5238 452.625C37.6205 452.821 37.8071 452.957 38.0238 452.989L42.3446 453.613C42.5196 453.637 42.6771 453.728 42.7846 453.868C42.9863 454.131 42.9555 454.502 42.7138 454.728L39.5821 457.757C39.423 457.907 39.3521 458.127 39.3938 458.341L40.1438 462.614C40.1963 462.968 39.9546 463.3 39.6005 463.357C39.4538 463.38 39.3038 463.357 39.1705 463.291L35.3221 461.273C35.1288 461.168 34.8971 461.168 34.7038 461.273L30.8271 463.302C30.503 463.467 30.1063 463.344 29.9296 463.027C29.8621 462.898 29.8388 462.752 29.8621 462.61L30.6121 458.337C30.6496 458.123 30.5788 457.904 30.4238 457.753L27.2755 454.726C27.0188 454.471 27.0171 454.056 27.273 453.799C27.2738 453.798 27.2746 453.797 27.2755 453.796C27.3813 453.7 27.5113 453.636 27.6521 453.611L31.9738 452.987C32.1896 452.952 32.3755 452.817 32.4738 452.622L34.4021 448.742C34.4796 448.585 34.6171 448.464 34.7838 448.409C34.9513 448.353 35.1346 448.367 35.2921 448.446C35.4213 448.51 35.5271 448.614 35.5938 448.742Z" fill="url(#paint9_linear_2903_23497)"/>
<path d="M65.5995 461.375V451.193H66.8325V460.281H71.5654V461.375H65.5995ZM75.9675 451.193V461.375H74.7345V451.193H75.9675ZM79.6996 451.193H81.1712L84.6314 459.645H84.7507L88.211 451.193H89.6825V461.375H88.5291V453.639H88.4297L85.2479 461.375H84.1343L80.9524 453.639H80.853V461.375H79.6996V451.193ZM94.6476 451.193V461.375H93.4147V451.193H94.6476ZM97.8229 452.287V451.193H105.459V452.287H102.258V461.375H101.025V452.287H97.8229ZM108.622 461.375V451.193H114.767V452.287H109.855V455.727H114.449V456.821H109.855V460.281H114.847V461.375H108.622ZM121.391 461.375H118.249V451.193H121.531C122.518 451.193 123.363 451.397 124.066 451.805C124.769 452.209 125.307 452.791 125.682 453.55C126.056 454.305 126.244 455.21 126.244 456.264C126.244 457.325 126.055 458.238 125.677 459.004C125.299 459.766 124.749 460.353 124.026 460.763C123.304 461.171 122.425 461.375 121.391 461.375ZM119.482 460.281H121.312C122.154 460.281 122.851 460.119 123.405 459.794C123.958 459.469 124.371 459.007 124.643 458.407C124.915 457.807 125.05 457.093 125.05 456.264C125.05 455.442 124.916 454.735 124.648 454.141C124.379 453.545 123.978 453.087 123.445 452.769C122.911 452.448 122.247 452.287 121.451 452.287H119.482V460.281ZM134.213 452.287V451.193H141.849V452.287H138.647V461.375H137.414V452.287H134.213ZM153.179 456.284C153.179 457.358 152.985 458.286 152.597 459.068C152.209 459.85 151.677 460.454 151.001 460.878C150.325 461.302 149.553 461.514 148.685 461.514C147.816 461.514 147.044 461.302 146.368 460.878C145.692 460.454 145.16 459.85 144.772 459.068C144.384 458.286 144.19 457.358 144.19 456.284C144.19 455.21 144.384 454.282 144.772 453.5C145.16 452.718 145.692 452.115 146.368 451.69C147.044 451.266 147.816 451.054 148.685 451.054C149.553 451.054 150.325 451.266 151.001 451.69C151.677 452.115 152.209 452.718 152.597 453.5C152.985 454.282 153.179 455.21 153.179 456.284ZM151.986 456.284C151.986 455.402 151.838 454.658 151.543 454.052C151.252 453.445 150.855 452.986 150.355 452.675C149.858 452.363 149.301 452.207 148.685 452.207C148.068 452.207 147.51 452.363 147.009 452.675C146.512 452.986 146.116 453.445 145.821 454.052C145.529 454.658 145.383 455.402 145.383 456.284C145.383 457.166 145.529 457.91 145.821 458.516C146.116 459.123 146.512 459.582 147.009 459.893C147.51 460.205 148.068 460.361 148.685 460.361C149.301 460.361 149.858 460.205 150.355 459.893C150.855 459.582 151.252 459.123 151.543 458.516C151.838 457.91 151.986 457.166 151.986 456.284ZM161.531 461.375V460.48L164.891 456.801C165.286 456.37 165.611 455.996 165.866 455.678C166.121 455.356 166.31 455.054 166.433 454.773C166.558 454.488 166.621 454.189 166.621 453.878C166.621 453.52 166.535 453.21 166.363 452.948C166.194 452.686 165.962 452.484 165.667 452.342C165.372 452.199 165.04 452.128 164.673 452.128C164.281 452.128 163.94 452.209 163.648 452.371C163.36 452.531 163.136 452.754 162.977 453.043C162.821 453.331 162.744 453.669 162.744 454.057H161.57C161.57 453.46 161.708 452.937 161.983 452.486C162.258 452.035 162.633 451.684 163.107 451.432C163.584 451.18 164.119 451.054 164.712 451.054C165.309 451.054 165.838 451.18 166.298 451.432C166.759 451.684 167.12 452.023 167.382 452.451C167.644 452.879 167.775 453.354 167.775 453.878C167.775 454.252 167.707 454.619 167.571 454.977C167.438 455.331 167.206 455.727 166.875 456.165C166.547 456.599 166.091 457.129 165.508 457.756L163.221 460.202V460.281H167.954V461.375H161.531ZM174.588 461.514C173.839 461.514 173.201 461.31 172.674 460.903C172.147 460.492 171.744 459.897 171.466 459.118C171.188 458.336 171.048 457.391 171.048 456.284C171.048 455.184 171.188 454.244 171.466 453.465C171.748 452.683 172.152 452.086 172.679 451.675C173.209 451.261 173.846 451.054 174.588 451.054C175.331 451.054 175.965 451.261 176.492 451.675C177.023 452.086 177.427 452.683 177.705 453.465C177.987 454.244 178.128 455.184 178.128 456.284C178.128 457.391 177.989 458.336 177.71 459.118C177.432 459.897 177.029 460.492 176.502 460.903C175.975 461.31 175.337 461.514 174.588 461.514ZM174.588 460.42C175.331 460.42 175.907 460.062 176.318 459.347C176.729 458.631 176.935 457.61 176.935 456.284C176.935 455.402 176.84 454.652 176.651 454.032C176.466 453.412 176.197 452.94 175.846 452.615C175.498 452.29 175.079 452.128 174.588 452.128C173.852 452.128 173.277 452.491 172.863 453.217C172.449 453.939 172.242 454.962 172.242 456.284C172.242 457.166 172.334 457.915 172.52 458.531C172.706 459.148 172.972 459.617 173.32 459.938C173.672 460.26 174.094 460.42 174.588 460.42ZM184.598 461.514C183.849 461.514 183.211 461.31 182.684 460.903C182.157 460.492 181.754 459.897 181.476 459.118C181.198 458.336 181.058 457.391 181.058 456.284C181.058 455.184 181.198 454.244 181.476 453.465C181.758 452.683 182.162 452.086 182.689 451.675C183.219 451.261 183.856 451.054 184.598 451.054C185.341 451.054 185.975 451.261 186.502 451.675C187.033 452.086 187.437 452.683 187.715 453.465C187.997 454.244 188.138 455.184 188.138 456.284C188.138 457.391 187.999 458.336 187.72 459.118C187.442 459.897 187.039 460.492 186.512 460.903C185.985 461.31 185.347 461.514 184.598 461.514ZM184.598 460.42C185.341 460.42 185.917 460.062 186.328 459.347C186.739 458.631 186.945 457.61 186.945 456.284C186.945 455.402 186.85 454.652 186.661 454.032C186.476 453.412 186.207 452.94 185.856 452.615C185.508 452.29 185.089 452.128 184.598 452.128C183.862 452.128 183.287 452.491 182.873 453.217C182.459 453.939 182.252 454.962 182.252 456.284C182.252 457.166 182.344 457.915 182.53 458.531C182.716 459.148 182.982 459.617 183.33 459.938C183.682 460.26 184.104 460.42 184.598 460.42ZM194.608 461.514C193.859 461.514 193.221 461.31 192.694 460.903C192.167 460.492 191.764 459.897 191.486 459.118C191.208 458.336 191.068 457.391 191.068 456.284C191.068 455.184 191.208 454.244 191.486 453.465C191.768 452.683 192.172 452.086 192.699 451.675C193.229 451.261 193.866 451.054 194.608 451.054C195.351 451.054 195.985 451.261 196.512 451.675C197.043 452.086 197.447 452.683 197.725 453.465C198.007 454.244 198.148 455.184 198.148 456.284C198.148 457.391 198.009 458.336 197.73 459.118C197.452 459.897 197.049 460.492 196.522 460.903C195.995 461.31 195.357 461.514 194.608 461.514ZM194.608 460.42C195.351 460.42 195.927 460.062 196.338 459.347C196.749 458.631 196.955 457.61 196.955 456.284C196.955 455.402 196.86 454.652 196.671 454.032C196.486 453.412 196.217 452.94 195.866 452.615C195.518 452.29 195.099 452.128 194.608 452.128C193.872 452.128 193.297 452.491 192.883 453.217C192.469 453.939 192.262 454.962 192.262 456.284C192.262 457.166 192.354 457.915 192.54 458.531C192.726 459.148 192.992 459.617 193.34 459.938C193.692 460.26 194.114 460.42 194.608 460.42ZM206.674 451.193H208.145L211.605 459.645H211.725L215.185 451.193H216.657V461.375H215.503V453.639H215.404L212.222 461.375H211.108L207.926 453.639H207.827V461.375H206.674V451.193ZM220.389 461.375V451.193H226.534V452.287H221.622V455.727H226.215V456.821H221.622V460.281H226.613V461.375H220.389ZM230.016 451.193H231.487L234.948 459.645H235.067L238.527 451.193H239.999V461.375H238.845V453.639H238.746L235.564 461.375H234.45L231.269 453.639H231.169V461.375H230.016V451.193ZM243.731 461.375V451.193H247.291C248 451.193 248.585 451.316 249.046 451.561C249.506 451.803 249.849 452.129 250.075 452.54C250.3 452.948 250.413 453.401 250.413 453.898C250.413 454.335 250.335 454.696 250.179 454.982C250.027 455.267 249.824 455.492 249.573 455.658C249.324 455.823 249.054 455.946 248.762 456.026V456.125C249.074 456.145 249.387 456.254 249.702 456.453C250.017 456.652 250.28 456.937 250.492 457.308C250.704 457.679 250.81 458.134 250.81 458.67C250.81 459.181 250.694 459.64 250.462 460.048C250.23 460.455 249.864 460.778 249.364 461.017C248.863 461.256 248.212 461.375 247.41 461.375H243.731ZM244.964 460.281H247.41C248.215 460.281 248.787 460.125 249.125 459.814C249.466 459.499 249.637 459.118 249.637 458.67C249.637 458.326 249.549 458.008 249.374 457.716C249.198 457.421 248.948 457.186 248.623 457.01C248.298 456.831 247.914 456.741 247.47 456.741H244.964V460.281ZM244.964 455.668H247.251C247.622 455.668 247.957 455.595 248.255 455.449C248.557 455.303 248.795 455.098 248.971 454.832C249.15 454.567 249.239 454.256 249.239 453.898C249.239 453.45 249.084 453.071 248.772 452.759C248.461 452.444 247.967 452.287 247.291 452.287H244.964V455.668ZM254.096 461.375V451.193H260.241V452.287H255.329V455.727H259.923V456.821H255.329V460.281H260.321V461.375H254.096ZM263.724 461.375V451.193H267.164C267.959 451.193 268.612 451.329 269.123 451.601C269.633 451.869 270.011 452.239 270.256 452.71C270.502 453.18 270.624 453.715 270.624 454.315C270.624 454.915 270.502 455.447 270.256 455.911C270.011 456.375 269.635 456.74 269.128 457.005C268.621 457.267 267.973 457.398 267.184 457.398H264.4V456.284H267.144C267.688 456.284 268.125 456.205 268.457 456.045C268.791 455.886 269.033 455.661 269.182 455.369C269.335 455.074 269.411 454.723 269.411 454.315C269.411 453.908 269.335 453.551 269.182 453.246C269.03 452.942 268.786 452.706 268.452 452.54C268.117 452.371 267.674 452.287 267.124 452.287H264.957V461.375H263.724ZM268.516 456.801L271.022 461.375H269.59L267.124 456.801H268.516ZM279.507 453.739C279.447 453.235 279.205 452.844 278.781 452.565C278.357 452.287 277.836 452.148 277.22 452.148C276.769 452.148 276.375 452.221 276.037 452.366C275.702 452.512 275.44 452.713 275.251 452.968C275.066 453.223 274.973 453.513 274.973 453.838C274.973 454.11 275.037 454.344 275.167 454.539C275.299 454.731 275.468 454.892 275.674 455.021C275.879 455.147 276.095 455.252 276.32 455.335C276.545 455.414 276.753 455.479 276.941 455.528L277.976 455.807C278.241 455.876 278.536 455.973 278.861 456.095C279.189 456.218 279.502 456.385 279.8 456.597C280.102 456.806 280.35 457.075 280.546 457.403C280.741 457.731 280.839 458.134 280.839 458.611C280.839 459.161 280.695 459.658 280.407 460.102C280.122 460.546 279.704 460.899 279.154 461.161C278.607 461.423 277.942 461.554 277.16 461.554C276.431 461.554 275.8 461.436 275.266 461.201C274.736 460.966 274.318 460.638 274.013 460.217C273.712 459.796 273.541 459.307 273.501 458.75H274.774C274.807 459.134 274.936 459.453 275.162 459.705C275.39 459.953 275.679 460.139 276.027 460.261C276.378 460.381 276.756 460.44 277.16 460.44C277.631 460.44 278.053 460.364 278.428 460.212C278.803 460.056 279.099 459.84 279.318 459.565C279.537 459.287 279.646 458.962 279.646 458.591C279.646 458.253 279.552 457.978 279.363 457.766C279.174 457.554 278.925 457.381 278.617 457.249C278.309 457.116 277.976 457 277.618 456.901L276.365 456.543C275.569 456.314 274.94 455.987 274.476 455.563C274.012 455.139 273.78 454.584 273.78 453.898C273.78 453.328 273.934 452.83 274.242 452.406C274.553 451.979 274.971 451.647 275.495 451.412C276.022 451.173 276.61 451.054 277.26 451.054C277.916 451.054 278.499 451.172 279.01 451.407C279.52 451.639 279.924 451.957 280.223 452.362C280.524 452.766 280.683 453.225 280.7 453.739H279.507Z" fill="#FFDC7A"/>
<path fill-rule="evenodd" clip-rule="evenodd" d="M311.594 448.742L313.524 452.625C313.62 452.821 313.807 452.957 314.024 452.989L318.345 453.613C318.52 453.637 318.677 453.728 318.785 453.868C318.986 454.131 318.955 454.502 318.714 454.728L315.582 457.757C315.423 457.907 315.352 458.127 315.394 458.341L316.144 462.614C316.196 462.968 315.955 463.3 315.6 463.357C315.454 463.38 315.304 463.357 315.17 463.291L311.322 461.273C311.129 461.168 310.897 461.168 310.704 461.273L306.827 463.302C306.503 463.467 306.106 463.344 305.93 463.027C305.862 462.898 305.839 462.752 305.862 462.61L306.612 458.337C306.65 458.123 306.579 457.904 306.424 457.753L303.275 454.726C303.019 454.471 303.017 454.056 303.273 453.799C303.274 453.798 303.275 453.797 303.275 453.796C303.381 453.7 303.511 453.636 303.652 453.611L307.974 452.987C308.19 452.952 308.375 452.817 308.474 452.622L310.402 448.742C310.48 448.585 310.617 448.464 310.784 448.409C310.951 448.353 311.135 448.367 311.292 448.446C311.421 448.51 311.527 448.614 311.594 448.742Z" fill="url(#paint10_linear_2903_23497)"/>
<line x1="11.5" y1="481.375" x2="334.5" y2="481.375" stroke="url(#paint11_radial_2903_23497)"/>
<g filter="url(#filter0_d_2903_23497)">
<path d="M105.089 68.8318C107.17 65.604 108.169 61.637 110 54.1146C111.831 61.637 112.83 65.604 114.911 68.8318C116.8 71.7622 119.32 74.2334 122.286 76.0649C125.64 78.1355 129.75 79.0518 137.701 80.8235C129.75 82.5952 125.64 83.5115 122.286 85.5821C119.32 87.4136 116.8 89.8849 114.911 92.8152C112.83 96.043 111.831 100.01 110 107.532C108.169 100.01 107.17 96.043 105.089 92.8152C103.2 89.8849 100.68 87.4136 97.7139 85.5821C94.3601 83.5115 90.25 82.5952 82.2989 80.8235C90.25 79.0518 94.3601 78.1355 97.7139 76.0649C100.68 74.2334 103.2 71.7622 105.089 68.8318Z" fill="url(#paint12_linear_2903_23497)" stroke="url(#paint13_linear_2903_23497)"/>
</g>
<g filter="url(#filter1_d_2903_23497)">
<path d="M246.217 114.538C247.396 112.709 247.962 110.461 249 106.198C250.038 110.461 250.604 112.709 251.783 114.538C252.853 116.199 254.281 117.599 255.962 118.637C257.863 119.81 260.192 120.329 264.697 121.333C260.192 122.337 257.863 122.857 255.962 124.03C254.281 125.068 252.853 126.468 251.783 128.129C250.604 129.958 250.038 132.206 249 136.468C247.962 132.206 247.396 129.958 246.217 128.129C245.147 126.468 243.719 125.068 242.038 124.03C240.137 122.857 237.808 122.337 233.303 121.333C237.808 120.329 240.137 119.81 242.038 118.637C243.719 117.599 245.147 116.199 246.217 114.538Z" fill="url(#paint14_linear_2903_23497)" stroke="url(#paint15_linear_2903_23497)" stroke-width="0.566667"/>
</g>
<defs>
<filter id="filter0_d_2903_23497" x="25.042" y="0.0952401" width="169.916" height="167.563" filterUnits="userSpaceOnUse" color-interpolation-filters="sRGB">
<feFlood flood-opacity="0" result="BackgroundImageFix"/>
<feColorMatrix in="SourceAlpha" type="matrix" values="0 0 0 0 0 0 0 0 0 0 0 0 0 0 0 0 0 0 127 0" result="hardAlpha"/>
<feOffset dy="3.05322"/>
<feGaussianBlur stdDeviation="27.479"/>
<feComposite in2="hardAlpha" operator="out"/>
<feColorMatrix type="matrix" values="0 0 0 0 1 0 0 0 0 0.856849 0 0 0 0 0.45 0 0 0 1 0"/>
<feBlend mode="normal" in2="BackgroundImageFix" result="effect1_dropShadow_2903_23497"/>
<feBlend mode="normal" in="SourceGraphic" in2="effect1_dropShadow_2903_23497" result="shape"/>
</filter>
<filter id="filter1_d_2903_23497" x="200.857" y="75.5873" width="96.2857" height="94.9522" filterUnits="userSpaceOnUse" color-interpolation-filters="sRGB">
<feFlood flood-opacity="0" result="BackgroundImageFix"/>
<feColorMatrix in="SourceAlpha" type="matrix" values="0 0 0 0 0 0 0 0 0 0 0 0 0 0 0 0 0 0 127 0" result="hardAlpha"/>
<feOffset dy="1.73016"/>
<feGaussianBlur stdDeviation="15.5714"/>
<feComposite in2="hardAlpha" operator="out"/>
<feColorMatrix type="matrix" values="0 0 0 0 1 0 0 0 0 0.856849 0 0 0 0 0.45 0 0 0 1 0"/>
<feBlend mode="normal" in2="BackgroundImageFix" result="effect1_dropShadow_2903_23497"/>
<feBlend mode="normal" in="SourceGraphic" in2="effect1_dropShadow_2903_23497" result="shape"/>
</filter>
<linearGradient id="paint0_linear_2903_23497" x1="173.582" y1="147.021" x2="173.582" y2="221.646" gradientUnits="userSpaceOnUse">
<stop stop-color="white"/>
<stop offset="0.21875" stop-color="#FAE8AF"/>
<stop offset="0.479167" stop-color="#ECD7A7"/>
<stop offset="0.776042" stop-color="#FFBB60"/>
<stop offset="0.916667" stop-color="#AE6F20"/>
</linearGradient>
<linearGradient id="paint1_linear_2903_23497" x1="173.584" y1="100.053" x2="173.584" y2="139.853" gradientUnits="userSpaceOnUse">
<stop stop-color="white"/>
<stop offset="0.21875" stop-color="#FAE8AF"/>
<stop offset="0.479167" stop-color="#ECD7A7"/>
<stop offset="0.776042" stop-color="#FFBB60"/>
<stop offset="0.916667" stop-color="#AE6F20"/>
</linearGradient>
<linearGradient id="paint2_linear_2903_23497" x1="173.412" y1="100.053" x2="173.412" y2="139.853" gradientUnits="userSpaceOnUse">
<stop stop-color="white"/>
<stop offset="0.21875" stop-color="#FAE8AF"/>
<stop offset="0.479167" stop-color="#ECD7A7"/>
<stop offset="0.776042" stop-color="#FFBB60"/>
<stop offset="0.916667" stop-color="#AE6F20"/>
</linearGradient>
<linearGradient id="paint3_linear_2903_23497" x1="173.413" y1="111.993" x2="173.413" y2="127.913" gradientUnits="userSpaceOnUse">
<stop stop-color="white"/>
<stop offset="0.21875" stop-color="#FAE8AF"/>
<stop offset="0.479167" stop-color="#ECD7A7"/>
<stop offset="0.776042" stop-color="#FFBB60"/>
<stop offset="0.916667" stop-color="#AE6F20"/>
</linearGradient>
<radialGradient id="paint4_diamond_2903_23497" cx="0" cy="0" r="1" gradientUnits="userSpaceOnUse" gradientTransform="translate(181.5 104.659) rotate(90) scale(15.1591 14.5)">
<stop stop-color="white"/>
<stop offset="1"/>
</radialGradient>
<radialGradient id="paint5_diamond_2903_23497" cx="0" cy="0" r="1" gradientUnits="userSpaceOnUse" gradientTransform="translate(169.5 113.659) rotate(90) scale(15.1591 14.5)">
<stop stop-color="white"/>
<stop offset="1"/>
</radialGradient>
<linearGradient id="paint6_linear_2903_23497" x1="162.021" y1="105.125" x2="176.622" y2="134.125" gradientUnits="userSpaceOnUse">
<stop offset="0.187475" stop-color="#FFBE16"/>
<stop offset="0.505208" stop-color="white"/>
<stop offset="1" stop-color="#EBBC36"/>
</linearGradient>
<linearGradient id="paint7_linear_2903_23497" x1="104.407" y1="293.849" x2="153.155" y2="353.346" gradientUnits="userSpaceOnUse">
<stop stop-color="#FFDF76"/>
<stop offset="0.614145" stop-color="#FEE9B0"/>
<stop offset="1" stop-color="#FFDC7A"/>
</linearGradient>
<radialGradient id="paint8_radial_2903_23497" cx="0" cy="0" r="1" gradientUnits="userSpaceOnUse" gradientTransform="translate(193.544 429.875) rotate(-180) scale(182.044 45138.5)">
<stop stop-color="#FFC02D"/>
<stop offset="0.657899" stop-color="white" stop-opacity="0"/>
</radialGradient>
<linearGradient id="paint9_linear_2903_23497" x1="31.6654" y1="450.042" x2="37.4987" y2="462.958" gradientUnits="userSpaceOnUse">
<stop offset="0.087559" stop-color="#FFDC7A"/>
<stop offset="0.385417" stop-color="#FFECAB"/>
<stop offset="0.991909" stop-color="#FAC100"/>
</linearGradient>
<linearGradient id="paint10_linear_2903_23497" x1="307.665" y1="450.042" x2="313.499" y2="462.958" gradientUnits="userSpaceOnUse">
<stop offset="0.087559" stop-color="#FFDC7A"/>
<stop offset="0.385417" stop-color="#FFECAB"/>
<stop offset="0.991909" stop-color="#FAC100"/>
</linearGradient>
<radialGradient id="paint11_radial_2903_23497" cx="0" cy="0" r="1" gradientUnits="userSpaceOnUse" gradientTransform="translate(193.544 481.875) rotate(-180) scale(182.044 45138.5)">
<stop stop-color="#FFC02D"/>
<stop offset="0.657899" stop-color="white" stop-opacity="0"/>
</radialGradient>
<linearGradient id="paint12_linear_2903_23497" x1="103.5" y1="61.5" x2="116.5" y2="109.5" gradientUnits="userSpaceOnUse">
<stop stop-color="#FFBE18"/>
<stop offset="0.378128" stop-color="#FEF9EB"/>
<stop offset="0.623253" stop-color="#EFC859"/>
</linearGradient>
<linearGradient id="paint13_linear_2903_23497" x1="99" y1="54.5" x2="123.5" y2="111" gradientUnits="userSpaceOnUse">
<stop offset="0.020365" stop-color="#FFE392"/>
<stop offset="1" stop-color="#FFE392" stop-opacity="0"/>
</linearGradient>
<linearGradient id="paint14_linear_2903_23497" x1="245.317" y1="110.383" x2="252.683" y2="137.583" gradientUnits="userSpaceOnUse">
<stop stop-color="#FFBE18"/>
<stop offset="0.378128" stop-color="#FEF9EB"/>
<stop offset="0.623253" stop-color="#EFC859"/>
</linearGradient>
<linearGradient id="paint15_linear_2903_23497" x1="242.767" y1="106.417" x2="256.65" y2="138.433" gradientUnits="userSpaceOnUse">
<stop offset="0.020365" stop-color="#FFE392"/>
<stop offset="1" stop-color="#FFE392" stop-opacity="0"/>
</linearGradient>
<clipPath id="clip0_2903_23497">
<rect x="123" y="77.5" width="99.5" height="99.5" rx="49.75" fill="white"/>
</clipPath>
<clipPath id="clip1_2903_23497">
<rect width="15.9203" height="15.92" fill="white" transform="translate(165.453 111.993)"/>
</clipPath>
<clipPath id="clip2_2903_23497">
<rect width="29" height="29" fill="white" transform="translate(159 105.125)"/>
</clipPath>
</defs>
</svg>
