<svg width="20" height="20" viewBox="0 0 20 20" fill="none" xmlns="http://www.w3.org/2000/svg">
<mask id="mask0_3713_19187" style="mask-type:alpha" maskUnits="userSpaceOnUse" x="1" y="0" width="18" height="20">
<path d="M18.8042 8.2835C18.9187 8.89715 18.9811 9.53873 18.9811 10.2082C18.9811 15.4452 15.4761 19.169 10.1823 19.169C8.9784 19.1693 7.78624 18.9325 6.67393 18.472C5.56161 18.0114 4.55094 17.3362 3.69966 16.485C2.84838 15.6337 2.17319 14.6231 1.71265 13.5108C1.25211 12.3985 1.01526 11.2063 1.01563 10.0025C1.01526 8.79859 1.25211 7.60645 1.71265 6.49415C2.17319 5.38185 2.84838 4.37119 3.69966 3.51993C4.55094 2.66867 5.56161 1.99348 6.67393 1.53295C7.78624 1.07242 8.9784 0.835571 10.1823 0.835938C12.6574 0.835938 14.7256 1.74663 16.3123 3.22534L13.7283 5.80936V5.80284C12.7664 4.88656 11.5456 4.41632 10.1823 4.41632C7.15778 4.41632 4.69943 6.97147 4.69943 9.99687C4.69943 13.0213 7.15778 15.5821 10.1823 15.5821C12.9265 15.5821 14.7945 14.013 15.1781 11.8583H10.1823V8.2835H18.8051H18.8042Z" fill="#006FFD"/>
</mask>
<g mask="url(#mask0_3713_19187)">
<rect width="20" height="19.9997" fill="#F8F9FE"/>
</g>
</svg>
