<svg width="110" height="20" viewBox="0 0 110 20" fill="none" xmlns="http://www.w3.org/2000/svg">
<g clip-path="url(#clip0_1582_25831)">
<mask id="mask0_1582_25831" style="mask-type:alpha" maskUnits="userSpaceOnUse" x="0" y="0" width="19" height="19">
<path d="M17.9446 6.96224L12.3855 6.15432L9.9004 1.1163C9.83253 0.978362 9.72086 0.866698 9.58292 0.798824C9.23699 0.628044 8.8166 0.77036 8.64363 1.1163L6.15856 6.15432L0.599448 6.96224C0.446184 6.98413 0.306056 7.05639 0.198771 7.16586C0.0690698 7.29917 -0.00240167 7.47852 6.16252e-05 7.6645C0.00252492 7.85048 0.0787215 8.02787 0.211908 8.1577L4.234 12.0791L3.28376 17.6163C3.26148 17.7451 3.27573 17.8776 3.32491 17.9987C3.37408 18.1198 3.45621 18.2247 3.56198 18.3015C3.66775 18.3784 3.79292 18.424 3.92331 18.4333C4.0537 18.4426 4.18409 18.4152 4.29969 18.3542L9.27202 15.7399L14.2443 18.3542C14.3801 18.4264 14.5377 18.4505 14.6888 18.4242C15.0698 18.3585 15.326 17.9973 15.2603 17.6163L14.31 12.0791L18.3321 8.1577C18.4416 8.05041 18.5139 7.91029 18.5357 7.75702C18.5949 7.37386 18.3277 7.01916 17.9446 6.96224Z" fill="#006FFD"/>
</mask>
<g mask="url(#mask0_1582_25831)">
<rect y="0.726562" width="18.5438" height="18.5438" fill="#3AC0A0"/>
</g>
</g>
<g clip-path="url(#clip1_1582_25831)">
<mask id="mask1_1582_25831" style="mask-type:alpha" maskUnits="userSpaceOnUse" x="22" y="0" width="20" height="19">
<path d="M40.6086 6.96224L35.0495 6.15432L32.5645 1.1163C32.4966 0.978362 32.3849 0.866698 32.247 0.798824C31.901 0.628044 31.4807 0.77036 31.3077 1.1163L28.8226 6.15432L23.2635 6.96224C23.1102 6.98413 22.9701 7.05639 22.8628 7.16586C22.7331 7.29917 22.6617 7.47852 22.6641 7.6645C22.6666 7.85048 22.7428 8.02787 22.876 8.1577L26.8981 12.0791L25.9478 17.6163C25.9255 17.7451 25.9398 17.8776 25.989 17.9987C26.0381 18.1198 26.1203 18.2247 26.226 18.3015C26.3318 18.3784 26.457 18.424 26.5874 18.4333C26.7178 18.4426 26.8482 18.4152 26.9637 18.3542L31.9361 15.7399L36.9084 18.3542C37.0442 18.4264 37.2018 18.4505 37.3529 18.4242C37.7338 18.3585 37.99 17.9973 37.9243 17.6163L36.9741 12.0791L40.9962 8.1577C41.1057 8.05041 41.1779 7.91029 41.1998 7.75702C41.2589 7.37386 40.9918 7.01916 40.6086 6.96224Z" fill="#006FFD"/>
</mask>
<g mask="url(#mask1_1582_25831)">
<rect x="22.6641" y="0.726562" width="18.5438" height="18.5438" fill="#3AC0A0"/>
</g>
</g>
<g clip-path="url(#clip2_1582_25831)">
<mask id="mask2_1582_25831" style="mask-type:alpha" maskUnits="userSpaceOnUse" x="45" y="0" width="19" height="19">
<path d="M63.2727 6.96224L57.7136 6.15432L55.2285 1.1163C55.1607 0.978362 55.049 0.866698 54.911 0.798824C54.5651 0.628044 54.1447 0.77036 53.9718 1.1163L51.4867 6.15432L45.9276 6.96224C45.7743 6.98413 45.6342 7.05639 45.5269 7.16586C45.3972 7.29917 45.3257 7.47852 45.3282 7.6645C45.3306 7.85048 45.4068 8.02787 45.54 8.1577L49.5621 12.0791L48.6119 17.6163C48.5896 17.7451 48.6039 17.8776 48.653 17.9987C48.7022 18.1198 48.7843 18.2247 48.8901 18.3015C48.9959 18.3784 49.121 18.424 49.2514 18.4333C49.3818 18.4426 49.5122 18.4152 49.6278 18.3542L54.6001 15.7399L59.5725 18.3542C59.7082 18.4264 59.8659 18.4505 60.0169 18.4242C60.3979 18.3585 60.6541 17.9973 60.5884 17.6163L59.6382 12.0791L63.6603 8.1577C63.7697 8.05041 63.842 7.91029 63.8639 7.75702C63.923 7.37386 63.6559 7.01916 63.2727 6.96224Z" fill="#006FFD"/>
</mask>
<g mask="url(#mask2_1582_25831)">
<rect x="45.3281" y="0.726562" width="18.5438" height="18.5438" fill="#3AC0A0"/>
</g>
</g>
<g clip-path="url(#clip3_1582_25831)">
<mask id="mask3_1582_25831" style="mask-type:alpha" maskUnits="userSpaceOnUse" x="67" y="0" width="20" height="19">
<path d="M85.9368 6.96224L80.3777 6.15432L77.8926 1.1163C77.8247 0.978362 77.713 0.866698 77.5751 0.798824C77.2292 0.628044 76.8088 0.77036 76.6358 1.1163L74.1507 6.15432L68.5916 6.96224C68.4384 6.98413 68.2982 7.05639 68.191 7.16586C68.0613 7.29917 67.9898 7.47852 67.9922 7.6645C67.9947 7.85048 68.0709 8.02787 68.2041 8.1577L72.2262 12.0791L71.276 17.6163C71.2537 17.7451 71.2679 17.8776 71.3171 17.9987C71.3663 18.1198 71.4484 18.2247 71.5542 18.3015C71.6599 18.3784 71.7851 18.424 71.9155 18.4333C72.0459 18.4426 72.1763 18.4152 72.2919 18.3542L77.2642 15.7399L82.2365 18.3542C82.3723 18.4264 82.5299 18.4505 82.681 18.4242C83.062 18.3585 83.3181 17.9973 83.2525 17.6163L82.3022 12.0791L86.3243 8.1577C86.4338 8.05041 86.506 7.91029 86.5279 7.75702C86.5871 7.37386 86.3199 7.01916 85.9368 6.96224Z" fill="#006FFD"/>
</mask>
<g mask="url(#mask3_1582_25831)">
<rect x="67.9922" y="0.726562" width="18.5438" height="18.5438" fill="#3AC0A0"/>
</g>
</g>
<g clip-path="url(#clip4_1582_25831)">
<mask id="mask4_1582_25831" style="mask-type:alpha" maskUnits="userSpaceOnUse" x="90" y="0" width="20" height="19">
<path d="M108.605 6.96224L103.046 6.15432L100.561 1.1163C100.493 0.978362 100.381 0.866698 100.243 0.798824C99.8971 0.628044 99.4768 0.77036 99.3038 1.1163L96.8187 6.15432L91.2596 6.96224C91.1063 6.98413 90.9662 7.05639 90.8589 7.16586C90.7292 7.29917 90.6578 7.47852 90.6602 7.6645C90.6627 7.85048 90.7389 8.02787 90.8721 8.1577L94.8942 12.0791L93.9439 17.6163C93.9216 17.7451 93.9359 17.8776 93.9851 17.9987C94.0342 18.1198 94.1164 18.2247 94.2221 18.3015C94.3279 18.3784 94.4531 18.424 94.5835 18.4333C94.7139 18.4426 94.8442 18.4152 94.9598 18.3542L99.9322 15.7399L104.905 18.3542C105.04 18.4264 105.198 18.4505 105.349 18.4242C105.73 18.3585 105.986 17.9973 105.92 17.6163L104.97 12.0791L108.992 8.1577C109.102 8.05041 109.174 7.91029 109.196 7.75702C109.255 7.37386 108.988 7.01916 108.605 6.96224Z" fill="#006FFD"/>
</mask>
<g mask="url(#mask4_1582_25831)">
<rect x="90.6602" y="0.726562" width="18.5438" height="18.5438" fill="#3AC0A0"/>
</g>
</g>
<defs>
<clipPath id="clip0_1582_25831">
<rect width="18.5438" height="18.5438" fill="white" transform="translate(0 0.726562)"/>
</clipPath>
<clipPath id="clip1_1582_25831">
<rect width="18.5438" height="18.5438" fill="white" transform="translate(22.6641 0.726562)"/>
</clipPath>
<clipPath id="clip2_1582_25831">
<rect width="18.5438" height="18.5438" fill="white" transform="translate(45.3281 0.726562)"/>
</clipPath>
<clipPath id="clip3_1582_25831">
<rect width="18.5438" height="18.5438" fill="white" transform="translate(67.9922 0.726562)"/>
</clipPath>
<clipPath id="clip4_1582_25831">
<rect width="18.5438" height="18.5438" fill="white" transform="translate(90.6602 0.726562)"/>
</clipPath>
</defs>
</svg>
