<svg width="24" height="24" viewBox="0 0 24 24" fill="none" xmlns="http://www.w3.org/2000/svg">
<path d="M17.5938 10.9353C19.1961 10.9353 20.4959 9.6364 20.4959 8.03406C20.4959 6.43173 19.1961 5.13281 17.5938 5.13281" stroke="#E8E9F1" stroke-width="1.5" stroke-linecap="round" stroke-linejoin="round"/>
<path d="M18.9297 14.0859C19.4082 14.1189 19.8839 14.1868 20.3524 14.2922C21.0032 14.4196 21.786 14.6864 22.0647 15.2703C22.2425 15.6443 22.2425 16.0797 22.0647 16.4546C21.7869 17.0385 21.0032 17.3044 20.3524 17.4382" stroke="#E8E9F1" stroke-width="1.5" stroke-linecap="round" stroke-linejoin="round"/>
<path d="M6.28889 10.9353C4.68655 10.9353 3.38672 9.6364 3.38672 8.03406C3.38672 6.43173 4.68655 5.13281 6.28889 5.13281" stroke="#E8E9F1" stroke-width="1.5" stroke-linecap="round" stroke-linejoin="round"/>
<path d="M4.95565 14.0859C4.47715 14.1189 4.0014 14.1868 3.53298 14.2922C2.88215 14.4196 2.09931 14.6864 1.82156 15.2703C1.64281 15.6443 1.64281 16.0797 1.82156 16.4546C2.0984 17.0385 2.88215 17.3044 3.53298 17.4382" stroke="#E8E9F1" stroke-width="1.5" stroke-linecap="round" stroke-linejoin="round"/>
<path fill-rule="evenodd" clip-rule="evenodd" d="M11.9386 14.7109C15.1855 14.7109 17.9593 15.2023 17.9593 17.1685C17.9593 19.1339 15.2038 19.6435 11.9386 19.6435C8.69089 19.6435 5.91797 19.1522 5.91797 17.1859C5.91797 15.2197 8.67347 14.7109 11.9386 14.7109Z" stroke="#E8E9F1" stroke-width="1.5" stroke-linecap="round" stroke-linejoin="round"/>
<path fill-rule="evenodd" clip-rule="evenodd" d="M11.9364 11.9049C9.79504 11.9049 8.07812 10.188 8.07812 8.04575C8.07812 5.90442 9.79504 4.1875 11.9364 4.1875C14.0777 4.1875 15.7946 5.90442 15.7946 8.04575C15.7946 10.188 14.0777 11.9049 11.9364 11.9049Z" stroke="#E8E9F1" stroke-width="1.5" stroke-linecap="round" stroke-linejoin="round"/>
</svg>
