<svg width="20" height="20" viewBox="0 0 20 20" fill="none" xmlns="http://www.w3.org/2000/svg">
<g clip-path="url(#clip0_3575_12642)">
<mask id="mask0_3575_12642" style="mask-type:alpha" maskUnits="userSpaceOnUse" x="0" y="0" width="20" height="20">
<circle cx="9.9987" cy="10.0026" r="9.16667" fill="#D9D9D9"/>
</mask>
<g mask="url(#mask0_3575_12642)">
<rect width="20" height="20" fill="#E8E9F1"/>
</g>
<path fill-rule="evenodd" clip-rule="evenodd" d="M8.02737 9.01469C8.02737 8.55445 8.40046 8.18135 8.8607 8.18135H9.99968C10.4599 8.18135 10.833 8.55445 10.833 9.01469V12.8953H11.8379C12.2981 12.8953 12.6712 13.2684 12.6712 13.7287C12.6712 14.1889 12.2981 14.562 11.8379 14.562H8.16146C7.70122 14.562 7.32812 14.1889 7.32812 13.7287C7.32812 13.2684 7.70122 12.8953 8.16146 12.8953H9.16635V9.84802H8.8607C8.40046 9.84802 8.02737 9.47492 8.02737 9.01469Z" fill="#181A20"/>
<path d="M11.0269 6.53572C11.0269 7.13793 10.5387 7.62612 9.93646 7.62612C9.33425 7.62612 8.84606 7.13793 8.84606 6.53572C8.84606 5.9335 9.33425 5.44531 9.93646 5.44531C10.5387 5.44531 11.0269 5.9335 11.0269 6.53572Z" fill="#181A20"/>
</g>
<defs>
<clipPath id="clip0_3575_12642">
<rect width="20" height="20" fill="white"/>
</clipPath>
</defs>
</svg>
