<svg width="16" height="16" viewBox="0 0 16 16" fill="none" xmlns="http://www.w3.org/2000/svg">
<mask id="mask0_3537_18438" style="mask-type:alpha" maskUnits="userSpaceOnUse" x="0" y="0" width="16" height="16">
<path fill-rule="evenodd" clip-rule="evenodd" d="M2.66667 3.4974C2.39052 3.4974 2.16667 3.72125 2.16667 3.9974V13.3307C2.16667 13.6069 2.39052 13.8307 2.66667 13.8307H12C12.2761 13.8307 12.5 13.6069 12.5 13.3307V8.66406C12.5 8.20382 12.8731 7.83073 13.3333 7.83073C13.7936 7.83073 14.1667 8.20382 14.1667 8.66406V13.3307C14.1667 14.5273 13.1966 15.4974 12 15.4974H2.66667C1.47005 15.4974 0.5 14.5273 0.5 13.3307V3.9974C0.5 2.80078 1.47005 1.83073 2.66667 1.83073H7.33333C7.79357 1.83073 8.16667 2.20383 8.16667 2.66406C8.16667 3.1243 7.79357 3.4974 7.33333 3.4974H2.66667Z" fill="#006FFD"/>
<path d="M8.72979 9.53126L13.495 4.76604L11.2316 2.50265L6.4664 7.26787C6.4008 7.33356 6.3542 7.41577 6.33154 7.5058L5.80339 10.1943L8.49135 9.66612C8.5816 9.64356 8.66416 9.5969 8.72979 9.53126ZM15.0333 3.22772C15.2256 3.0354 15.3336 2.77459 15.3336 2.50265C15.3336 2.23072 15.2256 1.96991 15.0333 1.77759L14.2201 0.96433C14.0278 0.772069 13.7669 0.664062 13.495 0.664062C13.2231 0.664062 12.9623 0.772069 12.7699 0.96433L11.9567 1.77759L14.2201 4.04098L15.0333 3.22772Z" fill="#006FFD"/>
</mask>
<g mask="url(#mask0_3537_18438)">
<rect width="16" height="16" fill="#8F9098"/>
</g>
</svg>
