<svg width="20" height="20" viewBox="0 0 20 20" fill="none" xmlns="http://www.w3.org/2000/svg">
<mask id="mask0_3713_7409" style="mask-type:alpha" maskUnits="userSpaceOnUse" x="0" y="0" width="20" height="19">
<path d="M4.99739 18.333V5.96377H1.06778V18.333H4.99739ZM3.0331 4.27394C4.40342 4.27394 5.25638 3.32413 5.25638 2.13717C5.23085 0.923453 4.40347 0 3.0591 0C1.71494 0 0.835938 0.923471 0.835938 2.13717C0.835938 3.32418 1.68869 4.27394 3.00744 4.27394H3.0331ZM7.17242 18.333H11.102V11.4254C11.102 11.0557 11.1276 10.6864 11.2313 10.4222C11.5154 9.68356 12.162 8.91856 13.2475 8.91856C14.6695 8.91856 15.2383 10.0529 15.2383 11.7157V18.333H19.1677V11.2405C19.1677 7.44117 17.2291 5.67337 14.6436 5.67337C12.5237 5.67337 11.593 6.91309 11.0759 7.75745H11.1021V5.96351H7.17251C7.22408 7.12418 7.17242 18.333 7.17242 18.333Z" fill="black"/>
</mask>
<g mask="url(#mask0_3713_7409)">
<rect width="20" height="19.9997" fill="#F8F9FE"/>
</g>
</svg>
