<svg width="20" height="20" viewBox="0 0 20 20" fill="none" xmlns="http://www.w3.org/2000/svg">
<mask id="mask0_3575_18550" style="mask-type:alpha" maskUnits="userSpaceOnUse" x="0" y="1" width="20" height="18">
<path fill-rule="evenodd" clip-rule="evenodd" d="M4.37873 1.73183C4.77605 1.37064 5.38282 1.37064 5.78014 1.73183L9.4468 5.06517C9.87249 5.45215 9.90386 6.11095 9.51687 6.53664C9.12989 6.96232 8.47109 6.99369 8.0454 6.60671L6.1211 4.85734V17.5026C6.1211 18.0779 5.65473 18.5443 5.07943 18.5443C4.50414 18.5443 4.03777 18.0779 4.03777 17.5026V4.85734L2.11347 6.60671C1.68778 6.99369 1.02898 6.96232 0.641997 6.53664C0.25501 6.11095 0.286382 5.45215 0.712067 5.06517L4.37873 1.73183ZM14.9173 1.46094C15.4926 1.46094 15.959 1.92731 15.959 2.5026V15.1479L17.8833 13.3985C18.309 13.0115 18.9678 13.0429 19.3548 13.4686C19.7418 13.8943 19.7104 14.5531 19.2847 14.94L15.618 18.2734C15.2207 18.6346 14.6139 18.6346 14.2166 18.2734L10.55 14.94C10.1243 14.5531 10.0929 13.8943 10.4799 13.4686C10.8669 13.0429 11.5257 13.0115 11.9514 13.3985L13.8757 15.1479V2.5026C13.8757 1.92731 14.342 1.46094 14.9173 1.46094Z" fill="#006FFD"/>
</mask>
<g mask="url(#mask0_3575_18550)">
<rect x="0.00390625" width="20" height="20" fill="#E8E9F1"/>
</g>
</svg>
