<svg width="114" height="114" viewBox="0 0 114 114" fill="none" xmlns="http://www.w3.org/2000/svg">
<g clip-path="url(#clip0_1811_37497)">
<rect x="0.0600586" width="113.88" height="113.88" rx="56.9398" fill="#181A20"/>
<path d="M14.2993 93.6125C14.2993 81.0337 24.4964 70.8365 37.0752 70.8365H76.9331C89.5119 70.8365 99.709 81.0337 99.709 93.6125V133.47C99.709 146.049 89.5119 156.246 76.9331 156.246H37.0752C24.4964 156.246 14.2993 146.049 14.2993 133.47V93.6125Z" fill="#E8E9F1"/>
<circle cx="57.0005" cy="39.8577" r="22.7759" fill="#E8E9F1"/>
<rect x="35.9021" y="18.7604" width="42.1942" height="42.1939" rx="21.0969" fill="#181A20"/>
<rect x="35.9021" y="18.7604" width="42.1942" height="42.1939" rx="21.0969" stroke="white" strokeWidth="3.35799"/>
<g clip-path="url(#clip1_1811_37497)">
<mask id="mask0_1811_37497" style="mask-type:alpha" maskUnits="userSpaceOnUse" x="50" y="30" width="17" height="19">
<path d="M65.2836 38.3865C66.3848 39.0952 66.3848 40.6197 65.2836 41.3284L53.9034 48.6518C52.6412 49.464 50.9253 48.6165 50.9253 47.1809L50.9253 32.534C50.9253 31.0984 52.6412 30.2509 53.9034 31.0631L65.2836 38.3865Z" fill="#B4DBFF"/>
</mask>
<g mask="url(#mask0_1811_37497)">
<rect x="47.8887" y="30.7471" width="18.221" height="18.2207" fill="#EAF2FF"/>
</g>
</g>
</g>
<defs>
<clipPath id="clip0_1811_37497">
<rect x="0.0600586" width="113.88" height="113.88" rx="56.9398" fill="white"/>
</clipPath>
<clipPath id="clip1_1811_37497">
<rect width="18.221" height="18.2207" fill="white" transform="translate(47.8887 30.7471)"/>
</clipPath>
</defs>
</svg>
