<svg width="40" height="40" viewBox="0 0 40 40" fill="none" xmlns="http://www.w3.org/2000/svg">
<rect width="40" height="40" rx="20" fill="#34373F"/>
<g clip-path="url(#clip0_3844_18879)">
<mask id="mask0_3844_18879" style="mask-type:alpha" maskUnits="userSpaceOnUse" x="13" y="10" width="14" height="21">
<path fill-rule="evenodd" clip-rule="evenodd" d="M21.3004 10.0504C21.5035 10.1213 21.6808 10.2624 21.8067 10.453C21.9326 10.6437 22.0005 10.874 22.0004 11.1105V16.6664H26.0004C26.1834 16.6663 26.3628 16.722 26.5192 16.8273C26.6757 16.9327 26.8031 17.0837 26.8876 17.2639C26.9722 17.4442 27.0106 17.6467 26.9988 17.8495C26.9869 18.0524 26.9253 18.2477 26.8204 18.4143L19.8204 29.5261C19.6986 29.7201 19.5243 29.8658 19.3228 29.942C19.1213 30.0183 18.9032 30.0211 18.7001 29.95C18.4971 29.879 18.3198 29.7379 18.1939 29.5471C18.0681 29.3563 18.0003 29.1259 18.0004 28.8894V23.3335H14.0004C13.8175 23.3336 13.6381 23.2779 13.4817 23.1726C13.3252 23.0672 13.1978 22.9162 13.1133 22.736C13.0287 22.5557 12.9903 22.3532 13.0021 22.1503C13.0139 21.9475 13.0756 21.7522 13.1804 21.5856L20.1804 10.4737C20.3025 10.2802 20.4768 10.1349 20.6782 10.0589C20.8797 9.98298 21.0976 9.98038 21.3004 10.0515V10.0504Z" fill="#006FFD"/>
</mask>
<g mask="url(#mask0_3844_18879)">
<rect x="10" y="10" width="20" height="20" fill="#F8F9FE"/>
</g>
</g>
<defs>
<clipPath id="clip0_3844_18879">
<rect width="20" height="20" fill="white" transform="translate(10 10)"/>
</clipPath>
</defs>
</svg>
