<svg width="40" height="40" viewBox="0 0 40 40" fill="none" xmlns="http://www.w3.org/2000/svg">
<rect width="40" height="40" rx="20" fill="#34373F"/>
<g clip-path="url(#clip0_3844_20552)">
<mask id="mask0_3844_20552" style="mask-type:alpha" maskUnits="userSpaceOnUse" x="10" y="10" width="20" height="20">
<path d="M29.3537 16.7253L23.358 15.854L20.6778 10.4203C20.6046 10.2716 20.4842 10.1511 20.3354 10.0779C19.9623 9.89374 19.5089 10.0472 19.3224 10.4203L16.6422 15.854L10.6465 16.7253C10.4812 16.7489 10.3301 16.8269 10.2144 16.9449C10.0745 17.0887 9.99741 17.2822 10.0001 17.4827C10.0027 17.6833 10.0849 17.8746 10.2285 18.0147L14.5665 22.244L13.5416 28.216C13.5176 28.3549 13.533 28.4978 13.586 28.6284C13.639 28.7591 13.7276 28.8722 13.8417 28.9551C13.9558 29.0379 14.0908 29.0871 14.2314 29.0972C14.372 29.1072 14.5126 29.0776 14.6373 29.0118L20.0001 26.1923L25.3629 29.0118C25.5093 29.0897 25.6793 29.1157 25.8423 29.0874C26.2531 29.0165 26.5294 28.6269 26.4586 28.216L25.4337 22.244L29.7717 18.0147C29.8897 17.899 29.9677 17.7478 29.9913 17.5825C30.055 17.1693 29.7669 16.7867 29.3537 16.7253Z" fill="#006FFD"/>
</mask>
<g mask="url(#mask0_3844_20552)">
<rect x="10" y="10" width="20" height="20" fill="#F8F9FE"/>
</g>
</g>
<defs>
<clipPath id="clip0_3844_20552">
<rect width="20" height="20" fill="white" transform="translate(10 10)"/>
</clipPath>
</defs>
</svg>
