<svg width="25" height="24" viewBox="0 0 25 24" fill="none" xmlns="http://www.w3.org/2000/svg">
<rect width="24" height="24" rx="12" fill="#34373F"/>
<path d="M6.41655 8.72727V16H5.24467L1.81783 11.0462H1.75746V16H0.439986V8.72727H1.61896L5.04226 13.6847H5.10618V8.72727H6.41655ZM8.3521 16V8.72727H13.0822V9.83168H9.66957V11.8061H12.8372V12.9105H9.66957V14.8956H13.1106V16H8.3521ZM16.4569 16L14.4043 8.72727H15.8212L17.1316 14.0717H17.199L18.5982 8.72727H19.8873L21.29 14.0753H21.3539L22.6642 8.72727H24.0811L22.0286 16H20.7289L19.2729 10.897H19.2161L17.7566 16H16.4569Z" fill="#F8F9FE"/>
</svg>
