<svg width="20" height="20" viewBox="0 0 20 20" fill="none" xmlns="http://www.w3.org/2000/svg">
<path fill-rule="evenodd" clip-rule="evenodd" d="M2.91866 11.4867V11.3042C2.94543 10.7643 3.11847 10.2411 3.41993 9.78873C3.92172 9.24528 4.26522 8.57932 4.4144 7.86071C4.4144 7.30531 4.4144 6.74198 4.46291 6.18658C4.71355 3.51274 7.35737 1.66406 9.96885 1.66406H10.0335C12.645 1.66406 15.2888 3.51274 15.5476 6.18658C15.5961 6.74198 15.5476 7.30531 15.588 7.86071C15.7392 8.58098 16.0823 9.24902 16.5824 9.79667C16.8862 10.2451 17.0595 10.7663 17.0837 11.3042V11.4787C17.1018 12.2041 16.8519 12.9114 16.3803 13.4702C15.7571 14.1236 14.9114 14.5301 14.0033 14.6128C11.3405 14.8984 8.65383 14.8984 5.99099 14.6128C5.08392 14.5266 4.23943 14.1206 3.61397 13.4702C3.14964 12.911 2.90317 12.2079 2.91866 11.4867Z" stroke="#E8E9F1" stroke-width="1.5" stroke-linecap="round" stroke-linejoin="round"/>
<path d="M7.96484 17.375C8.38091 17.8972 8.99189 18.2352 9.66259 18.3141C10.3333 18.393 11.0084 18.2064 11.5385 17.7955C11.7015 17.674 11.8482 17.5327 11.975 17.375" stroke="#E8E9F1" stroke-width="1.5" stroke-linecap="round" stroke-linejoin="round"/>
</svg>
