<svg width="47" height="44" viewBox="0 0 47 44" fill="none" xmlns="http://www.w3.org/2000/svg">
<path d="M6.42188 6C6.42188 2.68629 9.10817 0 12.4219 0H27.8357L40.8964 13V38C40.8964 41.3137 38.2101 44 34.8964 44H12.4219C9.10817 44 6.42188 41.3137 6.42188 38V6Z" fill="#E86339"/>
<path d="M27.8359 13V0L40.8956 13H27.8359Z" fill="#FFB37C"/>
<path d="M16.4492 26.8613C17.3542 26.8613 18.0312 27.0583 18.4805 27.4521C18.9329 27.846 19.1592 28.4059 19.1592 29.1318C19.1592 29.4574 19.112 29.7699 19.0176 30.0693C18.9264 30.3688 18.7751 30.6357 18.5635 30.8701C18.3551 31.1045 18.0768 31.29 17.7285 31.4268C17.3835 31.5635 16.957 31.6318 16.4492 31.6318H15.9072V34H13.9785V26.8613H16.4492ZM16.4053 28.4189H15.9072V30.0596H16.2881C16.4541 30.0596 16.6087 30.0319 16.752 29.9766C16.8952 29.918 17.0091 29.8252 17.0938 29.6982C17.1816 29.568 17.2256 29.3955 17.2256 29.1807C17.2256 28.9561 17.1589 28.7738 17.0254 28.6338C16.8919 28.4906 16.6852 28.4189 16.4053 28.4189ZM22.5676 26.8613C23.4725 26.8613 24.1496 27.0583 24.5988 27.4521C25.0513 27.846 25.2775 28.4059 25.2775 29.1318C25.2775 29.4574 25.2303 29.7699 25.1359 30.0693C25.0448 30.3688 24.8934 30.6357 24.6818 30.8701C24.4735 31.1045 24.1952 31.29 23.8469 31.4268C23.5018 31.5635 23.0754 31.6318 22.5676 31.6318H22.0256V34H20.0969V26.8613H22.5676ZM22.5236 28.4189H22.0256V30.0596H22.4064C22.5725 30.0596 22.7271 30.0319 22.8703 29.9766C23.0135 29.918 23.1275 29.8252 23.2121 29.6982C23.3 29.568 23.3439 29.3955 23.3439 29.1807C23.3439 28.9561 23.2772 28.7738 23.1438 28.6338C23.0103 28.4906 22.8036 28.4189 22.5236 28.4189ZM29.3646 34H27.4359V28.4385H25.6928V26.8613H31.1029V28.4385H29.3646V34Z" fill="white"/>
</svg>
