<svg width="22" height="22" viewBox="0 0 22 22" fill="none" xmlns="http://www.w3.org/2000/svg">
<path fill-rule="evenodd" clip-rule="evenodd" d="M11 1C16.5228 1 21 5.47716 21 11C21 16.5228 16.5228 21 11 21C5.47716 21 1 16.5228 1 11C1 5.47716 5.47716 1 11 1Z" stroke="#E8E9F1" stroke-width="1.5" stroke-linecap="round" stroke-linejoin="round"/>
<path fill-rule="evenodd" clip-rule="evenodd" d="M14.0506 11.4693C13.3216 12.2553 11.3376 13.5853 10.3226 14.0123C10.1606 14.0803 9.74764 14.2243 9.65864 14.2263C9.46964 14.2323 9.28764 14.1263 9.19964 13.9563C9.16564 13.8903 9.06564 13.4593 9.03364 13.2673C8.93864 12.6833 8.88964 11.7763 8.89064 10.8643C8.88964 9.90727 8.94264 8.95727 9.04864 8.37927C9.07664 8.22327 9.15864 7.86427 9.18264 7.80627C9.22764 7.69827 9.30964 7.61327 9.40864 7.56027C9.48464 7.51927 9.57164 7.49727 9.65864 7.50027C9.74764 7.50227 10.1096 7.62927 10.2336 7.67827C11.2116 8.05827 13.2806 9.43627 14.0406 10.2463C14.1086 10.3193 14.2956 10.5153 14.3266 10.5553C14.3976 10.6453 14.4326 10.7543 14.4326 10.8643C14.4326 10.9663 14.4016 11.0703 14.3376 11.1573C14.3046 11.2023 14.1136 11.4023 14.0506 11.4693Z" stroke="#E8E9F1" stroke-width="1.5" stroke-linecap="round" stroke-linejoin="round"/>
</svg>
