<svg width="17" height="21" viewBox="0 0 17 21" fill="none" xmlns="http://www.w3.org/2000/svg">
<circle cx="8.57881" cy="5.77803" r="4.77803" stroke="#E8E9F1" stroke-width="1.5" stroke-linecap="round" stroke-linejoin="round"/>
<path fill-rule="evenodd" clip-rule="evenodd" d="M1.00002 17.1996C0.998732 16.8637 1.07385 16.5319 1.2197 16.2293C1.67736 15.314 2.96798 14.8289 4.03892 14.6092C4.81128 14.4444 5.59431 14.3343 6.38217 14.2797C7.84084 14.1516 9.30793 14.1516 10.7666 14.2797C11.5544 14.3349 12.3374 14.445 13.1099 14.6092C14.1808 14.8289 15.4714 15.2683 15.9291 16.2293C16.2224 16.8461 16.2224 17.5622 15.9291 18.179C15.4714 19.1401 14.1808 19.5795 13.1099 19.79C12.3384 19.9616 11.5551 20.0749 10.7666 20.1287C9.57937 20.2293 8.38659 20.2477 7.19681 20.1836C6.92221 20.1836 6.65677 20.1836 6.38217 20.1287C5.59663 20.0755 4.81632 19.9623 4.04807 19.79C2.96798 19.5795 1.68652 19.1401 1.2197 18.179C1.0746 17.8729 0.999552 17.5383 1.00002 17.1996Z" stroke="#E8E9F1" stroke-width="1.5" stroke-linecap="round" stroke-linejoin="round"/>
</svg>
