<svg width="19" height="20" viewBox="0 0 19 20" fill="none" xmlns="http://www.w3.org/2000/svg">
<g clip-path="url(#clip0_1582_25921)">
<mask id="mask0_1582_25921" style="mask-type:alpha" maskUnits="userSpaceOnUse" x="0" y="0" width="19" height="19">
<path d="M17.9446 6.96224L12.3855 6.15432L9.9004 1.1163C9.83253 0.978362 9.72086 0.866698 9.58292 0.798824C9.23699 0.628044 8.8166 0.77036 8.64363 1.1163L6.15856 6.15432L0.599448 6.96224C0.446184 6.98413 0.306056 7.05639 0.198771 7.16586C0.0690698 7.29917 -0.00240167 7.47852 6.16252e-05 7.6645C0.00252492 7.85048 0.0787215 8.02787 0.211908 8.1577L4.234 12.0791L3.28376 17.6163C3.26148 17.7451 3.27573 17.8776 3.32491 17.9987C3.37408 18.1198 3.45621 18.2247 3.56198 18.3015C3.66775 18.3784 3.79292 18.424 3.92331 18.4333C4.0537 18.4426 4.18409 18.4152 4.29969 18.3542L9.27202 15.7399L14.2443 18.3542C14.3801 18.4264 14.5377 18.4505 14.6888 18.4242C15.0698 18.3585 15.326 17.9973 15.2603 17.6163L14.31 12.0791L18.3321 8.1577C18.4416 8.05041 18.5139 7.91029 18.5357 7.75702C18.5949 7.37386 18.3277 7.01916 17.9446 6.96224Z" fill="#006FFD"/>
</mask>
<g mask="url(#mask0_1582_25921)">
<rect y="0.726562" width="18.5438" height="18.5438" fill="#ED3241"/>
</g>
</g>
<defs>
<clipPath id="clip0_1582_25921">
<rect width="18.5438" height="18.5438" fill="white" transform="translate(0 0.726562)"/>
</clipPath>
</defs>
</svg>
