<svg width="16" height="16" viewBox="0 0 16 16" fill="none" xmlns="http://www.w3.org/2000/svg">
<mask id="mask0_3922_11648" style="mask-type:alpha" maskUnits="userSpaceOnUse" x="0" y="1" width="16" height="14">
<path fill-rule="evenodd" clip-rule="evenodd" d="M3.50304 1.38469C3.82089 1.09573 4.30632 1.09573 4.62418 1.38469L7.55756 4.05135C7.89811 4.36094 7.92321 4.88798 7.61361 5.22853C7.30402 5.56908 6.77697 5.59417 6.43642 5.28459L4.89695 3.88509V14.0013C4.89695 14.4615 4.52385 14.8346 4.06361 14.8346C3.60336 14.8346 3.23026 14.4615 3.23026 14.0013V3.88509L1.6908 5.28459C1.35024 5.59417 0.823195 5.56908 0.513601 5.22853C0.204007 4.88798 0.229104 4.36094 0.569658 4.05135L3.50304 1.38469ZM11.934 1.16797C12.3943 1.16797 12.7674 1.54106 12.7674 2.0013V12.1175L14.3069 10.718C14.6474 10.4084 15.1745 10.4335 15.4841 10.7741C15.7936 11.1146 15.7685 11.6417 15.428 11.9513L12.4946 14.6179C12.1768 14.9069 11.6913 14.9069 11.3735 14.6179L8.44009 11.9513C8.09954 11.6417 8.07444 11.1146 8.38404 10.7741C8.69363 10.4335 9.22068 10.4084 9.56123 10.718L11.1007 12.1175V2.0013C11.1007 1.54106 11.4738 1.16797 11.934 1.16797Z" fill="#006FFD"/>
</mask>
<g mask="url(#mask0_3922_11648)">
<rect x="0.00390625" width="16.0003" height="16" fill="white"/>
</g>
</svg>
