<svg width="134" height="127" viewBox="0 0 134 127" fill="none" xmlns="http://www.w3.org/2000/svg">
<g filter="url(#filter0_d_2217_21021)">
<path d="M52.3989 19.5L54.6854 28.7907C55.9795 34.0494 56.6266 36.6787 58.001 38.7991C59.2164 40.6742 60.8353 42.254 62.7395 43.4232C64.8929 44.7454 67.5373 45.328 72.826 46.4933L83.2246 48.7844L72.826 51.0755C67.5373 52.2408 64.8929 52.8234 62.7395 54.1456C60.8353 55.3148 59.2164 56.8946 58.001 58.7697C56.6266 60.8901 55.9795 63.5194 54.6854 68.7781L52.3989 78.0688L50.1125 68.7781C48.8183 63.5194 48.1713 60.8901 46.7968 58.7697C45.5815 56.8946 43.9625 55.3148 42.0584 54.1456C39.905 52.8234 37.2606 52.2408 31.9719 51.0755L21.5732 48.7844L31.9719 46.4933C37.2606 45.328 39.905 44.7454 42.0584 43.4232C43.9625 42.254 45.5815 40.6742 46.7968 38.7991C48.1713 36.6787 48.8183 34.0494 50.1125 28.7907L52.3989 19.5Z" fill="url(#paint0_linear_2217_21021)"/>
<path d="M92.7749 65.7388L92.9766 66.5677C94.2574 71.831 94.8977 74.4626 96.2671 76.5869C97.4779 78.4655 99.0932 80.0496 100.995 81.2237C103.145 82.5515 105.789 83.1405 111.076 84.3187L112.426 84.6195L111.076 84.9203C105.789 86.0985 103.145 86.6875 100.995 88.0153C99.0932 89.1894 97.4779 90.7736 96.2671 92.6521C94.8977 94.7764 94.2574 97.408 92.9766 102.671L92.7749 103.5L92.5732 102.671C91.2925 97.408 90.6521 94.7764 89.2828 92.6521C88.0719 90.7736 86.4566 89.1894 84.5549 88.0153C82.4043 86.6875 79.7608 86.0985 74.4736 84.9203L73.1235 84.6195L74.4736 84.3187C79.7608 83.1405 82.4043 82.5515 84.5549 81.2237C86.4566 80.0496 88.0719 78.4655 89.2828 76.5869C90.6521 74.4626 91.2925 71.831 92.5732 66.5677L92.7749 65.7388Z" fill="url(#paint1_linear_2217_21021)"/>
</g>
<defs>
<filter id="filter0_d_2217_21021" x="0.573242" y="0.5" width="132.853" height="126" filterUnits="userSpaceOnUse" color-interpolation-filters="sRGB">
<feFlood flood-opacity="0" result="BackgroundImageFix"/>
<feColorMatrix in="SourceAlpha" type="matrix" values="0 0 0 0 0 0 0 0 0 0 0 0 0 0 0 0 0 0 127 0" result="hardAlpha"/>
<feOffset dy="2"/>
<feGaussianBlur stdDeviation="10.5"/>
<feComposite in2="hardAlpha" operator="out"/>
<feColorMatrix type="matrix" values="0 0 0 0 1 0 0 0 0 1 0 0 0 0 1 0 0 0 0.42 0"/>
<feBlend mode="normal" in2="BackgroundImageFix" result="effect1_dropShadow_2217_21021"/>
<feBlend mode="normal" in="SourceGraphic" in2="effect1_dropShadow_2217_21021" result="shape"/>
</filter>
<linearGradient id="paint0_linear_2217_21021" x1="52.3989" y1="19.5" x2="52.3989" y2="78.0688" gradientUnits="userSpaceOnUse">
<stop stop-color="white"/>
<stop offset="1" stop-color="white"/>
</linearGradient>
<linearGradient id="paint1_linear_2217_21021" x1="92.7749" y1="65.7388" x2="92.7749" y2="103.5" gradientUnits="userSpaceOnUse">
<stop stop-color="white"/>
<stop offset="1" stop-color="white"/>
</linearGradient>
</defs>
</svg>
