<svg width="10" height="10" viewBox="0 0 10 10" fill="none" xmlns="http://www.w3.org/2000/svg">
<g clip-path="url(#clip0_1587_46996)">
<mask id="mask0_1587_46996" style="mask-type:alpha" maskUnits="userSpaceOnUse" x="-1" y="0" width="11" height="10">
<path d="M8.96839 3.48112L6.18883 3.07716L4.94629 0.55815C4.91236 0.489181 4.85652 0.433349 4.78756 0.399412C4.61459 0.314022 4.4044 0.38518 4.31791 0.55815L3.07537 3.07716L0.295818 3.48112C0.219186 3.49207 0.149122 3.52819 0.0954795 3.58293C0.0306287 3.64959 -0.00510708 3.73926 -0.00387544 3.83225C-0.00264379 3.92524 0.0354545 4.01394 0.102048 4.07885L2.11309 6.03954L1.63798 8.80815C1.62683 8.87255 1.63396 8.93879 1.65855 8.99935C1.68313 9.05991 1.7242 9.11237 1.77708 9.15077C1.82997 9.18918 1.89255 9.21201 1.95775 9.21666C2.02294 9.2213 2.08814 9.20759 2.14594 9.17708L4.6321 7.86995L7.11827 9.17708C7.18614 9.2132 7.26496 9.22524 7.3405 9.21211C7.53099 9.17927 7.65907 8.99863 7.62623 8.80815L7.15111 6.03954L9.16216 4.07885C9.21689 4.02521 9.25302 3.95514 9.26397 3.87851C9.29353 3.68693 9.15997 3.50958 8.96839 3.48112Z" fill="#006FFD"/>
</mask>
<g mask="url(#mask0_1587_46996)">
<rect x="-0.00390625" y="0.363281" width="9.27192" height="9.27192" fill="#2897FF"/>
</g>
</g>
<defs>
<clipPath id="clip0_1587_46996">
<rect width="9.27192" height="9.27192" fill="white" transform="translate(-0.00390625 0.363281)"/>
</clipPath>
</defs>
</svg>
