<svg width="47" height="44" viewBox="0 0 47 44" fill="none" xmlns="http://www.w3.org/2000/svg">
<path fill-rule="evenodd" clip-rule="evenodd" d="M25.0517 2.0286L30.4557 12.8996C30.7264 13.4479 31.2491 13.8306 31.8557 13.9193L43.9541 15.6669C44.4441 15.7323 44.8851 15.9889 45.1861 16.3809C45.7507 17.1159 45.6644 18.1566 44.9877 18.7889L36.2191 27.2683C35.7734 27.6883 35.5751 28.3043 35.6917 28.9039L37.7917 40.8693C37.9387 41.8609 37.2621 42.7896 36.2704 42.9506C35.8597 43.0136 35.4397 42.9483 35.0664 42.7639L24.2911 37.1149C23.7497 36.8209 23.1011 36.8209 22.5597 37.1149L11.7051 42.7943C10.7974 43.2563 9.68672 42.9133 9.19205 42.0243C9.00305 41.6649 8.93772 41.2566 9.00305 40.8576L11.1031 28.8923C11.2081 28.2949 11.0097 27.6813 10.5757 27.2589L1.76038 18.7819C1.04172 18.0679 1.03705 16.9059 1.75338 16.1873C1.75572 16.1849 1.75805 16.1803 1.76038 16.1779C2.05672 15.9096 2.42072 15.7299 2.81505 15.6599L14.9157 13.9123C15.5201 13.8166 16.0404 13.4386 16.3157 12.8903L21.7151 2.0286C21.9321 1.5876 22.3171 1.24927 22.7837 1.09527C23.2527 0.938937 23.7661 0.97627 24.2071 1.19794C24.5687 1.3776 24.8651 1.66927 25.0517 2.0286Z" stroke="#ED3241" stroke-width="1.5" stroke-linecap="round" stroke-linejoin="round"/>
</svg>
