<svg width="66" height="23" viewBox="0 0 66 23" fill="none" xmlns="http://www.w3.org/2000/svg">
<path d="M8.45538 14.3722C8.45538 14.1246 8.4173 13.9024 8.34112 13.7057C8.2713 13.5025 8.13799 13.3184 7.94121 13.1534C7.74442 12.982 7.46829 12.8138 7.11281 12.6487C6.75733 12.4837 6.2971 12.3123 5.73214 12.1346C5.1037 11.9314 4.507 11.7029 3.94204 11.449C3.38342 11.1951 2.88829 10.8999 2.45663 10.5635C2.03132 10.2207 1.69489 9.82392 1.44732 9.37322C1.2061 8.92252 1.08549 8.39882 1.08549 7.80212C1.08549 7.22446 1.21245 6.70076 1.46636 6.23102C1.72028 5.75493 2.07576 5.34866 2.53281 5.01222C2.98985 4.66944 3.52942 4.406 4.15152 4.22191C4.77996 4.03782 5.4687 3.94578 6.21775 3.94578C7.23976 3.94578 8.13164 4.12987 8.89339 4.49805C9.65514 4.86622 10.2455 5.37088 10.6644 6.01202C11.0898 6.65315 11.3024 7.38633 11.3024 8.21156H8.46491C8.46491 7.80529 8.37921 7.44981 8.20782 7.14511C8.04277 6.83407 7.78886 6.58967 7.44607 6.41193C7.10963 6.23419 6.68432 6.14532 6.17015 6.14532C5.67501 6.14532 5.2624 6.2215 4.93231 6.37385C4.60222 6.51985 4.35465 6.71981 4.18961 6.97372C4.02456 7.22129 3.94204 7.5006 3.94204 7.81164C3.94204 8.04651 3.99917 8.25917 4.11343 8.4496C4.23404 8.64004 4.41178 8.81778 4.64665 8.98283C4.88152 9.14787 5.17035 9.3034 5.51314 9.4494C5.85593 9.5954 6.25267 9.73823 6.70337 9.87788C7.45877 10.1064 8.12212 10.3635 8.69343 10.6491C9.27109 10.9348 9.75353 11.2554 10.1407 11.6109C10.528 11.9663 10.82 12.3694 11.0168 12.8201C11.2135 13.2708 11.3119 13.7818 11.3119 14.3531C11.3119 14.9562 11.1945 15.4958 10.9596 15.9719C10.7248 16.4479 10.3851 16.851 9.94079 17.1811C9.49644 17.5112 8.96639 17.762 8.35064 17.9333C7.7349 18.1047 7.04615 18.1904 6.28441 18.1904C5.59884 18.1904 4.92279 18.1016 4.25626 17.9238C3.58973 17.7397 2.98351 17.4636 2.43759 17.0954C1.89802 16.7272 1.46636 16.2575 1.14262 15.6862C0.818877 15.1149 0.657006 14.4388 0.657006 13.658H3.52308C3.52308 14.0897 3.58973 14.4547 3.72304 14.7531C3.85634 15.0514 4.0436 15.2926 4.28482 15.4767C4.53239 15.6608 4.82439 15.7941 5.16083 15.8766C5.50362 15.9592 5.87814 16.0004 6.28441 16.0004C6.77954 16.0004 7.18581 15.9306 7.5032 15.7909C7.82694 15.6513 8.06499 15.4577 8.21734 15.2101C8.37604 14.9625 8.45538 14.6832 8.45538 14.3722ZM17.8249 18.1904C17.025 18.1904 16.3077 18.0635 15.6729 17.8096C15.0381 17.5493 14.4986 17.1906 14.0542 16.7336C13.6162 16.2765 13.2798 15.7465 13.0449 15.1435C12.81 14.5341 12.6926 13.8866 12.6926 13.201V12.8201C12.6926 12.0393 12.8037 11.3252 13.0259 10.6777C13.248 10.0302 13.5654 9.46844 13.978 8.99235C14.397 8.51626 14.9048 8.15125 15.5015 7.89734C16.0982 7.63708 16.7711 7.50694 17.5202 7.50694C18.2502 7.50694 18.8977 7.62755 19.4626 7.86877C20.0276 8.10999 20.5005 8.45278 20.8814 8.89713C21.2686 9.34148 21.5606 9.87471 21.7574 10.4968C21.9542 11.1125 22.0526 11.7981 22.0526 12.5535V13.6961H13.8638V11.8679H19.3579V11.6585C19.3579 11.2776 19.2881 10.938 19.1484 10.6396C19.0151 10.3349 18.812 10.0937 18.539 9.91597C18.266 9.73823 17.9169 9.64936 17.4916 9.64936C17.1298 9.64936 16.8187 9.7287 16.5585 9.8874C16.2982 10.0461 16.0855 10.2683 15.9205 10.5539C15.7618 10.8396 15.6412 11.176 15.5587 11.5632C15.4825 11.9441 15.4444 12.3631 15.4444 12.8201V13.201C15.4444 13.6136 15.5015 13.9945 15.6158 14.3436C15.7364 14.6928 15.9046 14.9943 16.1205 15.2482C16.3426 15.5021 16.6092 15.6989 16.9203 15.8385C17.2377 15.9782 17.5963 16.048 17.9963 16.048C18.4914 16.048 18.9516 15.9528 19.3769 15.7624C19.8086 15.5656 20.1799 15.2704 20.491 14.8768L21.824 16.3242C21.6082 16.6352 21.313 16.9336 20.9385 17.2192C20.5703 17.5049 20.126 17.7397 19.6054 17.9238C19.0849 18.1016 18.4914 18.1904 17.8249 18.1904ZM28.356 18.1904C27.5562 18.1904 26.8389 18.0635 26.2041 17.8096C25.5693 17.5493 25.0297 17.1906 24.5854 16.7336C24.1474 16.2765 23.8109 15.7465 23.5761 15.1435C23.3412 14.5341 23.2237 13.8866 23.2237 13.201V12.8201C23.2237 12.0393 23.3348 11.3252 23.557 10.6777C23.7792 10.0302 24.0966 9.46844 24.5092 8.99235C24.9282 8.51626 25.436 8.15125 26.0327 7.89734C26.6294 7.63708 27.3023 7.50694 28.0513 7.50694C28.7813 7.50694 29.4288 7.62755 29.9938 7.86877C30.5587 8.10999 31.0316 8.45278 31.4125 8.89713C31.7997 9.34148 32.0917 9.87471 32.2885 10.4968C32.4853 11.1125 32.5837 11.7981 32.5837 12.5535V13.6961H24.3949V11.8679H29.889V11.6585C29.889 11.2776 29.8192 10.938 29.6795 10.6396C29.5462 10.3349 29.3431 10.0937 29.0701 9.91597C28.7972 9.73823 28.4481 9.64936 28.0227 9.64936C27.6609 9.64936 27.3499 9.7287 27.0896 9.8874C26.8293 10.0461 26.6167 10.2683 26.4516 10.5539C26.2929 10.8396 26.1723 11.176 26.0898 11.5632C26.0136 11.9441 25.9756 12.3631 25.9756 12.8201V13.201C25.9756 13.6136 26.0327 13.9945 26.1469 14.3436C26.2676 14.6928 26.4358 14.9943 26.6516 15.2482C26.8738 15.5021 27.1404 15.6989 27.4514 15.8385C27.7688 15.9782 28.1275 16.048 28.5274 16.048C29.0225 16.048 29.4828 15.9528 29.9081 15.7624C30.3397 15.5656 30.7111 15.2704 31.0221 14.8768L32.3552 16.3242C32.1393 16.6352 31.8442 16.9336 31.4696 17.2192C31.1015 17.5049 30.6571 17.7397 30.1366 17.9238C29.6161 18.1016 29.0225 18.1904 28.356 18.1904ZM34.6975 4.13622L38.8967 11.687L43.1339 4.13622H44.486L39.487 12.7725V18H38.3158V12.7725L33.3074 4.13622H34.6975ZM44.9906 13.0106V12.6963C44.9906 11.9473 45.0986 11.2554 45.3144 10.6206C45.5302 9.98579 45.8381 9.4367 46.238 8.97331C46.6443 8.50991 47.1299 8.15125 47.6948 7.89734C48.2598 7.63708 48.8882 7.50694 49.5802 7.50694C50.2784 7.50694 50.9101 7.63708 51.475 7.89734C52.04 8.15125 52.5256 8.50991 52.9319 8.97331C53.3381 9.4367 53.6492 9.98579 53.865 10.6206C54.0808 11.2554 54.1887 11.9473 54.1887 12.6963V13.0106C54.1887 13.7596 54.0808 14.4515 53.865 15.0863C53.6492 15.7148 53.3381 16.2607 52.9319 16.7241C52.5319 17.1875 52.0495 17.5493 51.4845 17.8096C50.9196 18.0635 50.2911 18.1904 49.5992 18.1904C48.9009 18.1904 48.2693 18.0635 47.7044 17.8096C47.1394 17.5493 46.6538 17.1875 46.2475 16.7241C45.8413 16.2607 45.5302 15.7148 45.3144 15.0863C45.0986 14.4515 44.9906 13.7596 44.9906 13.0106ZM46.1237 12.6963V13.0106C46.1237 13.5755 46.1999 14.1119 46.3523 14.6198C46.5046 15.1212 46.7268 15.5688 47.0188 15.9623C47.3108 16.3495 47.6726 16.6542 48.1043 16.8764C48.5359 17.0986 49.0343 17.2097 49.5992 17.2097C50.1578 17.2097 50.6498 17.0986 51.0751 16.8764C51.5068 16.6542 51.8686 16.3495 52.1606 15.9623C52.4526 15.5688 52.6716 15.1212 52.8176 14.6198C52.9699 14.1119 53.0461 13.5755 53.0461 13.0106V12.6963C53.0461 12.1377 52.9699 11.6077 52.8176 11.1062C52.6716 10.6047 52.4494 10.1572 52.1511 9.76362C51.8591 9.37005 51.4972 9.059 51.0656 8.83048C50.6339 8.60195 50.1388 8.48769 49.5802 8.48769C49.0216 8.48769 48.5264 8.60195 48.0948 8.83048C47.6695 9.059 47.3076 9.37005 47.0093 9.76362C46.7173 10.1572 46.4951 10.6047 46.3427 11.1062C46.1967 11.6077 46.1237 12.1377 46.1237 12.6963ZM63.1488 15.6195V7.69738H64.2914V18H63.1964L63.1488 15.6195ZM63.3583 13.7152L63.9486 13.6961C63.9486 14.3436 63.8724 14.9403 63.7201 15.4862C63.5677 16.0322 63.3297 16.5082 63.0059 16.9145C62.6822 17.3208 62.2632 17.635 61.7491 17.8572C61.2349 18.0793 60.616 18.1904 59.8923 18.1904C59.3908 18.1904 58.9306 18.1206 58.5116 17.981C58.099 17.835 57.7436 17.6064 57.4452 17.2954C57.1469 16.9843 56.9152 16.5812 56.7501 16.0861C56.5914 15.591 56.5121 14.9911 56.5121 14.2865V7.69738H57.6452V14.3055C57.6452 14.8578 57.7055 15.318 57.8261 15.6862C57.953 16.0544 58.1244 16.3495 58.3403 16.5717C58.5624 16.7939 58.8163 16.9526 59.102 17.0478C59.3877 17.143 59.6955 17.1906 60.0256 17.1906C60.8635 17.1906 61.5237 17.0288 62.0062 16.705C62.4949 16.3813 62.8409 15.956 63.044 15.4291C63.2535 14.8959 63.3583 14.3246 63.3583 13.7152Z" fill="white"/>
<rect x="44.6096" y="7.87472" width="10.0437" height="10.0436" rx="5.0218" fill="#181A20"/>
<rect x="44.6096" y="7.87472" width="10.0437" height="10.0436" rx="5.0218" stroke="white" strokeWidth="0.898851"/>
<g clip-path="url(#clip0_1356_72156)">
<mask id="mask0_1356_72156" style="mask-type:alpha" maskUnits="userSpaceOnUse" x="48" y="10" width="4" height="6">
<path d="M51.621 12.5432C51.8856 12.7134 51.8856 13.0796 51.621 13.2498L48.8873 15.0091C48.5841 15.2042 48.1719 15.0006 48.1719 14.6557L48.1719 11.1373C48.1719 10.7924 48.5841 10.5888 48.8873 10.7839L51.621 12.5432Z" fill="#B4DBFF"/>
</mask>
<g mask="url(#mask0_1356_72156)">
<rect x="47.4414" y="10.708" width="4.37705" height="4.37698" fill="#EAF2FF"/>
</g>
</g>
<defs>
<clipPath id="clip0_1356_72156">
<rect width="4.37705" height="4.37698" fill="white" transform="translate(47.4414 10.708)"/>
</clipPath>
</defs>
</svg>
