<svg width="45" height="41" viewBox="0 0 45 41" fill="none" xmlns="http://www.w3.org/2000/svg">
<path fill-rule="evenodd" clip-rule="evenodd" d="M36.1715 39.6397C40.5465 39.6397 44.0885 36.0953 44.0885 31.7227V25.4227C41.1952 25.4227 38.8619 23.0893 38.8619 20.1983C38.8619 17.305 41.1952 14.974 44.0885 14.974L44.0839 8.667C44.0839 4.29433 40.5419 0.75 36.1692 0.75H8.84121C4.46854 0.75 0.924208 4.29433 0.924208 8.667L0.921875 15.177C3.81288 15.177 6.14621 17.305 6.14621 20.1983C6.14621 23.0893 3.81288 25.4227 0.921875 25.4227V31.7227C0.921875 36.0953 4.46388 39.6397 8.83654 39.6397H36.1715Z" stroke="#3AC0A0" stroke-width="1.5" stroke-linecap="round" stroke-linejoin="round"/>
<path fill-rule="evenodd" clip-rule="evenodd" d="M22.5027 24.3259L26.5627 26.4609C26.943 26.6593 27.3887 26.3373 27.3163 25.9149L26.5393 21.3906L29.827 18.1916C30.135 17.8906 29.9647 17.3703 29.54 17.3073L24.9993 16.6469L22.967 12.5309C22.778 12.1459 22.2297 12.1459 22.0383 12.5309L20.006 16.6469L15.4677 17.3073C15.043 17.3703 14.8727 17.8906 15.1807 18.1916L18.466 21.3906L17.689 25.9149C17.6167 26.3373 18.0623 26.6593 18.4427 26.4609L22.5027 24.3259Z" stroke="#3AC0A0" stroke-width="1.5" stroke-linecap="round" stroke-linejoin="round"/>
</svg>
