<svg width="40" height="40" viewBox="0 0 40 40" fill="none" xmlns="http://www.w3.org/2000/svg">
<rect width="40" height="40" rx="20" fill="#34373F"/>
<mask id="mask0_3844_17783" style="mask-type:alpha" maskUnits="userSpaceOnUse" x="10" y="10" width="20" height="20">
<path d="M21.2513 11.666C21.2513 10.9757 20.6917 10.416 20.0013 10.416C19.3109 10.416 18.7513 10.9757 18.7513 11.666V18.7493H11.668C10.9776 18.7493 10.418 19.309 10.418 19.9993C10.418 20.6897 10.9776 21.2493 11.668 21.2493H18.7513V28.3327C18.7513 29.023 19.3109 29.5827 20.0013 29.5827C20.6917 29.5827 21.2513 29.023 21.2513 28.3327V21.2493H28.3346C29.025 21.2493 29.5846 20.6897 29.5846 19.9993C29.5846 19.309 29.025 18.7493 28.3346 18.7493H21.2513V11.666Z" fill="#006FFD"/>
</mask>
<g mask="url(#mask0_3844_17783)">
<rect x="10" y="10" width="20" height="20" fill="#F8F9FE"/>
</g>
</svg>
